M48
; DRILL file {KiCad 8.0.7} date 2024-12-17T03:43:52-0500
; FORMAT={-:-/ absolute / metric / decimal}
; #@! TF.CreationDate,2024-12-17T03:43:52-05:00
; #@! TF.GenerationSoftware,Kicad,Pcbnew,8.0.7
; #@! TF.FileFunction,Plated,1,2,PTH
FMAT,2
METRIC
; #@! TA.AperFunction,Plated,PTH,ComponentDrill
T1C0.300
; #@! TA.AperFunction,Plated,PTH,ComponentDrill
T2C1.000
; #@! TA.AperFunction,Plated,PTH,ComponentDrill
T3C1.092
; #@! TA.AperFunction,Plated,PTH,ComponentDrill
T4C2.200
%
G90
G05
T1
X82.251Y-139.413
X89.435Y-124.006
X96.62Y-108.599
X98.564Y-147.02
X103.804Y-93.191
X105.749Y-131.613
X111.497Y-161.878
X112.933Y-116.206
X118.682Y-146.47
X120.118Y-100.798
X125.866Y-131.063
X128.867Y-167.219
X133.051Y-115.656
X136.052Y-151.812
X138.474Y-119.288
X140.235Y-100.249
X143.236Y-136.405
X144.124Y-177.092
X150.421Y-120.997
X151.309Y-161.685
X153.731Y-129.161
X157.605Y-105.59
X157.904Y-191.976
X158.493Y-146.278
X165.678Y-130.87
X166.566Y-171.558
X168.988Y-139.034
X172.862Y-115.463
X173.75Y-156.15
X180.935Y-140.743
X181.199Y-195.092
X188.119Y-125.336
X248.65Y-118.342
X254.128Y-204.585
X255.835Y-133.749
X263.019Y-149.156
X263.907Y-108.469
X270.204Y-164.563
X271.092Y-123.876
X274.94Y-179.677
X278.276Y-139.283
X279.164Y-98.596
X285.461Y-154.69
X286.349Y-114.003
X292.645Y-170.098
X293.533Y-129.41
X294.73Y-116.715
X296.534Y-93.254
X300.718Y-144.817
X303.719Y-108.662
X307.902Y-160.225
X310.903Y-124.069
X314.847Y-117.265
X316.651Y-93.804
X318.088Y-139.476
X323.836Y-109.211
X325.272Y-154.883
X331.02Y-124.619
X331.161Y-109.658
X332.965Y-86.197
X338.205Y-140.026
X340.149Y-101.604
X347.334Y-117.011
X354.518Y-132.419
T2
X207.065Y-166.428
X207.635Y-174.028
X209.605Y-166.428
X212.145Y-166.428
X214.135Y-174.028
X214.685Y-166.428
T3
X203.265Y-147.758
X203.265Y-142.678
X203.265Y-160.458
X203.265Y-135.058
X203.265Y-140.138
X203.265Y-150.298
X203.265Y-155.378
X203.265Y-157.918
X203.265Y-162.998
X203.265Y-137.598
X203.265Y-145.218
X203.265Y-152.838
X218.505Y-145.218
X218.505Y-152.838
X218.505Y-160.458
X218.505Y-135.058
X218.505Y-140.138
X218.505Y-142.678
X218.505Y-147.758
X218.505Y-157.918
X218.505Y-162.998
X218.505Y-137.598
X218.505Y-155.378
X218.505Y-150.298
T4
X88.191Y-128.391
X102.56Y-97.576
X150.064Y-166.07
X171.617Y-119.848
X251.209Y-122.114
X272.762Y-168.335
X319.21Y-97.576
X333.579Y-128.391
M30
