%TF.GenerationSoftware,KiCad,Pcbnew,8.0.7*%
%TF.CreationDate,2024-12-17T03:41:54-05:00*%
%TF.ProjectId,choc,63686f63-2e6b-4696-9361-645f70636258,v1.0.0*%
%TF.SameCoordinates,Original*%
%TF.FileFunction,Copper,L2,Bot*%
%TF.FilePolarity,Positive*%
%FSLAX46Y46*%
G04 Gerber Fmt 4.6, Leading zero omitted, Abs format (unit mm)*
G04 Created by KiCad (PCBNEW 8.0.7) date 2024-12-17 03:41:54*
%MOMM*%
%LPD*%
G01*
G04 APERTURE LIST*
G04 Aperture macros list*
%AMRotRect*
0 Rectangle, with rotation*
0 The origin of the aperture is its center*
0 $1 length*
0 $2 width*
0 $3 Rotation angle, in degrees counterclockwise*
0 Add horizontal line*
21,1,$1,$2,0,0,$3*%
G04 Aperture macros list end*
%TA.AperFunction,ComponentPad*%
%ADD10C,0.600000*%
%TD*%
%TA.AperFunction,ComponentPad*%
%ADD11C,3.800000*%
%TD*%
%TA.AperFunction,ComponentPad*%
%ADD12R,1.700000X1.700000*%
%TD*%
%TA.AperFunction,ComponentPad*%
%ADD13O,1.700000X1.700000*%
%TD*%
%TA.AperFunction,ComponentPad*%
%ADD14R,1.752600X1.752600*%
%TD*%
%TA.AperFunction,ComponentPad*%
%ADD15C,1.752600*%
%TD*%
%TA.AperFunction,ComponentPad*%
%ADD16C,1.700000*%
%TD*%
%TA.AperFunction,SMDPad,CuDef*%
%ADD17RotRect,2.600000X2.600000X25.000000*%
%TD*%
%TA.AperFunction,SMDPad,CuDef*%
%ADD18RotRect,2.600000X2.600000X335.000000*%
%TD*%
%TA.AperFunction,SMDPad,CuDef*%
%ADD19RotRect,0.900000X1.200000X115.000000*%
%TD*%
%TA.AperFunction,SMDPad,CuDef*%
%ADD20RotRect,2.600000X2.600000X48.000000*%
%TD*%
%TA.AperFunction,SMDPad,CuDef*%
%ADD21RotRect,0.900000X1.200000X65.000000*%
%TD*%
%TA.AperFunction,SMDPad,CuDef*%
%ADD22RotRect,2.600000X2.600000X325.000000*%
%TD*%
%TA.AperFunction,SMDPad,CuDef*%
%ADD23RotRect,0.900000X1.200000X125.000000*%
%TD*%
%TA.AperFunction,SMDPad,CuDef*%
%ADD24RotRect,2.600000X2.600000X312.000000*%
%TD*%
%TA.AperFunction,SMDPad,CuDef*%
%ADD25RotRect,0.900000X1.200000X55.000000*%
%TD*%
%TA.AperFunction,SMDPad,CuDef*%
%ADD26RotRect,2.600000X2.600000X35.000000*%
%TD*%
%TA.AperFunction,SMDPad,CuDef*%
%ADD27RotRect,0.900000X1.200000X42.000000*%
%TD*%
%TA.AperFunction,SMDPad,CuDef*%
%ADD28RotRect,0.900000X1.200000X138.000000*%
%TD*%
%TA.AperFunction,Conductor*%
%ADD29C,0.200000*%
%TD*%
G04 APERTURE END LIST*
D10*
%TO.P,REF\u002A\u002A,1*%
%TO.N,P9*%
X274939567Y-179676512D03*
%TD*%
%TO.P,REF\u002A\u002A,1*%
%TO.N,P21*%
X140235069Y-100248779D03*
%TD*%
%TO.P,REF\u002A\u002A,1*%
%TO.N,P8*%
X300717610Y-144817497D03*
%TD*%
%TO.P,REF\u002A\u002A,1*%
%TO.N,P18*%
X153730617Y-129161100D03*
%TD*%
%TO.P,REF\u002A\u002A,1*%
%TO.N,P10*%
X111497027Y-161877708D03*
%TD*%
%TO.P,REF\u002A\u002A,1*%
%TO.N,P7*%
X347333834Y-117011421D03*
%TD*%
D11*
%TO.P,H8,*%
%TO.N,*%
X251208949Y-122113582D03*
%TD*%
D10*
%TO.P,REF\u002A\u002A,1*%
%TO.N,P16*%
X118681534Y-146470471D03*
%TD*%
D11*
%TO.P,H7,*%
%TO.N,*%
X319210129Y-97576074D03*
%TD*%
D10*
%TO.P,REF\u002A\u002A,1*%
%TO.N,P20*%
X165677635Y-130870266D03*
%TD*%
%TO.P,REF\u002A\u002A,1*%
%TO.N,P14*%
X158493129Y-146277503D03*
%TD*%
%TO.P,REF\u002A\u002A,1*%
%TO.N,P14*%
X143236132Y-136404603D03*
%TD*%
%TO.P,REF\u002A\u002A,1*%
%TO.N,P1*%
X316651267Y-93804083D03*
%TD*%
%TO.P,REF\u002A\u002A,1*%
%TO.N,P7*%
X331020289Y-124618547D03*
%TD*%
%TO.P,REF\u002A\u002A,1*%
%TO.N,P21*%
X188119145Y-125335928D03*
%TD*%
%TO.P,REF\u002A\u002A,1*%
%TO.N,P8*%
X270203623Y-164563299D03*
%TD*%
%TO.P,REF\u002A\u002A,1*%
%TO.N,P1*%
X248650084Y-118341603D03*
%TD*%
%TO.P,REF\u002A\u002A,1*%
%TO.N,P9*%
X292645129Y-170097631D03*
%TD*%
%TO.P,REF\u002A\u002A,1*%
%TO.N,P0*%
X255834605Y-133748836D03*
%TD*%
%TO.P,REF\u002A\u002A,1*%
%TO.N,P19*%
X138473624Y-119288210D03*
%TD*%
%TO.P,REF\u002A\u002A,1*%
%TO.N,P9*%
X254127528Y-204585176D03*
%TD*%
%TO.P,REF\u002A\u002A,1*%
%TO.N,P14*%
X105748940Y-131612884D03*
%TD*%
%TO.P,REF\u002A\u002A,1*%
%TO.N,P8*%
X318087691Y-139476142D03*
%TD*%
%TO.P,REF\u002A\u002A,1*%
%TO.N,P1*%
X263907087Y-108468700D03*
%TD*%
%TO.P,REF\u002A\u002A,1*%
%TO.N,P10*%
X157904387Y-191975556D03*
%TD*%
%TO.P,REF\u002A\u002A,1*%
%TO.N,P7*%
X278276105Y-139283165D03*
%TD*%
%TO.P,REF\u002A\u002A,1*%
%TO.N,P1*%
X279164081Y-98595800D03*
%TD*%
%TO.P,REF\u002A\u002A,1*%
%TO.N,P6*%
X294729983Y-116714999D03*
%TD*%
%TO.P,REF\u002A\u002A,1*%
%TO.N,P7*%
X293533096Y-129410264D03*
%TD*%
%TO.P,REF\u002A\u002A,1*%
%TO.N,P8*%
X354518340Y-132418651D03*
%TD*%
%TO.P,REF\u002A\u002A,1*%
%TO.N,P20*%
X150420642Y-120997370D03*
%TD*%
%TO.P,REF\u002A\u002A,1*%
%TO.N,P21*%
X157605158Y-105590134D03*
%TD*%
%TO.P,REF\u002A\u002A,1*%
%TO.N,P21*%
X103804427Y-93191291D03*
%TD*%
D11*
%TO.P,H2,*%
%TO.N,*%
X102559716Y-97576077D03*
%TD*%
D10*
%TO.P,REF\u002A\u002A,1*%
%TO.N,P0*%
X271091590Y-123875934D03*
%TD*%
%TO.P,REF\u002A\u002A,1*%
%TO.N,P0*%
X323835779Y-109211315D03*
%TD*%
%TO.P,REF\u002A\u002A,1*%
%TO.N,P16*%
X136051628Y-151811836D03*
%TD*%
%TO.P,REF\u002A\u002A,1*%
%TO.N,P7*%
X310903184Y-124068905D03*
%TD*%
%TO.P,REF\u002A\u002A,1*%
%TO.N,P16*%
X82250894Y-139412986D03*
%TD*%
D11*
%TO.P,H3,*%
%TO.N,*%
X88190698Y-128390536D03*
%TD*%
D10*
%TO.P,REF\u002A\u002A,1*%
%TO.N,P16*%
X151308617Y-161684729D03*
%TD*%
%TO.P,REF\u002A\u002A,1*%
%TO.N,P15*%
X168987614Y-139034006D03*
%TD*%
%TO.P,REF\u002A\u002A,1*%
%TO.N,P9*%
X307902120Y-160224732D03*
%TD*%
%TO.P,REF\u002A\u002A,1*%
%TO.N,P1*%
X296534166Y-93254445D03*
%TD*%
%TO.P,REF\u002A\u002A,1*%
%TO.N,P1*%
X332964811Y-86196957D03*
%TD*%
%TO.P,REF\u002A\u002A,1*%
%TO.N,P8*%
X285460612Y-154690398D03*
%TD*%
%TO.P,REF\u002A\u002A,1*%
%TO.N,P21*%
X172862149Y-115463038D03*
%TD*%
D12*
%TO.P,OLED1,1*%
%TO.N,GND*%
X214684919Y-166427996D03*
D13*
%TO.P,OLED1,2*%
%TO.N,VCC*%
X212144922Y-166427995D03*
%TO.P,OLED1,3*%
%TO.N,P3*%
X209604921Y-166427997D03*
%TO.P,OLED1,4*%
%TO.N,P2*%
X207064921Y-166427995D03*
%TD*%
D10*
%TO.P,REF\u002A\u002A,1*%
%TO.N,P10*%
X181199278Y-195092487D03*
%TD*%
%TO.P,REF\u002A\u002A,1*%
%TO.N,P20*%
X112933450Y-116205649D03*
%TD*%
%TO.P,REF\u002A\u002A,1*%
%TO.N,P16*%
X166565615Y-171557628D03*
%TD*%
%TO.P,REF\u002A\u002A,1*%
%TO.N,P5*%
X314847090Y-117264638D03*
%TD*%
%TO.P,REF\u002A\u002A,1*%
%TO.N,P20*%
X180934634Y-140743163D03*
%TD*%
%TO.P,REF\u002A\u002A,1*%
%TO.N,P16*%
X98564431Y-147020115D03*
%TD*%
D11*
%TO.P,H1,*%
%TO.N,*%
X171617436Y-119847816D03*
%TD*%
D14*
%TO.P,MCU1,1*%
%TO.N,RAW*%
X203264915Y-135058001D03*
D15*
%TO.P,MCU1,2*%
%TO.N,GND*%
X203264916Y-137598002D03*
%TO.P,MCU1,3*%
%TO.N,RST*%
X203264915Y-140138002D03*
%TO.P,MCU1,4*%
%TO.N,VCC*%
X203264913Y-142678002D03*
%TO.P,MCU1,5*%
%TO.N,P21*%
X203264916Y-145218003D03*
%TO.P,MCU1,6*%
%TO.N,P20*%
X203264912Y-147758003D03*
%TO.P,MCU1,7*%
%TO.N,P19*%
X203264915Y-150298002D03*
%TO.P,MCU1,8*%
%TO.N,P18*%
X203264917Y-152838001D03*
%TO.P,MCU1,9*%
%TO.N,P15*%
X203264915Y-155378003D03*
%TO.P,MCU1,10*%
%TO.N,P14*%
X203264915Y-157918002D03*
%TO.P,MCU1,11*%
%TO.N,P16*%
X203264913Y-160458002D03*
%TO.P,MCU1,12*%
%TO.N,P10*%
X203264915Y-162998003D03*
%TO.P,MCU1,13*%
%TO.N,P1*%
X218504915Y-135058001D03*
%TO.P,MCU1,14*%
%TO.N,P0*%
X218504917Y-137598002D03*
%TO.P,MCU1,15*%
%TO.N,GND*%
X218504915Y-140138002D03*
%TO.P,MCU1,16*%
X218504915Y-142678001D03*
%TO.P,MCU1,17*%
%TO.N,P2*%
X218504913Y-145218003D03*
%TO.P,MCU1,18*%
%TO.N,P3*%
X218504915Y-147758002D03*
%TO.P,MCU1,19*%
%TO.N,P4*%
X218504918Y-150298001D03*
%TO.P,MCU1,20*%
%TO.N,P5*%
X218504914Y-152838001D03*
%TO.P,MCU1,21*%
%TO.N,P6*%
X218504917Y-155378002D03*
%TO.P,MCU1,22*%
%TO.N,P7*%
X218504915Y-157918002D03*
%TO.P,MCU1,23*%
%TO.N,P8*%
X218504914Y-160458002D03*
%TO.P,MCU1,24*%
%TO.N,P9*%
X218504915Y-162998003D03*
%TD*%
D10*
%TO.P,REF\u002A\u002A,1*%
%TO.N,P14*%
X173750122Y-156150393D03*
%TD*%
%TO.P,REF\u002A\u002A,1*%
%TO.N,P14*%
X89435399Y-124005756D03*
%TD*%
%TO.P,REF\u002A\u002A,1*%
%TO.N,P0*%
X286348592Y-114003032D03*
%TD*%
%TO.P,REF\u002A\u002A,1*%
%TO.N,P10*%
X144124108Y-177091968D03*
%TD*%
%TO.P,REF\u002A\u002A,1*%
%TO.N,P10*%
X128867112Y-167219061D03*
%TD*%
%TO.P,REF\u002A\u002A,1*%
%TO.N,P7*%
X263019108Y-149156065D03*
%TD*%
%TO.P,REF\u002A\u002A,1*%
%TO.N,P0*%
X303718669Y-108661679D03*
%TD*%
D11*
%TO.P,H5,*%
%TO.N,*%
X272762472Y-168335281D03*
%TD*%
D16*
%TO.P,RST1,1*%
%TO.N,RST*%
X207634924Y-174028002D03*
%TO.P,RST1,2*%
%TO.N,GND*%
X214134924Y-174027998D03*
%TD*%
D10*
%TO.P,REF\u002A\u002A,1*%
%TO.N,P20*%
X96619914Y-108598518D03*
%TD*%
D11*
%TO.P,H4,*%
%TO.N,*%
X150063909Y-166069519D03*
%TD*%
D10*
%TO.P,REF\u002A\u002A,1*%
%TO.N,P9*%
X325272204Y-154883376D03*
%TD*%
%TO.P,REF\u002A\u002A,1*%
%TO.N,P20*%
X133050553Y-115656007D03*
%TD*%
D11*
%TO.P,H6,*%
%TO.N,*%
X333579144Y-128390538D03*
%TD*%
D10*
%TO.P,REF\u002A\u002A,1*%
%TO.N,P8*%
X338204797Y-140025786D03*
%TD*%
%TO.P,REF\u002A\u002A,1*%
%TO.N,P14*%
X125866047Y-131063241D03*
%TD*%
%TO.P,REF\u002A\u002A,1*%
%TO.N,P0*%
X340149319Y-101604189D03*
%TD*%
%TO.P,REF\u002A\u002A,1*%
%TO.N,P21*%
X120117962Y-100798420D03*
%TD*%
%TO.P,REF\u002A\u002A,1*%
%TO.N,P4*%
X331160629Y-109657509D03*
%TD*%
D17*
%TO.P,S38,1*%
%TO.N,P5*%
X310599298Y-150746847D03*
%TO.P,S38,2*%
%TO.N,mirror_ring_mod*%
X321996914Y-147859483D03*
%TD*%
D18*
%TO.P,S2,1*%
%TO.N,P4*%
X83172600Y-110106748D03*
%TO.P,S2,2*%
%TO.N,outer_home*%
X92710695Y-116981867D03*
%TD*%
%TO.P,S21,1*%
%TO.N,P18*%
X152230325Y-132378490D03*
%TO.P,S21,2*%
%TO.N,index_home*%
X161768420Y-139253609D03*
%TD*%
D17*
%TO.P,S30,1*%
%TO.N,P4*%
X339845433Y-128282134D03*
%TO.P,S30,2*%
%TO.N,mirror_outer_bottom*%
X351243049Y-125394770D03*
%TD*%
D19*
%TO.P,D49,1*%
%TO.N,P8*%
X284678770Y-153013731D03*
%TO.P,D49,2*%
%TO.N,mirror_index_bottom*%
X283284134Y-150022911D03*
%TD*%
D18*
%TO.P,S6,1*%
%TO.N,P5*%
X99486138Y-117713877D03*
%TO.P,S6,2*%
%TO.N,pinky_home*%
X109024233Y-124588996D03*
%TD*%
D19*
%TO.P,D50,1*%
%TO.N,P7*%
X277494259Y-137606497D03*
%TO.P,D50,2*%
%TO.N,mirror_index_home*%
X276099623Y-134615677D03*
%TD*%
D18*
%TO.P,S5,1*%
%TO.N,P5*%
X92301632Y-133121110D03*
%TO.P,S5,2*%
%TO.N,pinky_bottom*%
X101839727Y-139996229D03*
%TD*%
D19*
%TO.P,D32,1*%
%TO.N,P0*%
X339367477Y-99927521D03*
%TO.P,D32,2*%
%TO.N,mirror_outer_top*%
X337972841Y-96936701D03*
%TD*%
D20*
%TO.P,S57,1*%
%TO.N,P18*%
X259816813Y-181601979D03*
%TO.P,S57,2*%
%TO.N,mirror_select_fan*%
X269180189Y-174490743D03*
%TD*%
D21*
%TO.P,D17,1*%
%TO.N,P20*%
X151202485Y-119320699D03*
%TO.P,D17,2*%
%TO.N,middle_top*%
X152597123Y-116329883D03*
%TD*%
D22*
%TO.P,S58,1*%
%TO.N,P15*%
X250373409Y-189809802D03*
%TO.P,S58,2*%
%TO.N,mirror_space_fan*%
X258572746Y-198236746D03*
%TD*%
D23*
%TO.P,D29,1*%
%TO.N,P10*%
X180138159Y-193577062D03*
%TO.P,D29,2*%
%TO.N,space_fan*%
X178245357Y-190873860D03*
%TD*%
D18*
%TO.P,S17,1*%
%TO.N,P19*%
X144157840Y-107098362D03*
%TO.P,S17,2*%
%TO.N,middle_top*%
X153695935Y-113973481D03*
%TD*%
D17*
%TO.P,S49,1*%
%TO.N,P18*%
X270787711Y-150553876D03*
%TO.P,S49,2*%
%TO.N,mirror_index_bottom*%
X282185327Y-147666512D03*
%TD*%
%TO.P,S45,1*%
%TO.N,P19*%
X278860195Y-125273743D03*
%TO.P,S45,2*%
%TO.N,mirror_middle_home*%
X290257811Y-122386379D03*
%TD*%
D19*
%TO.P,D43,1*%
%TO.N,P9*%
X307120272Y-158548062D03*
%TO.P,D43,2*%
%TO.N,mirror_middle_mod*%
X305725636Y-155557242D03*
%TD*%
D21*
%TO.P,D11,1*%
%TO.N,P14*%
X126647893Y-129386571D03*
%TO.P,D11,2*%
%TO.N,ring_home*%
X128042531Y-126395755D03*
%TD*%
%TO.P,D22,1*%
%TO.N,P20*%
X166459483Y-129193596D03*
%TO.P,D22,2*%
%TO.N,index_top*%
X167854121Y-126202780D03*
%TD*%
D24*
%TO.P,S28,1*%
%TO.N,P18*%
X157570217Y-176734389D03*
%TO.P,S28,2*%
%TO.N,select_fan*%
X163663758Y-186789799D03*
%TD*%
D21*
%TO.P,D1,1*%
%TO.N,P16*%
X83032734Y-137736313D03*
%TO.P,D1,2*%
%TO.N,outer_bottom*%
X84427372Y-134745497D03*
%TD*%
%TO.P,D18,1*%
%TO.N,P21*%
X158386997Y-103913466D03*
%TO.P,D18,2*%
%TO.N,middle_num*%
X159781635Y-100922650D03*
%TD*%
D17*
%TO.P,S35,1*%
%TO.N,P5*%
X316347380Y-120482028D03*
%TO.P,S35,2*%
%TO.N,mirror_pinky_home*%
X327744996Y-117594664D03*
%TD*%
D21*
%TO.P,D15,1*%
%TO.N,P16*%
X136833468Y-150135156D03*
%TO.P,D15,2*%
%TO.N,middle_bottom*%
X138228106Y-147144340D03*
%TD*%
%TO.P,D26,1*%
%TO.N,P20*%
X181716481Y-139066492D03*
%TO.P,D26,2*%
%TO.N,inner_top*%
X183111119Y-136075676D03*
%TD*%
D17*
%TO.P,S40,1*%
%TO.N,P6*%
X296230279Y-119932387D03*
%TO.P,S40,2*%
%TO.N,mirror_ring_home*%
X307627895Y-117045023D03*
%TD*%
%TO.P,S50,1*%
%TO.N,P18*%
X263603198Y-135146646D03*
%TO.P,S50,2*%
%TO.N,mirror_index_home*%
X275000814Y-132259282D03*
%TD*%
D19*
%TO.P,D42,1*%
%TO.N,P1*%
X295752319Y-91577772D03*
%TO.P,D42,2*%
%TO.N,mirror_ring_num*%
X294357683Y-88586952D03*
%TD*%
D17*
%TO.P,S44,1*%
%TO.N,P19*%
X286044704Y-140680977D03*
%TO.P,S44,2*%
%TO.N,mirror_middle_bottom*%
X297442320Y-137793613D03*
%TD*%
D21*
%TO.P,D27,1*%
%TO.N,P21*%
X188900990Y-123659263D03*
%TO.P,D27,2*%
%TO.N,inner_num*%
X190295628Y-120668447D03*
%TD*%
D18*
%TO.P,S18,1*%
%TO.N,P19*%
X151342348Y-91691130D03*
%TO.P,S18,2*%
%TO.N,middle_num*%
X160880443Y-98566249D03*
%TD*%
D21*
%TO.P,D6,1*%
%TO.N,P14*%
X106530788Y-129936215D03*
%TO.P,D6,2*%
%TO.N,pinky_home*%
X107925426Y-126945399D03*
%TD*%
%TO.P,D16,1*%
%TO.N,P14*%
X144017983Y-134727931D03*
%TO.P,D16,2*%
%TO.N,middle_home*%
X145412621Y-131737115D03*
%TD*%
D18*
%TO.P,S8,1*%
%TO.N,P5*%
X113855162Y-86899409D03*
%TO.P,S8,2*%
%TO.N,pinky_num*%
X123393257Y-93774528D03*
%TD*%
D19*
%TO.P,D56,1*%
%TO.N,P1*%
X247868247Y-116664936D03*
%TO.P,D56,2*%
%TO.N,mirror_inner_num*%
X246473611Y-113674116D03*
%TD*%
D21*
%TO.P,D3,1*%
%TO.N,P20*%
X97401758Y-106921850D03*
%TO.P,D3,2*%
%TO.N,outer_top*%
X98796396Y-103931034D03*
%TD*%
D19*
%TO.P,D53,1*%
%TO.N,P8*%
X269421775Y-162886633D03*
%TO.P,D53,2*%
%TO.N,mirror_inner_bottom*%
X268027139Y-159895813D03*
%TD*%
D18*
%TO.P,S23,1*%
%TO.N,P18*%
X166599343Y-101564028D03*
%TO.P,S23,2*%
%TO.N,index_num*%
X176137438Y-108439147D03*
%TD*%
D17*
%TO.P,S56,1*%
%TO.N,P15*%
X233977183Y-114205077D03*
%TO.P,S56,2*%
%TO.N,mirror_inner_num*%
X245374799Y-111317713D03*
%TD*%
D21*
%TO.P,D4,1*%
%TO.N,P21*%
X104586268Y-91514622D03*
%TO.P,D4,2*%
%TO.N,outer_num*%
X105980906Y-88523806D03*
%TD*%
D19*
%TO.P,D30,1*%
%TO.N,P8*%
X353736493Y-130741984D03*
%TO.P,D30,2*%
%TO.N,mirror_outer_bottom*%
X352341857Y-127751164D03*
%TD*%
D21*
%TO.P,D25,1*%
%TO.N,P14*%
X174531967Y-154473730D03*
%TO.P,D25,2*%
%TO.N,inner_home*%
X175926605Y-151482914D03*
%TD*%
D19*
%TO.P,D40,1*%
%TO.N,P7*%
X310121343Y-122392238D03*
%TO.P,D40,2*%
%TO.N,mirror_ring_home*%
X308726707Y-119401418D03*
%TD*%
D17*
%TO.P,S41,1*%
%TO.N,P6*%
X289045771Y-104525151D03*
%TO.P,S41,2*%
%TO.N,mirror_ring_top*%
X300443387Y-101637787D03*
%TD*%
D18*
%TO.P,S4,1*%
%TO.N,P4*%
X97541618Y-79292280D03*
%TO.P,S4,2*%
%TO.N,outer_num*%
X107079713Y-86167399D03*
%TD*%
D17*
%TO.P,S51,1*%
%TO.N,P18*%
X256418684Y-119739416D03*
%TO.P,S51,2*%
%TO.N,mirror_index_top*%
X267816300Y-116852052D03*
%TD*%
D21*
%TO.P,D8,1*%
%TO.N,P21*%
X120899809Y-99121755D03*
%TO.P,D8,2*%
%TO.N,pinky_num*%
X122294447Y-96130939D03*
%TD*%
%TO.P,D14,1*%
%TO.N,P10*%
X129648961Y-165542395D03*
%TO.P,D14,2*%
%TO.N,middle_mod*%
X131043599Y-162551579D03*
%TD*%
D19*
%TO.P,D31,1*%
%TO.N,P7*%
X346551989Y-115334753D03*
%TO.P,D31,2*%
%TO.N,mirror_outer_home*%
X345157353Y-112343933D03*
%TD*%
%TO.P,D51,1*%
%TO.N,P0*%
X270309751Y-122199263D03*
%TO.P,D51,2*%
%TO.N,mirror_index_top*%
X268915115Y-119208443D03*
%TD*%
D18*
%TO.P,S22,1*%
%TO.N,P18*%
X159414834Y-116971260D03*
%TO.P,S22,2*%
%TO.N,index_top*%
X168952929Y-123846379D03*
%TD*%
D19*
%TO.P,D36,1*%
%TO.N,P0*%
X323053935Y-107534653D03*
%TO.P,D36,2*%
%TO.N,mirror_pinky_top*%
X321659299Y-104543833D03*
%TD*%
D18*
%TO.P,S19,1*%
%TO.N,P19*%
X137861298Y-163192959D03*
%TO.P,S19,2*%
%TO.N,index_mod*%
X147399393Y-170068078D03*
%TD*%
D19*
%TO.P,D54,1*%
%TO.N,P7*%
X262237265Y-147479397D03*
%TO.P,D54,2*%
%TO.N,mirror_inner_home*%
X260842629Y-144488577D03*
%TD*%
D18*
%TO.P,S16,1*%
%TO.N,P19*%
X136973330Y-122505598D03*
%TO.P,S16,2*%
%TO.N,middle_home*%
X146511425Y-129380717D03*
%TD*%
D21*
%TO.P,D24,1*%
%TO.N,P16*%
X167347457Y-169880956D03*
%TO.P,D24,2*%
%TO.N,inner_bottom*%
X168742095Y-166890140D03*
%TD*%
D18*
%TO.P,S9,1*%
%TO.N,P5*%
X105234227Y-147978705D03*
%TO.P,S9,2*%
%TO.N,ring_mod*%
X114772322Y-154853824D03*
%TD*%
D25*
%TO.P,D58,1*%
%TO.N,P9*%
X255188650Y-203069746D03*
%TO.P,D58,2*%
%TO.N,mirror_space_fan*%
X257081452Y-200366542D03*
%TD*%
D21*
%TO.P,D19,1*%
%TO.N,P10*%
X144905953Y-175415289D03*
%TO.P,D19,2*%
%TO.N,index_mod*%
X146300591Y-172424473D03*
%TD*%
D18*
%TO.P,S26,1*%
%TO.N,P15*%
X174671825Y-126844158D03*
%TO.P,S26,2*%
%TO.N,inner_top*%
X184209920Y-133719277D03*
%TD*%
D26*
%TO.P,S29,1*%
%TO.N,P15*%
X166030982Y-193566733D03*
%TO.P,S29,2*%
%TO.N,space_fan*%
X176754057Y-188744060D03*
%TD*%
D17*
%TO.P,S39,1*%
%TO.N,P6*%
X303414791Y-135339616D03*
%TO.P,S39,2*%
%TO.N,mirror_ring_bottom*%
X314812407Y-132452252D03*
%TD*%
D21*
%TO.P,D12,1*%
%TO.N,P20*%
X133832403Y-113979340D03*
%TO.P,D12,2*%
%TO.N,ring_top*%
X135227041Y-110988524D03*
%TD*%
D19*
%TO.P,D46,1*%
%TO.N,P0*%
X285566741Y-112326368D03*
%TO.P,D46,2*%
%TO.N,mirror_middle_top*%
X284172105Y-109335548D03*
%TD*%
D21*
%TO.P,D23,1*%
%TO.N,P21*%
X173643989Y-113786364D03*
%TO.P,D23,2*%
%TO.N,index_num*%
X175038627Y-110795548D03*
%TD*%
D17*
%TO.P,S34,1*%
%TO.N,P5*%
X323531894Y-135889255D03*
%TO.P,S34,2*%
%TO.N,mirror_pinky_bottom*%
X334929510Y-133001891D03*
%TD*%
D18*
%TO.P,S25,1*%
%TO.N,P15*%
X167487320Y-142251394D03*
%TO.P,S25,2*%
%TO.N,inner_home*%
X177025415Y-149126513D03*
%TD*%
D17*
%TO.P,S42,1*%
%TO.N,P6*%
X281861255Y-89117923D03*
%TO.P,S42,2*%
%TO.N,mirror_ring_num*%
X293258871Y-86230559D03*
%TD*%
D21*
%TO.P,D10,1*%
%TO.N,P16*%
X119463381Y-144793812D03*
%TO.P,D10,2*%
%TO.N,ring_bottom*%
X120858019Y-141802996D03*
%TD*%
D17*
%TO.P,S52,1*%
%TO.N,P18*%
X249234176Y-104332183D03*
%TO.P,S52,2*%
%TO.N,mirror_index_num*%
X260631792Y-101444819D03*
%TD*%
%TO.P,S32,1*%
%TO.N,P4*%
X325476411Y-97467670D03*
%TO.P,S32,2*%
%TO.N,mirror_outer_top*%
X336874027Y-94580306D03*
%TD*%
D18*
%TO.P,S24,1*%
%TO.N,P15*%
X160302805Y-157658627D03*
%TO.P,S24,2*%
%TO.N,inner_bottom*%
X169840900Y-164533746D03*
%TD*%
D27*
%TO.P,D28,1*%
%TO.N,P10*%
X159279200Y-190737670D03*
%TO.P,D28,2*%
%TO.N,select_fan*%
X161731576Y-188529536D03*
%TD*%
D19*
%TO.P,D41,1*%
%TO.N,P0*%
X302936833Y-106985007D03*
%TO.P,D41,2*%
%TO.N,mirror_ring_top*%
X301542197Y-103994187D03*
%TD*%
%TO.P,D39,1*%
%TO.N,P8*%
X317305849Y-137799469D03*
%TO.P,D39,2*%
%TO.N,mirror_ring_bottom*%
X315911213Y-134808649D03*
%TD*%
D17*
%TO.P,S47,1*%
%TO.N,P19*%
X264491170Y-94459276D03*
%TO.P,S47,2*%
%TO.N,mirror_middle_num*%
X275888786Y-91571912D03*
%TD*%
%TO.P,S53,1*%
%TO.N,P15*%
X255530720Y-160426769D03*
%TO.P,S53,2*%
%TO.N,mirror_inner_bottom*%
X266928336Y-157539405D03*
%TD*%
D18*
%TO.P,S12,1*%
%TO.N,P6*%
X126787758Y-101757003D03*
%TO.P,S12,2*%
%TO.N,ring_top*%
X136325853Y-108632122D03*
%TD*%
D19*
%TO.P,D45,1*%
%TO.N,P7*%
X292751251Y-127733601D03*
%TO.P,D45,2*%
%TO.N,mirror_middle_home*%
X291356615Y-124742781D03*
%TD*%
%TO.P,D33,1*%
%TO.N,P1*%
X332182965Y-84520292D03*
%TO.P,D33,2*%
%TO.N,mirror_outer_num*%
X330788329Y-81529472D03*
%TD*%
D18*
%TO.P,S11,1*%
%TO.N,P6*%
X119603243Y-117164235D03*
%TO.P,S11,2*%
%TO.N,ring_home*%
X129141338Y-124039354D03*
%TD*%
D17*
%TO.P,S37,1*%
%TO.N,P5*%
X301978358Y-89667566D03*
%TO.P,S37,2*%
%TO.N,mirror_pinky_num*%
X313375974Y-86780202D03*
%TD*%
D18*
%TO.P,S3,1*%
%TO.N,P4*%
X90357108Y-94699520D03*
%TO.P,S3,2*%
%TO.N,outer_top*%
X99895203Y-101574639D03*
%TD*%
%TO.P,S15,1*%
%TO.N,P19*%
X129788816Y-137912823D03*
%TO.P,S15,2*%
%TO.N,middle_bottom*%
X139326911Y-144787942D03*
%TD*%
D17*
%TO.P,S43,1*%
%TO.N,P6*%
X293229208Y-156088211D03*
%TO.P,S43,2*%
%TO.N,mirror_middle_mod*%
X304626824Y-153200847D03*
%TD*%
D19*
%TO.P,D48,1*%
%TO.N,P9*%
X291863277Y-168420963D03*
%TO.P,D48,2*%
%TO.N,mirror_index_mod*%
X290468641Y-165430143D03*
%TD*%
D18*
%TO.P,S1,1*%
%TO.N,P4*%
X75988093Y-125513983D03*
%TO.P,S1,2*%
%TO.N,outer_bottom*%
X85526188Y-132389102D03*
%TD*%
D19*
%TO.P,D34,1*%
%TO.N,P8*%
X337422955Y-138349114D03*
%TO.P,D34,2*%
%TO.N,mirror_pinky_bottom*%
X336028319Y-135358294D03*
%TD*%
%TO.P,D47,1*%
%TO.N,P1*%
X278382234Y-96919135D03*
%TO.P,D47,2*%
%TO.N,mirror_middle_num*%
X276987598Y-93928315D03*
%TD*%
D18*
%TO.P,S14,1*%
%TO.N,P6*%
X122604306Y-153320067D03*
%TO.P,S14,2*%
%TO.N,middle_mod*%
X132142401Y-160195186D03*
%TD*%
D21*
%TO.P,D9,1*%
%TO.N,P10*%
X112278875Y-160201031D03*
%TO.P,D9,2*%
%TO.N,ring_mod*%
X113673513Y-157210215D03*
%TD*%
%TO.P,D20,1*%
%TO.N,P16*%
X152090463Y-160008064D03*
%TO.P,D20,2*%
%TO.N,index_bottom*%
X153485101Y-157017248D03*
%TD*%
D17*
%TO.P,S55,1*%
%TO.N,P15*%
X241161692Y-129612306D03*
%TO.P,S55,2*%
%TO.N,mirror_inner_top*%
X252559308Y-126724942D03*
%TD*%
D21*
%TO.P,D5,1*%
%TO.N,P16*%
X99346277Y-145343445D03*
%TO.P,D5,2*%
%TO.N,pinky_bottom*%
X100740915Y-142352629D03*
%TD*%
D18*
%TO.P,S27,1*%
%TO.N,P15*%
X181856339Y-111436934D03*
%TO.P,S27,2*%
%TO.N,inner_num*%
X191394434Y-118312053D03*
%TD*%
D17*
%TO.P,S36,1*%
%TO.N,P5*%
X309162873Y-105074788D03*
%TO.P,S36,2*%
%TO.N,mirror_pinky_top*%
X320560489Y-102187424D03*
%TD*%
%TO.P,S54,1*%
%TO.N,P15*%
X248346205Y-145019542D03*
%TO.P,S54,2*%
%TO.N,mirror_inner_home*%
X259743821Y-142132178D03*
%TD*%
%TO.P,S46,1*%
%TO.N,P19*%
X271675682Y-109866510D03*
%TO.P,S46,2*%
%TO.N,mirror_middle_top*%
X283073298Y-106979146D03*
%TD*%
%TO.P,S33,1*%
%TO.N,P4*%
X318291907Y-82060437D03*
%TO.P,S33,2*%
%TO.N,mirror_outer_num*%
X329689523Y-79173073D03*
%TD*%
D18*
%TO.P,S20,1*%
%TO.N,P18*%
X145045819Y-147785728D03*
%TO.P,S20,2*%
%TO.N,index_bottom*%
X154583914Y-154660847D03*
%TD*%
D21*
%TO.P,D2,1*%
%TO.N,P14*%
X90217252Y-122329088D03*
%TO.P,D2,2*%
%TO.N,outer_home*%
X91611890Y-119338272D03*
%TD*%
D19*
%TO.P,D52,1*%
%TO.N,P1*%
X263125239Y-106792039D03*
%TO.P,D52,2*%
%TO.N,mirror_index_num*%
X261730603Y-103801219D03*
%TD*%
%TO.P,D38,1*%
%TO.N,P9*%
X324490358Y-153206705D03*
%TO.P,D38,2*%
%TO.N,mirror_ring_mod*%
X323095722Y-150215885D03*
%TD*%
D18*
%TO.P,S7,1*%
%TO.N,P5*%
X106670654Y-102306647D03*
%TO.P,S7,2*%
%TO.N,pinky_top*%
X116208749Y-109181766D03*
%TD*%
D21*
%TO.P,D13,1*%
%TO.N,P21*%
X141016914Y-98572110D03*
%TO.P,D13,2*%
%TO.N,ring_num*%
X142411552Y-95581294D03*
%TD*%
D18*
%TO.P,S10,1*%
%TO.N,P6*%
X112418733Y-132571473D03*
%TO.P,S10,2*%
%TO.N,ring_bottom*%
X121956828Y-139446592D03*
%TD*%
D19*
%TO.P,D44,1*%
%TO.N,P8*%
X299935763Y-143140838D03*
%TO.P,D44,2*%
%TO.N,mirror_middle_bottom*%
X298541127Y-140150018D03*
%TD*%
D28*
%TO.P,D57,1*%
%TO.N,P9*%
X273564745Y-178438621D03*
%TO.P,D57,2*%
%TO.N,mirror_select_fan*%
X271112369Y-176230487D03*
%TD*%
D19*
%TO.P,D55,1*%
%TO.N,P0*%
X255052757Y-132072165D03*
%TO.P,D55,2*%
%TO.N,mirror_inner_top*%
X253658121Y-129081345D03*
%TD*%
D17*
%TO.P,S31,1*%
%TO.N,P4*%
X332660921Y-112874901D03*
%TO.P,S31,2*%
%TO.N,mirror_outer_home*%
X344058537Y-109987537D03*
%TD*%
%TO.P,S48,1*%
%TO.N,P19*%
X277972219Y-165961108D03*
%TO.P,S48,2*%
%TO.N,mirror_index_mod*%
X289369835Y-163073744D03*
%TD*%
D21*
%TO.P,D7,1*%
%TO.N,P20*%
X113715297Y-114528983D03*
%TO.P,D7,2*%
%TO.N,pinky_top*%
X115109935Y-111538167D03*
%TD*%
D19*
%TO.P,D37,1*%
%TO.N,P1*%
X315869428Y-92127415D03*
%TO.P,D37,2*%
%TO.N,mirror_pinky_num*%
X314474792Y-89136595D03*
%TD*%
D21*
%TO.P,D21,1*%
%TO.N,P14*%
X159274977Y-144600832D03*
%TO.P,D21,2*%
%TO.N,index_home*%
X160669615Y-141610016D03*
%TD*%
D19*
%TO.P,D35,1*%
%TO.N,P7*%
X330238442Y-122941878D03*
%TO.P,D35,2*%
%TO.N,mirror_pinky_home*%
X328843806Y-119951058D03*
%TD*%
D18*
%TO.P,S13,1*%
%TO.N,P6*%
X133972263Y-86349767D03*
%TO.P,S13,2*%
%TO.N,ring_num*%
X143510358Y-93224886D03*
%TD*%
D29*
%TO.N,GND*%
X205473523Y-137517064D02*
X208094461Y-140138002D01*
X208094461Y-140138002D02*
X218504915Y-140138002D01*
X205392585Y-137598002D02*
X205473523Y-137517064D01*
X203264916Y-137598002D02*
X205392585Y-137598002D01*
X218504915Y-140138002D02*
X218504915Y-142678001D01*
%TO.N,P3*%
X209604921Y-149133666D02*
X210980585Y-147758002D01*
X210980585Y-147758002D02*
X218504915Y-147758002D01*
X209604921Y-166427997D02*
X209604921Y-149133666D01*
%TO.N,P2*%
X207064921Y-147490462D02*
X207064921Y-166427995D01*
X209202584Y-145218003D02*
X206997523Y-147423064D01*
X206997523Y-147423064D02*
X207064921Y-147490462D01*
X218504913Y-145218003D02*
X209202584Y-145218003D01*
%TO.N,RST*%
X206170461Y-174028002D02*
X204965523Y-172823064D01*
X207634924Y-174028002D02*
X206170461Y-174028002D01*
X204965523Y-140565064D02*
X204965523Y-172823064D01*
X204538461Y-140138002D02*
X204965523Y-140565064D01*
X203264915Y-140138002D02*
X204538461Y-140138002D01*
%TO.N,GND*%
X214684919Y-169199668D02*
X214684919Y-166427996D01*
X214134924Y-174027998D02*
X214134924Y-169749663D01*
X214134924Y-169749663D02*
X214684919Y-169199668D01*
%TO.N,P9*%
X234407705Y-196270690D02*
X250270846Y-207378181D01*
X219609539Y-196099557D02*
X234236571Y-196099556D01*
X252439611Y-206995768D02*
X254127528Y-204585176D01*
X218504915Y-194994932D02*
X219609539Y-196099557D01*
X234236571Y-196099556D02*
X234407705Y-196270690D01*
X250270846Y-207378181D02*
X252439611Y-206995768D01*
%TO.N,P15*%
X226272882Y-196499556D02*
X234037181Y-196499557D01*
X234037181Y-196499557D02*
X234120500Y-196557896D01*
X241094638Y-201441240D02*
X234120500Y-196557896D01*
%TO.N,P18*%
X233911061Y-196899555D02*
X234132081Y-197054315D01*
X187861279Y-196907362D02*
X187869085Y-196899555D01*
X187869085Y-196899555D02*
X233911061Y-196899555D01*
X187850383Y-196905437D02*
X187861279Y-196907362D01*
X187552311Y-197114150D02*
X187850383Y-196905437D01*
X186721532Y-197695867D02*
X187552311Y-197114150D01*
X173732338Y-206791004D02*
X186721532Y-197695867D01*
X167371908Y-211244618D02*
X167460183Y-211182810D01*
X165315307Y-210881990D02*
X167371908Y-211244618D01*
X167460183Y-211182810D02*
X173690724Y-206820141D01*
X157454304Y-199655309D02*
X165315307Y-210881990D01*
X254341594Y-211205169D02*
X234132081Y-197054315D01*
X173690724Y-206820141D02*
X173732338Y-206791004D01*
%TO.N,P19*%
X226031678Y-197299554D02*
X233784940Y-197299554D01*
X226031676Y-197299557D02*
X226031678Y-197299554D01*
%TO.N,P6*%
X233658820Y-197699555D02*
X233856456Y-197837940D01*
X226846259Y-197699557D02*
X226846262Y-197699554D01*
X225047483Y-197699557D02*
X226846259Y-197699557D01*
X196648499Y-197699556D02*
X225047483Y-197699557D01*
X196645944Y-197697000D02*
X196648499Y-197699556D01*
X226846262Y-197699554D02*
X233658820Y-197699555D01*
X187977331Y-197793171D02*
X188114676Y-197697003D01*
X185984108Y-199188845D02*
X187977331Y-197793171D01*
X188114676Y-197697003D02*
X196645944Y-197697000D01*
X168823127Y-211205085D02*
X185984108Y-199188845D01*
X168272145Y-211590893D02*
X168823127Y-211205085D01*
X253514417Y-211602592D02*
X233856456Y-197837940D01*
%TO.N,P5*%
X233532699Y-198099554D02*
X233569250Y-198125146D01*
X227136681Y-198099555D02*
X233532699Y-198099554D01*
X253076923Y-211784567D02*
X233569250Y-198125146D01*
%TO.N,P4*%
X228616281Y-198499555D02*
X233406581Y-198499554D01*
%TO.N,P9*%
X218504916Y-162998003D02*
X218504915Y-194994932D01*
%TO.N,P15*%
X255136562Y-177279409D02*
X248224033Y-187151524D01*
X250745887Y-167863574D02*
X255136562Y-177279409D01*
X248224033Y-187151524D02*
X248456026Y-188467236D01*
X250373409Y-189809801D02*
X248456026Y-188467236D01*
X254430010Y-210778769D02*
X253994643Y-210473922D01*
X253994643Y-210473922D02*
X240470444Y-201004175D01*
X256277148Y-210453068D02*
X254430010Y-210778769D01*
X253942756Y-187520580D02*
X262538739Y-193539551D01*
X251699357Y-187916152D02*
X253942756Y-187520580D01*
X262538739Y-193539551D02*
X263661510Y-199907105D01*
X250373409Y-189809801D02*
X251699357Y-187916152D01*
X263661510Y-199907105D02*
X256277148Y-210453068D01*
%TO.N,P18*%
X254467556Y-211182958D02*
X254341594Y-211205169D01*
X254467555Y-211182959D02*
X254467556Y-211182958D01*
X254467555Y-211182959D02*
X254341594Y-211205169D01*
X254821308Y-211120583D02*
X254467555Y-211182959D01*
%TO.N,P19*%
X253951912Y-211420621D02*
X233784940Y-197299554D01*
%TO.N,P5*%
X254060469Y-212473252D02*
X253076923Y-211784567D01*
X253076923Y-211784567D02*
X252868857Y-211638877D01*
%TO.N,P18*%
X256506068Y-210823513D02*
X254821308Y-211120583D01*
X256665385Y-210595983D02*
X256506068Y-210823513D01*
%TO.N,P19*%
X254713891Y-211545693D02*
X254247884Y-211627863D01*
X256738694Y-211188666D02*
X254713891Y-211545693D01*
X254247884Y-211627863D02*
X253951912Y-211420621D01*
X257032411Y-210769197D02*
X265492130Y-198687467D01*
X256898013Y-210961135D02*
X257032411Y-210769197D01*
X257032411Y-210769197D02*
X256738694Y-211188666D01*
%TO.N,P6*%
X254154178Y-212050557D02*
X253514417Y-211602592D01*
X255137104Y-211877240D02*
X254154178Y-212050557D01*
X256971323Y-211553819D02*
X255137104Y-211877240D01*
X257130640Y-211326289D02*
X256971323Y-211553819D01*
%TO.N,P5*%
X254499057Y-212395917D02*
X254060469Y-212473252D01*
X257203949Y-211918972D02*
X254499057Y-212395917D01*
X257340006Y-211724664D02*
X257203949Y-211918972D01*
%TO.N,P4*%
X254243239Y-212847196D02*
X253966760Y-212895947D01*
X253966760Y-212895947D02*
X252639426Y-211966537D01*
%TO.N,P18*%
X265151754Y-198476195D02*
X265150501Y-198469095D01*
X256665385Y-210595983D02*
X265151754Y-198476195D01*
X270692300Y-192314304D02*
X265150501Y-198469095D01*
%TO.N,P19*%
X265994328Y-198129720D02*
X265994330Y-198129719D01*
X265492130Y-198687467D02*
X265994328Y-198129720D01*
X265956726Y-198171482D02*
X265994330Y-198129719D01*
X265994330Y-198129719D02*
X275807508Y-187231077D01*
%TO.N,P6*%
X266364847Y-198316006D02*
X266414380Y-198260995D01*
X265805755Y-198936941D02*
X266364847Y-198316006D01*
X263333296Y-202467978D02*
X265805755Y-198936941D01*
X257130640Y-211326289D02*
X263333296Y-202467978D01*
%TO.N,P5*%
X266312099Y-198972378D02*
X266312102Y-198972379D01*
X257340006Y-211724664D02*
X266119385Y-199186411D01*
X266312102Y-198972379D02*
X266772971Y-198460531D01*
X266119385Y-199186411D02*
X266312099Y-198972378D01*
%TO.N,P4*%
X257436578Y-212284123D02*
X254243239Y-212847196D01*
X266465003Y-199400353D02*
X266642222Y-199203532D01*
X264139209Y-202721931D02*
X266465003Y-199400353D01*
X266766489Y-199065517D02*
X266642222Y-199203532D01*
X264131095Y-202723363D02*
X264139209Y-202721931D01*
X257436578Y-212284123D02*
X264131095Y-202723363D01*
%TO.N,P18*%
X270692298Y-192314302D02*
X270692300Y-192314304D01*
X259816813Y-181601979D02*
X270641695Y-191348747D01*
X270641695Y-191348747D02*
X270692298Y-192314302D01*
%TO.N,P19*%
X279946769Y-182633960D02*
X279967718Y-182632864D01*
X275807508Y-187231077D02*
X279946769Y-182633960D01*
X283944281Y-180753152D02*
X279967718Y-182632864D01*
%TO.N,P6*%
X280176501Y-182976611D02*
X280341354Y-182898685D01*
X280176498Y-182976612D02*
X280176501Y-182976611D01*
X280341354Y-182898684D02*
X280516855Y-182815725D01*
X280516855Y-182815725D02*
X280516858Y-182815725D01*
X276215630Y-187375600D02*
X280176498Y-182976612D01*
X280341354Y-182898685D02*
X280341354Y-182898684D01*
X299961158Y-173624444D02*
X280516858Y-182815725D01*
X266364847Y-198316006D02*
X276215630Y-187375600D01*
%TO.N,P5*%
X276402023Y-187766380D02*
X280420029Y-183303932D01*
X266772971Y-198460531D02*
X276402023Y-187766380D01*
%TO.N,P4*%
X279529493Y-184890764D02*
X280663561Y-183631252D01*
X276810145Y-187910904D02*
X279529493Y-184890764D01*
X266766489Y-199065517D02*
X267181093Y-198605053D01*
X267181093Y-198605053D02*
X276810145Y-187910904D01*
%TO.N,P19*%
X284350030Y-179638363D02*
X283944281Y-180753152D01*
X277972221Y-165961107D02*
X284350030Y-179638363D01*
%TO.N,P6*%
X300915092Y-172570639D02*
X300650061Y-173298802D01*
X293229212Y-156088211D02*
X300915092Y-172570639D01*
X300650061Y-173298802D02*
X299961158Y-173624444D01*
%TO.N,P4*%
X316985203Y-166462015D02*
X280663561Y-183631252D01*
X330764229Y-159941244D02*
X326638736Y-161893588D01*
X326637944Y-161893965D02*
X325720466Y-162328148D01*
X325719586Y-162328563D02*
X316985203Y-166462015D01*
X330767559Y-159931946D02*
X330764229Y-159941244D01*
X331380098Y-159642395D02*
X330767559Y-159931946D01*
X326638736Y-161893588D02*
X326637944Y-161893965D01*
X325720466Y-162328148D02*
X325719586Y-162328563D01*
X347621181Y-147210615D02*
X331581593Y-159518224D01*
X331581593Y-159518224D02*
X331581443Y-159519356D01*
X348081798Y-145945078D02*
X347621181Y-147210615D01*
X331581443Y-159519356D02*
X331380098Y-159642395D01*
X339845431Y-128282133D02*
X348081798Y-145945078D01*
%TO.N,P5*%
X317158650Y-164813426D02*
X316664432Y-166171280D01*
X310599298Y-150746845D02*
X317158650Y-164813426D01*
%TO.N,P4*%
X331380098Y-159642395D02*
X331355838Y-159654278D01*
%TO.N,P18*%
X257142307Y-179193846D02*
X257141293Y-179174505D01*
X259816814Y-181601980D02*
X257142307Y-179193846D01*
%TO.N,P15*%
X254044168Y-184567420D02*
X254040082Y-184544239D01*
X255530722Y-160426774D02*
X253027873Y-161593867D01*
X253027873Y-161593867D02*
X250745887Y-167863574D01*
%TO.N,P18*%
X255531117Y-175721472D02*
X257141293Y-179174505D01*
X256145405Y-174033736D02*
X255531117Y-175721472D01*
X256882546Y-172008453D02*
X256145405Y-174033736D01*
X274147707Y-163957575D02*
X256882546Y-172008453D01*
X275414713Y-160476510D02*
X274147707Y-163957575D01*
X270787711Y-150553873D02*
X275414713Y-160476510D01*
%TO.N,P19*%
X287975350Y-156949123D02*
X277616256Y-161779651D01*
X290454479Y-150137773D02*
X287975350Y-156949123D01*
X286044704Y-140680978D02*
X290454479Y-150137773D01*
X277554827Y-161948423D02*
X276917545Y-163699347D01*
X277616256Y-161779651D02*
X277554827Y-161948423D01*
X276917545Y-163699347D02*
X277972219Y-165961102D01*
%TO.N,P6*%
X306245665Y-141410444D02*
X304520122Y-146151330D01*
X303414790Y-135339615D02*
X306245665Y-141410444D01*
X304520122Y-146151330D02*
X293010016Y-151518585D01*
X293010016Y-151518585D02*
X292171997Y-153821011D01*
X292171997Y-153821011D02*
X293229213Y-156088213D01*
%TO.N,P5*%
X309788051Y-149007120D02*
X310599298Y-150746847D01*
X310765369Y-146321968D02*
X309788051Y-149007120D01*
X321568171Y-141284531D02*
X310765369Y-146321968D01*
X323531893Y-135889256D02*
X321568171Y-141284531D01*
%TO.N,P15*%
X255530712Y-160426774D02*
X255530722Y-160426774D01*
X248346206Y-145019546D02*
X255530712Y-160426774D01*
X243517426Y-134664194D02*
X248346206Y-145019546D01*
X243517423Y-134664193D02*
X243517426Y-134664194D01*
X241161694Y-129612310D02*
X243517423Y-134664193D01*
X241161697Y-129612307D02*
X241161694Y-129612310D01*
X233977185Y-114205079D02*
X241161697Y-129612307D01*
%TO.N,P18*%
X270787705Y-150553870D02*
X270787711Y-150553873D01*
X263603194Y-135146643D02*
X270787705Y-150553870D01*
X263603196Y-135146643D02*
X263603194Y-135146643D01*
X256418688Y-119739412D02*
X263603196Y-135146643D01*
X249234177Y-104332182D02*
X256418688Y-119739412D01*
%TO.N,P19*%
X264491170Y-94459276D02*
X271675680Y-109866509D01*
X271675685Y-109866510D02*
X271675680Y-109866509D01*
X278860196Y-125273743D02*
X271675685Y-109866510D01*
X278860195Y-125273745D02*
X278860196Y-125273743D01*
X286044704Y-140680978D02*
X278860195Y-125273745D01*
%TO.N,P6*%
X296272261Y-120022410D02*
X303414790Y-135339615D01*
X296272259Y-120022409D02*
X296272261Y-120022410D01*
X296230276Y-119932387D02*
X296272259Y-120022409D01*
X294729986Y-116714998D02*
X294729983Y-116714999D01*
X296230276Y-119932387D02*
X294729986Y-116714998D01*
X294729988Y-116714990D02*
X294729983Y-116714999D01*
X289045773Y-104525149D02*
X294729988Y-116714990D01*
X289045763Y-104525145D02*
X289045773Y-104525149D01*
X281861258Y-89117924D02*
X289045763Y-104525145D01*
%TO.N,P5*%
X309162865Y-105074787D02*
X309162868Y-105074791D01*
X301978360Y-89667564D02*
X309162865Y-105074787D01*
X314847092Y-117264633D02*
X314847090Y-117264638D01*
X309162868Y-105074791D02*
X314847092Y-117264633D01*
X314847088Y-117264642D02*
X314847090Y-117264638D01*
X316347382Y-120482029D02*
X314847088Y-117264642D01*
X316347389Y-120482031D02*
X316347382Y-120482029D01*
X323531893Y-135889256D02*
X316347389Y-120482031D01*
%TO.N,P4*%
X339845430Y-128282129D02*
X339845431Y-128282133D01*
X332660923Y-112874897D02*
X339845430Y-128282129D01*
X331160631Y-109657511D02*
X331160629Y-109657509D01*
X332660923Y-112874897D02*
X331160631Y-109657511D01*
X325590697Y-97712757D02*
X331160629Y-109657509D01*
X325590698Y-97712754D02*
X325590697Y-97712757D01*
X325476411Y-97467667D02*
X325590698Y-97712754D01*
X325476415Y-97467663D02*
X325476411Y-97467667D01*
X318291906Y-82060436D02*
X325476415Y-97467663D01*
X68566869Y-142923380D02*
X82486860Y-153604559D01*
X141809995Y-184412811D02*
X141810085Y-184411123D01*
X89859350Y-159276502D02*
X90165275Y-159505317D01*
X186203773Y-200011648D02*
X188327655Y-198524493D01*
X167746747Y-212935402D02*
X164372766Y-212340474D01*
X90357110Y-94699519D02*
X83172601Y-110106750D01*
X83172596Y-110106751D02*
X75988085Y-125513984D01*
X155078137Y-199148579D02*
X155313222Y-199409668D01*
X141810085Y-184411123D02*
X141085236Y-183606095D01*
X68053749Y-142529235D02*
X68566869Y-142923380D01*
X188339421Y-198524488D02*
X188327655Y-198524493D01*
X90357108Y-94699515D02*
X90357110Y-94699519D01*
X168096021Y-212690827D02*
X167746747Y-212935402D01*
X186203773Y-200011648D02*
X168907475Y-212122648D01*
X90165275Y-159505317D02*
X90389586Y-159642372D01*
X143407612Y-186187145D02*
X141809995Y-184412811D01*
X89856953Y-159276846D02*
X89859350Y-159276502D01*
X83172601Y-110106750D02*
X83172596Y-110106751D01*
X82488488Y-153616933D02*
X89856953Y-159276846D01*
X90389586Y-159642372D02*
X141056593Y-183592561D01*
X75988091Y-125513984D02*
X68053749Y-142529235D01*
X188366916Y-198497002D02*
X188339421Y-198524488D01*
X228616281Y-198499555D02*
X196242099Y-198499552D01*
X159389331Y-205230960D02*
X163791140Y-211510710D01*
X168907475Y-212122648D02*
X168096021Y-212690827D01*
X155078135Y-199148578D02*
X155078137Y-199148579D01*
X75988085Y-125513984D02*
X75988089Y-125513987D01*
X97541622Y-79292286D02*
X90357108Y-94699515D01*
X155313222Y-199409668D02*
X155535704Y-199727408D01*
X196239542Y-198499552D02*
X188366912Y-198499555D01*
X164372766Y-212340474D02*
X163791140Y-211510710D01*
X82486860Y-153604559D02*
X82488488Y-153616933D01*
X141056595Y-183592558D02*
X141056593Y-183592561D01*
X146012752Y-189080447D02*
X155078135Y-199148578D01*
X155535704Y-199727408D02*
X159389331Y-205230960D01*
X141085236Y-183606095D02*
X141056595Y-183592558D01*
X196242099Y-198499552D02*
X196239544Y-198496999D01*
X146012752Y-189080447D02*
X143407612Y-186187145D01*
%TO.N,outer_bottom*%
X85526183Y-132389104D02*
X84427378Y-134745503D01*
%TO.N,outer_home*%
X92710696Y-116981867D02*
X91611888Y-119338271D01*
X91611888Y-119338271D02*
X91611887Y-119338272D01*
%TO.N,outer_top*%
X99895203Y-101574638D02*
X98796399Y-103931037D01*
%TO.N,outer_num*%
X107079718Y-86167406D02*
X105980907Y-88523798D01*
%TO.N,P5*%
X159292603Y-204387665D02*
X159289596Y-204387137D01*
X145812844Y-188260643D02*
X142804084Y-184919069D01*
X159289596Y-204387137D02*
X158590724Y-203389048D01*
X186842974Y-199075763D02*
X188025507Y-198247744D01*
X227136681Y-198099555D02*
X196419899Y-198099551D01*
X142804084Y-184919069D02*
X142804176Y-184917382D01*
X113855164Y-86899412D02*
X106670650Y-102306642D01*
X145812844Y-188260643D02*
X154312352Y-197700296D01*
X196419899Y-198099551D02*
X196417348Y-198097003D01*
X140605360Y-182936824D02*
X141328773Y-183278783D01*
X154312355Y-197700304D02*
X155391135Y-198898410D01*
X105234224Y-147978702D02*
X107524158Y-143067932D01*
X164181122Y-211369194D02*
X159292603Y-204387665D01*
X93076168Y-131460106D02*
X92301630Y-133121111D01*
X186842974Y-199075763D02*
X185780958Y-199819399D01*
X155682855Y-199222391D02*
X155476753Y-198993498D01*
X142804176Y-184917382D02*
X141328773Y-183278783D01*
X158590724Y-203389048D02*
X158592666Y-203378032D01*
X98650165Y-162098270D02*
X99092594Y-163313829D01*
X169575581Y-211166527D02*
X169575576Y-211166527D01*
X99486142Y-117713868D02*
X92301630Y-133121111D01*
X106670653Y-102306645D02*
X99486143Y-117713875D01*
X168839957Y-211681613D02*
X168839957Y-211681612D01*
X168839957Y-211681612D02*
X167653035Y-212512703D01*
X105234226Y-147978704D02*
X98650165Y-162098270D01*
X169678566Y-211094415D02*
X168839957Y-211681613D01*
X155476753Y-198993498D02*
X155268615Y-198762335D01*
X107524158Y-143067932D02*
X104566662Y-134942289D01*
X185780958Y-199819399D02*
X169678566Y-211094415D01*
X140605361Y-182936820D02*
X140605360Y-182936824D01*
X169678566Y-211094415D02*
X169575581Y-211166527D01*
X92301630Y-133121111D02*
X92301630Y-133121111D01*
X106670650Y-102306642D02*
X106670653Y-102306645D01*
X157721968Y-202134548D02*
X155682855Y-199222391D01*
X99092594Y-163313829D02*
X140605361Y-182936820D01*
X99486143Y-117713875D02*
X99486142Y-117713868D01*
X95335550Y-130637757D02*
X93076168Y-131460106D01*
X168839957Y-211681613D02*
X168697966Y-211781039D01*
X196417343Y-198099553D02*
X188240790Y-198099558D01*
X167653035Y-212512703D02*
X164605555Y-211975351D01*
X104566662Y-134942289D02*
X95335550Y-130637757D01*
X158592666Y-203378032D02*
X157721968Y-202134548D01*
X188240792Y-198097001D02*
X188240792Y-198096997D01*
X154312352Y-197700296D02*
X154312355Y-197700304D01*
X164605555Y-211975351D02*
X164181122Y-211369194D01*
X188025507Y-198247744D02*
X188240792Y-198097001D01*
X157721968Y-202134548D02*
X155682329Y-199221641D01*
%TO.N,pinky_bottom*%
X100740913Y-142352626D02*
X100740918Y-142352631D01*
X101839728Y-139996233D02*
X100740913Y-142352626D01*
%TO.N,pinky_home*%
X107925432Y-126945396D02*
X107925432Y-126945396D01*
X109024236Y-124589002D02*
X107925432Y-126945396D01*
%TO.N,pinky_top*%
X116208744Y-109181765D02*
X115109938Y-111538163D01*
%TO.N,pinky_num*%
X122294452Y-96130931D02*
X122294454Y-96130929D01*
X123393256Y-93774535D02*
X122294452Y-96130931D01*
%TO.N,ring_mod*%
X114772319Y-154853820D02*
X113673513Y-157210223D01*
X113673513Y-157210223D02*
X113673512Y-157210222D01*
%TO.N,P6*%
X167559324Y-212090012D02*
X168272145Y-211590893D01*
X115153945Y-170463559D02*
X115337531Y-170550341D01*
X141572304Y-182951462D02*
X141014095Y-182687594D01*
X141014095Y-182687594D02*
X141014094Y-182687598D01*
X141572305Y-182951466D02*
X141242246Y-182795441D01*
X143220405Y-184781863D02*
X141572304Y-182951462D01*
X126787757Y-101757002D02*
X126787758Y-101757004D01*
X164227314Y-210722926D02*
X164850053Y-211612294D01*
X143220405Y-184781863D02*
X143220315Y-184783550D01*
X114915565Y-169808622D02*
X115153945Y-170463559D01*
X111675180Y-148223724D02*
X108801559Y-140328521D01*
X115153945Y-170463559D02*
X141014094Y-182687598D01*
X168272145Y-211590893D02*
X168022032Y-211766020D01*
X133972268Y-86349768D02*
X126787757Y-101757002D01*
X145918869Y-187780597D02*
X156011729Y-198989854D01*
X112418735Y-132571465D02*
X112418735Y-132571468D01*
X119603248Y-117164232D02*
X119603241Y-117164231D01*
X126787758Y-101757004D02*
X119603248Y-117164232D01*
X143220405Y-184781863D02*
X141572305Y-182951466D01*
X122604311Y-153320062D02*
X114915565Y-169808622D01*
X122604311Y-153320064D02*
X111675180Y-148223724D01*
X108801559Y-140328521D02*
X112418735Y-132571468D01*
X143220315Y-184783550D02*
X145918869Y-187780597D01*
X164850053Y-211612294D02*
X167559324Y-212090012D01*
X156011729Y-198989854D02*
X164227314Y-210722926D01*
X119603241Y-117164231D02*
X112418735Y-132571465D01*
%TO.N,ring_bottom*%
X120858014Y-141802985D02*
X120858014Y-141802989D01*
X121956830Y-139446588D02*
X120858014Y-141802985D01*
%TO.N,ring_home*%
X129141344Y-124039359D02*
X128042529Y-126395756D01*
%TO.N,ring_top*%
X136325850Y-108632125D02*
X135227047Y-110988521D01*
X135227047Y-110988521D02*
X135227043Y-110988523D01*
%TO.N,ring_num*%
X143510356Y-93224890D02*
X142411550Y-95581296D01*
%TO.N,middle_mod*%
X132142403Y-160195183D02*
X131043594Y-162551579D01*
%TO.N,P19*%
X143721523Y-184742412D02*
X145939906Y-187206175D01*
X139428560Y-159831971D02*
X138322247Y-156792405D01*
X127479720Y-151736449D02*
X125666194Y-146753825D01*
X136973331Y-122505594D02*
X129788817Y-137912819D01*
X144157840Y-107098356D02*
X144157841Y-107098361D01*
X164709502Y-210714184D02*
X165082676Y-211247143D01*
X186144753Y-198588040D02*
X187944096Y-197328134D01*
X136973331Y-122505594D02*
X138473624Y-119288210D01*
X197715298Y-197299551D02*
X197712746Y-197297002D01*
X145939906Y-187206175D02*
X156325353Y-198740378D01*
X137861303Y-163192954D02*
X131319563Y-177221763D01*
X138322247Y-156792405D02*
X127479720Y-151736449D01*
X138473624Y-119288210D02*
X138473624Y-119288210D01*
X141826486Y-182629174D02*
X143721945Y-184734301D01*
X197712746Y-197297002D02*
X187988557Y-197297002D01*
X131513344Y-177754173D02*
X141826486Y-182629174D01*
X165082676Y-211247143D02*
X167465620Y-211667316D01*
X143721945Y-184734301D02*
X143721523Y-184742412D01*
X151342350Y-91691132D02*
X144157840Y-107098356D01*
X156325353Y-198740378D02*
X164709502Y-210714184D01*
X137861303Y-163192961D02*
X139428560Y-159831971D01*
X226031676Y-197299557D02*
X197715298Y-197299551D01*
X131319563Y-177221763D02*
X131513344Y-177754173D01*
X131513344Y-177754173D02*
X132133598Y-178047371D01*
X167465620Y-211667316D02*
X186144753Y-198588040D01*
X144157841Y-107098361D02*
X138473624Y-119288210D01*
X125666194Y-146753825D02*
X129788817Y-137912819D01*
%TO.N,middle_bottom*%
X138228111Y-147144348D02*
X138228109Y-147144353D01*
X139326915Y-144787946D02*
X138228111Y-147144348D01*
%TO.N,middle_home*%
X146511422Y-129380718D02*
X145412616Y-131737116D01*
%TO.N,middle_top*%
X152597126Y-116329883D02*
X152597128Y-116329889D01*
X153695937Y-113973483D02*
X152597126Y-116329883D01*
%TO.N,middle_num*%
X160880445Y-98566250D02*
X159781634Y-100922645D01*
%TO.N,index_mod*%
X147399398Y-170068078D02*
X146300592Y-172424475D01*
%TO.N,P18*%
X147133298Y-186131831D02*
X147044053Y-187834663D01*
X159921652Y-174617148D02*
X159929724Y-174463128D01*
X153730619Y-129161097D02*
X153730617Y-129161100D01*
X156672600Y-198528247D02*
X156762062Y-198656009D01*
X156760556Y-198664539D02*
X157454304Y-199655309D01*
X147044053Y-187834663D02*
X156672600Y-198528247D01*
X152971674Y-164099981D02*
X156809153Y-165889425D01*
X166599348Y-101564029D02*
X159414840Y-116971261D01*
X142789840Y-159352113D02*
X141414440Y-155573233D01*
X152230321Y-132378488D02*
X145045815Y-147785730D01*
X141414440Y-155573233D02*
X145045820Y-147785730D01*
X156674118Y-198529934D02*
X156674121Y-198529935D01*
X157454304Y-199655309D02*
X156672547Y-198538845D01*
X145045815Y-147785730D02*
X145045820Y-147785730D01*
X157570222Y-176734385D02*
X159921652Y-174617148D01*
X157570220Y-176734388D02*
X147133298Y-186131831D01*
X156672547Y-198538845D02*
X156674118Y-198529934D01*
X152971674Y-164099981D02*
X142789840Y-159352113D01*
X152230321Y-132378488D02*
X153730617Y-129161100D01*
X159414832Y-116971262D02*
X153730619Y-129161097D01*
X156809153Y-165889425D02*
X159929724Y-174463128D01*
X159414840Y-116971261D02*
X159414832Y-116971262D01*
X156762062Y-198656009D02*
X156760556Y-198664539D01*
%TO.N,index_bottom*%
X154583911Y-154660847D02*
X153485103Y-157017240D01*
%TO.N,index_home*%
X161768421Y-139253611D02*
X160669611Y-141610019D01*
%TO.N,index_top*%
X168952932Y-123846380D02*
X167854120Y-126202779D01*
%TO.N,index_num*%
X176137439Y-108439142D02*
X175038634Y-110795550D01*
%TO.N,P15*%
X168798713Y-178823011D02*
X169051932Y-178941087D01*
X171103687Y-184578228D02*
X170099508Y-186731684D01*
X161800568Y-175559720D02*
X168798713Y-178823011D01*
X170099508Y-186731684D02*
X164743281Y-190482155D01*
X167487319Y-142251392D02*
X167521479Y-142178127D01*
X164743281Y-190482155D02*
X164567848Y-191477152D01*
X168987608Y-139034000D02*
X168987614Y-139034006D01*
X226272882Y-196499556D02*
X187732669Y-196499557D01*
X157484723Y-163702034D02*
X157598855Y-164015610D01*
X174115282Y-205112311D02*
X175167422Y-205297836D01*
X160302807Y-157658623D02*
X167487319Y-142251392D01*
X174671831Y-126844155D02*
X168987608Y-139034000D01*
X157598855Y-164015610D02*
X161800568Y-175559720D01*
X167521479Y-142178127D02*
X167521486Y-142178123D01*
X186356380Y-197463242D02*
X186356381Y-197463237D01*
X167521486Y-142178123D02*
X168987614Y-139034006D01*
X166030982Y-193566730D02*
X174115282Y-205112311D01*
X175167422Y-205297836D02*
X186049204Y-197678331D01*
X181856340Y-111436927D02*
X174671831Y-126844155D01*
X169051932Y-178941087D02*
X171103687Y-184578228D01*
X187732669Y-196499557D02*
X187205348Y-196868789D01*
X186356381Y-197463237D02*
X187205348Y-196868789D01*
X164567848Y-191477152D02*
X166030984Y-193566732D01*
X186049204Y-197678331D02*
X186356380Y-197463242D01*
X160302807Y-157658623D02*
X157484723Y-163702034D01*
%TO.N,inner_bottom*%
X169840903Y-164533742D02*
X168742100Y-166890149D01*
%TO.N,inner_home*%
X177025410Y-149126512D02*
X175926605Y-151482909D01*
%TO.N,inner_top*%
X184209924Y-133719277D02*
X183111123Y-136075682D01*
%TO.N,inner_num*%
X191394433Y-118312053D02*
X190295624Y-120668447D01*
%TO.N,select_fan*%
X161731583Y-188529537D02*
X161731582Y-188529535D01*
X163663761Y-186789800D02*
X161731583Y-188529537D01*
%TO.N,space_fan*%
X176754057Y-188744055D02*
X178245354Y-190873855D01*
%TO.N,mirror_outer_bottom*%
X351243047Y-125394770D02*
X352341853Y-127751168D01*
X352341853Y-127751168D02*
X352341860Y-127751166D01*
%TO.N,mirror_outer_home*%
X345157344Y-112343932D02*
X345157346Y-112343935D01*
X344058542Y-109987537D02*
X345157344Y-112343932D01*
%TO.N,mirror_outer_top*%
X336874035Y-94580303D02*
X337972832Y-96936700D01*
X337972832Y-96936700D02*
X337972835Y-96936698D01*
%TO.N,mirror_outer_num*%
X330788322Y-81529467D02*
X330788326Y-81529465D01*
X329689523Y-79173071D02*
X330788322Y-81529467D01*
%TO.N,mirror_pinky_bottom*%
X334929508Y-133001891D02*
X336028318Y-135358301D01*
X336028318Y-135358301D02*
X336028320Y-135358297D01*
%TO.N,mirror_pinky_home*%
X328843810Y-119951064D02*
X328843809Y-119951063D01*
X327745002Y-117594662D02*
X328843810Y-119951064D01*
%TO.N,mirror_pinky_top*%
X320560489Y-102187431D02*
X321659294Y-104543831D01*
X321659294Y-104543831D02*
X321659300Y-104543837D01*
%TO.N,mirror_pinky_num*%
X313375978Y-86780200D02*
X314474785Y-89136598D01*
X314474785Y-89136598D02*
X314474789Y-89136598D01*
%TO.N,mirror_ring_mod*%
X321996919Y-147859490D02*
X323095725Y-150215888D01*
%TO.N,mirror_ring_bottom*%
X315911214Y-134808658D02*
X315911219Y-134808658D01*
X314812406Y-132452250D02*
X315911214Y-134808658D01*
%TO.N,mirror_ring_home*%
X308726708Y-119401418D02*
X308726706Y-119401423D01*
X307627893Y-117045027D02*
X308726708Y-119401418D01*
%TO.N,mirror_ring_top*%
X300443386Y-101637791D02*
X301542190Y-103994195D01*
X301542190Y-103994195D02*
X301542194Y-103994192D01*
%TO.N,mirror_ring_num*%
X294357682Y-88586953D02*
X294357684Y-88586955D01*
X293258869Y-86230562D02*
X294357682Y-88586953D01*
%TO.N,mirror_middle_mod*%
X304626830Y-153200846D02*
X305725636Y-155557249D01*
X305725636Y-155557249D02*
X305725640Y-155557249D01*
%TO.N,mirror_middle_bottom*%
X298541125Y-140150014D02*
X298541128Y-140150011D01*
X297442318Y-137793612D02*
X298541125Y-140150014D01*
%TO.N,mirror_middle_home*%
X291356615Y-124742789D02*
X291356615Y-124742785D01*
X290257807Y-122386375D02*
X291356615Y-124742789D01*
%TO.N,mirror_middle_top*%
X284172103Y-109335546D02*
X284172109Y-109335550D01*
X283073300Y-106979149D02*
X284172103Y-109335546D01*
%TO.N,mirror_middle_num*%
X276987594Y-93928322D02*
X276987594Y-93928322D01*
X275888781Y-91571915D02*
X276987594Y-93928322D01*
%TO.N,mirror_index_mod*%
X289369837Y-163073747D02*
X290468642Y-165430145D01*
X290468642Y-165430145D02*
X290468645Y-165430142D01*
%TO.N,mirror_index_bottom*%
X282185326Y-147666512D02*
X283284136Y-150022910D01*
X283284136Y-150022910D02*
X283284131Y-150022919D01*
%TO.N,mirror_index_home*%
X275000811Y-132259283D02*
X276099622Y-134615674D01*
X276099622Y-134615674D02*
X276099624Y-134615673D01*
%TO.N,mirror_index_top*%
X267816307Y-116852051D02*
X268915110Y-119208446D01*
%TO.N,mirror_index_num*%
X260631796Y-101444819D02*
X261730599Y-103801214D01*
%TO.N,mirror_inner_bottom*%
X266928330Y-157539408D02*
X268027138Y-159895808D01*
%TO.N,mirror_inner_home*%
X260842628Y-144488576D02*
X260842626Y-144488575D01*
X259743820Y-142132172D02*
X260842628Y-144488576D01*
%TO.N,mirror_inner_top*%
X253658118Y-129081342D02*
X253658118Y-129081342D01*
X252559310Y-126724951D02*
X253658118Y-129081342D01*
%TO.N,mirror_inner_num*%
X245374800Y-111317712D02*
X246473603Y-113674110D01*
X246473603Y-113674110D02*
X246473603Y-113674110D01*
%TO.N,mirror_select_fan*%
X269180187Y-174490750D02*
X271112369Y-176230491D01*
X271112369Y-176230491D02*
X271112372Y-176230490D01*
%TO.N,mirror_space_fan*%
X258572749Y-198236754D02*
X257081446Y-200366545D01*
X257081446Y-200366545D02*
X257081451Y-200366543D01*
%TO.N,P16*%
X167347456Y-169880960D02*
X166565615Y-171557628D01*
X99346277Y-145343446D02*
X98564431Y-147020115D01*
X119463384Y-144793806D02*
X118681535Y-146470474D01*
X118681535Y-146470474D02*
X118681534Y-146470471D01*
X136051626Y-151811834D02*
X136051628Y-151811836D01*
X152090462Y-160008063D02*
X151308617Y-161684729D01*
X83032735Y-137736314D02*
X82250894Y-139412986D01*
X136833462Y-150135163D02*
X136051626Y-151811834D01*
%TO.N,P14*%
X174531967Y-154473731D02*
X173750122Y-156150393D01*
X105748949Y-131612884D02*
X105748940Y-131612884D01*
X144017980Y-134727933D02*
X143236132Y-136404603D01*
X126647891Y-129386573D02*
X125866047Y-131063241D01*
X159274976Y-144600829D02*
X158493129Y-146277503D01*
X90217249Y-122329077D02*
X89435399Y-124005756D01*
X89435399Y-124005756D02*
X89435399Y-124005756D01*
X106530790Y-129936214D02*
X105748949Y-131612884D01*
%TO.N,P20*%
X113715299Y-114528985D02*
X112933450Y-116205649D01*
X97401761Y-106921853D02*
X96619914Y-108598518D01*
X133050559Y-115656006D02*
X133050553Y-115656007D01*
X151202487Y-119320697D02*
X150420645Y-120997365D01*
X181716476Y-139066491D02*
X180934634Y-140743163D01*
X133832402Y-113979344D02*
X133050559Y-115656006D01*
X180934634Y-140743163D02*
X180934634Y-140743163D01*
X166459485Y-129193597D02*
X165677635Y-130870266D01*
X150420645Y-120997365D02*
X150420642Y-120997370D01*
%TO.N,P21*%
X173643994Y-113786362D02*
X172862149Y-115463038D01*
X188900989Y-123659263D02*
X188119145Y-125335928D01*
X120899807Y-99121746D02*
X120117968Y-100798418D01*
X104586269Y-91514614D02*
X103804427Y-93191291D01*
X158387000Y-103913466D02*
X157605158Y-105590134D01*
X120117968Y-100798418D02*
X120117962Y-100798420D01*
X141016911Y-98572105D02*
X140235069Y-100248779D01*
%TO.N,P10*%
X183602123Y-198524108D02*
X184034937Y-198600425D01*
X185382835Y-197656617D02*
X187620295Y-196089930D01*
X112278870Y-160201035D02*
X111497027Y-161877708D01*
X184034937Y-198600425D02*
X185382835Y-197656617D01*
X187629916Y-196099555D02*
X187620295Y-196089930D01*
X181199278Y-195092487D02*
X183602123Y-198524108D01*
X203264920Y-162998001D02*
X203264918Y-194994932D01*
X129648957Y-165542401D02*
X128867112Y-167219061D01*
X159279204Y-190737665D02*
X157904387Y-191975556D01*
X180138160Y-193577057D02*
X181199278Y-195092487D01*
X202160298Y-196099558D02*
X187629916Y-196099555D01*
X144124106Y-177091965D02*
X144124108Y-177091968D01*
X203264918Y-194994932D02*
X202160298Y-196099558D01*
X144905949Y-175415292D02*
X144124106Y-177091965D01*
%TO.N,P8*%
X353736498Y-130741989D02*
X354518334Y-132418650D01*
X269421775Y-162886627D02*
X270203621Y-164563297D01*
X338204797Y-140025786D02*
X338204797Y-140025786D01*
X299935766Y-143140831D02*
X300717610Y-144817497D01*
X284678768Y-153013736D02*
X285460604Y-154690395D01*
X354518334Y-132418650D02*
X354518340Y-132418651D01*
X285460604Y-154690395D02*
X285460612Y-154690398D01*
X317305848Y-137799475D02*
X318087689Y-139476140D01*
X318087689Y-139476140D02*
X318087691Y-139476142D01*
X270203621Y-164563297D02*
X270203623Y-164563299D01*
X337422954Y-138349114D02*
X338204797Y-140025786D01*
%TO.N,P7*%
X262237262Y-147479392D02*
X263019108Y-149156065D01*
X331020288Y-124618549D02*
X331020289Y-124618547D01*
X277494262Y-137606500D02*
X278276100Y-139283164D01*
X278276100Y-139283164D02*
X278276105Y-139283165D01*
X263019108Y-149156065D02*
X263019108Y-149156065D01*
X293533094Y-129410265D02*
X293533096Y-129410264D01*
X346551987Y-115334761D02*
X347333828Y-117011418D01*
X310121343Y-122392239D02*
X310903184Y-124068905D01*
X292751248Y-127733602D02*
X293533094Y-129410265D01*
X347333828Y-117011418D02*
X347333834Y-117011421D01*
X330238448Y-122941882D02*
X331020288Y-124618549D01*
%TO.N,P0*%
X271091587Y-123875932D02*
X271091590Y-123875934D01*
X302936834Y-106985009D02*
X303718672Y-108661677D01*
X286348590Y-114003024D02*
X286348592Y-114003032D01*
X339367479Y-99927522D02*
X340149317Y-101604187D01*
X255052756Y-132072163D02*
X255834599Y-133748831D01*
X270309750Y-122199268D02*
X271091587Y-123875932D01*
X255834599Y-133748831D02*
X255834605Y-133748836D01*
X323053934Y-107534648D02*
X323835779Y-109211315D01*
X285566739Y-112326368D02*
X286348590Y-114003024D01*
X340149317Y-101604187D02*
X340149319Y-101604189D01*
X303718672Y-108661677D02*
X303718669Y-108661679D01*
%TO.N,P1*%
X247868248Y-116664931D02*
X248650088Y-118341603D01*
X278382232Y-96919138D02*
X279164074Y-98595801D01*
X316651267Y-93804080D02*
X316651267Y-93804083D01*
X263125241Y-106792033D02*
X263907077Y-108468697D01*
X315869427Y-92127422D02*
X316651267Y-93804080D01*
X332182961Y-84520291D02*
X332964811Y-86196957D01*
X295752323Y-91577775D02*
X296534166Y-93254445D01*
X332964811Y-86196957D02*
X332964811Y-86196957D01*
X279164074Y-98595801D02*
X279164081Y-98595800D01*
X263907077Y-108468697D02*
X263907087Y-108468700D01*
X248650088Y-118341603D02*
X248650084Y-118341603D01*
%TO.N,P9*%
X292645125Y-170097630D02*
X292645129Y-170097631D01*
X255188646Y-203069751D02*
X254127525Y-204585175D01*
X254127525Y-204585175D02*
X254127528Y-204585176D01*
X325272202Y-154883368D02*
X325272204Y-154883376D01*
X291863284Y-168420963D02*
X292645125Y-170097630D01*
X307902114Y-160224732D02*
X307902120Y-160224732D01*
X274939567Y-179676512D02*
X274939567Y-179676512D01*
X324490361Y-153206707D02*
X325272202Y-154883368D01*
X273564744Y-178438620D02*
X274939567Y-179676512D01*
X307120276Y-158548058D02*
X307902114Y-160224732D01*
%TO.N,P5*%
X316664432Y-166171280D02*
X280420029Y-183303932D01*
%TO.N,P4*%
X252639426Y-211966537D02*
X233406581Y-198499554D01*
%TD*%
M02*
