M48
; DRILL file {KiCad 8.0.7} date 2024-12-17T03:43:52-0500
; FORMAT={-:-/ absolute / metric / decimal}
; #@! TF.CreationDate,2024-12-17T03:43:52-05:00
; #@! TF.GenerationSoftware,Kicad,Pcbnew,8.0.7
; #@! TF.FileFunction,NonPlated,1,2,NPTH
FMAT,2
METRIC
; #@! TA.AperFunction,NonPlated,NPTH,ComponentDrill
T1C1.900
; #@! TA.AperFunction,NonPlated,NPTH,ComponentDrill
T2C3.000
; #@! TA.AperFunction,NonPlated,NPTH,ComponentDrill
T3C3.400
%
G90
G05
T1
X71.457Y-129.966
X78.641Y-114.559
X81.426Y-134.615
X85.826Y-99.152
X87.771Y-137.573
X88.611Y-119.208
X93.011Y-83.744
X94.955Y-122.166
X95.795Y-103.801
X97.74Y-142.222
X100.703Y-152.431
X102.14Y-106.759
X102.98Y-88.393
X104.924Y-126.815
X107.888Y-137.024
X109.324Y-91.352
X110.672Y-157.08
X112.109Y-111.408
X115.072Y-121.616
X117.857Y-141.672
X118.073Y-157.772
X119.293Y-96.0
X122.257Y-106.209
X125.042Y-126.265
X125.258Y-142.365
X128.043Y-162.421
X129.441Y-90.802
X132.226Y-110.858
X132.442Y-126.958
X133.33Y-167.645
X135.227Y-147.014
X139.411Y-95.451
X139.627Y-111.551
X140.515Y-152.238
X142.412Y-131.607
X143.3Y-172.294
X146.811Y-96.143
X147.699Y-136.831
X149.596Y-116.199
X150.484Y-156.887
X151.66Y-179.062
X154.884Y-121.423
X155.772Y-162.111
X156.781Y-100.792
X157.669Y-141.479
X159.02Y-187.237
X162.068Y-106.016
X162.956Y-146.704
X164.853Y-126.072
X165.741Y-166.76
X167.621Y-199.717
X170.141Y-131.296
X172.038Y-110.665
X172.926Y-151.352
X176.632Y-193.408
X177.325Y-115.889
X180.11Y-135.945
X187.295Y-120.538
X234.475Y-120.538
X241.66Y-135.945
X244.445Y-115.889
X245.138Y-193.408
X248.844Y-151.352
X249.732Y-110.665
X251.629Y-131.296
X254.149Y-199.717
X256.029Y-166.76
X256.917Y-126.072
X258.814Y-146.704
X259.702Y-106.016
X262.75Y-187.237
X264.101Y-141.48
X264.989Y-100.792
X265.998Y-162.111
X266.886Y-121.423
X270.11Y-179.062
X271.286Y-156.887
X272.174Y-116.199
X274.071Y-136.831
X274.959Y-96.143
X278.47Y-172.294
X279.358Y-131.607
X281.255Y-152.238
X282.143Y-111.551
X282.359Y-95.451
X286.543Y-147.014
X288.44Y-167.645
X289.328Y-126.958
X289.544Y-110.858
X292.329Y-90.802
X293.727Y-162.421
X296.512Y-142.365
X296.728Y-126.265
X299.513Y-106.209
X302.476Y-96.0
X303.697Y-157.772
X303.913Y-141.672
X306.698Y-121.616
X309.661Y-111.408
X311.097Y-157.08
X312.446Y-91.352
X313.882Y-137.024
X316.845Y-126.815
X318.79Y-88.393
X319.63Y-106.759
X321.067Y-152.431
X324.03Y-142.222
X325.974Y-103.801
X326.815Y-122.166
X328.759Y-83.744
X333.159Y-119.208
X333.999Y-137.573
X335.944Y-99.152
X340.343Y-134.615
X343.128Y-114.559
X350.313Y-129.966
T2
X78.956Y-126.898
X82.558Y-131.005
X86.141Y-111.491
X89.743Y-115.598
X93.325Y-96.084
X95.27Y-134.505
X96.927Y-100.191
X98.872Y-138.612
X100.51Y-80.676
X102.454Y-119.098
X104.112Y-84.783
X106.056Y-123.205
X108.202Y-149.363
X109.639Y-103.691
X111.804Y-153.47
X113.241Y-107.798
X115.387Y-133.956
X116.823Y-88.283
X118.989Y-138.063
X120.425Y-92.39
X122.571Y-118.548
X125.572Y-154.704
X126.173Y-122.655
X129.174Y-158.811
X129.756Y-103.141
X132.757Y-139.297
X133.358Y-107.248
X136.359Y-143.404
X136.94Y-87.734
X139.941Y-123.89
X140.542Y-91.841
X140.829Y-164.577
X143.543Y-127.997
X144.431Y-168.684
X147.126Y-108.482
X148.014Y-149.17
X150.728Y-112.589
X151.616Y-153.277
X154.311Y-93.075
X155.198Y-133.763
X157.912Y-97.182
X158.8Y-137.87
X159.762Y-179.168
X161.472Y-184.356
X162.383Y-118.355
X163.271Y-159.043
X165.985Y-122.462
X166.873Y-163.15
X168.714Y-191.688
X169.568Y-102.948
X170.455Y-143.635
X173.169Y-107.055
X174.057Y-147.742
X174.071Y-190.623
X177.64Y-128.228
X181.242Y-132.335
X184.824Y-112.821
X188.426Y-116.928
X236.945Y-112.821
X242.407Y-112.702
X244.13Y-128.228
X249.591Y-128.109
X251.314Y-143.635
X252.202Y-102.948
X253.056Y-191.688
X255.89Y-196.358
X256.776Y-143.516
X257.664Y-102.829
X258.499Y-159.043
X259.387Y-118.355
X262.008Y-179.168
X263.96Y-158.923
X264.848Y-118.236
X266.571Y-133.763
X266.989Y-176.925
X267.459Y-93.075
X272.033Y-133.643
X272.921Y-92.956
X273.756Y-149.17
X274.644Y-108.482
X279.217Y-149.051
X280.105Y-108.363
X280.94Y-164.577
X281.828Y-123.89
X284.829Y-87.734
X286.402Y-164.458
X287.29Y-123.77
X289.013Y-139.297
X290.291Y-87.615
X292.014Y-103.141
X294.474Y-139.178
X296.197Y-154.704
X297.475Y-103.022
X299.198Y-118.548
X301.659Y-154.585
X304.66Y-118.429
X304.947Y-88.283
X306.383Y-133.956
X310.408Y-88.164
X311.844Y-133.836
X312.131Y-103.691
X313.567Y-149.363
X317.592Y-103.571
X319.029Y-149.244
X319.316Y-119.098
X321.26Y-80.676
X324.777Y-118.979
X326.5Y-134.505
X326.721Y-80.557
X328.445Y-96.084
X331.961Y-134.386
X333.906Y-95.964
X335.629Y-111.491
X341.09Y-111.372
X342.814Y-126.898
X348.275Y-126.779
T3
X76.442Y-132.291
X83.626Y-116.883
X90.811Y-101.476
X92.755Y-139.898
X97.995Y-86.069
X99.94Y-124.49
X105.688Y-154.755
X107.124Y-109.083
X112.872Y-139.348
X114.309Y-93.676
X120.057Y-123.941
X123.058Y-160.097
X127.241Y-108.534
X130.242Y-144.689
X134.426Y-93.126
X137.427Y-129.282
X138.315Y-169.97
X144.611Y-113.875
X145.499Y-154.562
X151.796Y-98.468
X152.684Y-139.155
X155.34Y-183.15
X159.868Y-123.748
X160.756Y-164.435
X167.053Y-108.341
X167.941Y-149.028
X172.126Y-196.562
X175.125Y-133.621
X182.31Y-118.214
X239.46Y-118.214
X246.644Y-133.621
X249.643Y-196.562
X253.829Y-149.028
X254.717Y-108.341
X261.013Y-164.435
X261.901Y-123.748
X266.43Y-183.15
X269.086Y-139.155
X269.974Y-98.468
X276.27Y-154.562
X277.158Y-113.875
X283.455Y-169.97
X284.343Y-129.282
X287.344Y-93.126
X291.527Y-144.689
X294.529Y-108.534
X298.712Y-160.097
X301.713Y-123.941
X307.461Y-93.676
X308.898Y-139.348
X314.646Y-109.083
X316.082Y-154.755
X321.83Y-124.49
X323.775Y-86.069
X329.015Y-139.898
X330.959Y-101.476
X338.144Y-116.883
X345.328Y-132.291
M30
