%TF.GenerationSoftware,KiCad,Pcbnew,8.0.7*%
%TF.CreationDate,2024-12-17T03:41:54-05:00*%
%TF.ProjectId,choc,63686f63-2e6b-4696-9361-645f70636258,v1.0.0*%
%TF.SameCoordinates,Original*%
%TF.FileFunction,Soldermask,Bot*%
%TF.FilePolarity,Negative*%
%FSLAX46Y46*%
G04 Gerber Fmt 4.6, Leading zero omitted, Abs format (unit mm)*
G04 Created by KiCad (PCBNEW 8.0.7) date 2024-12-17 03:41:54*
%MOMM*%
%LPD*%
G01*
G04 APERTURE LIST*
G04 Aperture macros list*
%AMRotRect*
0 Rectangle, with rotation*
0 The origin of the aperture is its center*
0 $1 length*
0 $2 width*
0 $3 Rotation angle, in degrees counterclockwise*
0 Add horizontal line*
21,1,$1,$2,0,0,$3*%
G04 Aperture macros list end*
%ADD10C,3.800000*%
%ADD11R,1.700000X1.700000*%
%ADD12O,1.700000X1.700000*%
%ADD13R,1.752600X1.752600*%
%ADD14C,1.752600*%
%ADD15C,1.700000*%
%ADD16C,1.900000*%
%ADD17C,3.000000*%
%ADD18C,3.400000*%
%ADD19RotRect,2.600000X2.600000X25.000000*%
%ADD20RotRect,2.600000X2.600000X335.000000*%
%ADD21RotRect,0.900000X1.200000X115.000000*%
%ADD22RotRect,2.600000X2.600000X48.000000*%
%ADD23RotRect,0.900000X1.200000X65.000000*%
%ADD24RotRect,2.600000X2.600000X325.000000*%
%ADD25RotRect,0.900000X1.200000X125.000000*%
%ADD26RotRect,2.600000X2.600000X312.000000*%
%ADD27RotRect,0.900000X1.200000X55.000000*%
%ADD28RotRect,2.600000X2.600000X35.000000*%
%ADD29RotRect,0.900000X1.200000X42.000000*%
%ADD30RotRect,0.900000X1.200000X138.000000*%
G04 APERTURE END LIST*
D10*
%TO.C,H8*%
X251208949Y-122113582D03*
%TD*%
%TO.C,H7*%
X319210129Y-97576074D03*
%TD*%
%TO.C,H2*%
X102559716Y-97576077D03*
%TD*%
%TO.C,H3*%
X88190698Y-128390536D03*
%TD*%
D11*
%TO.C,OLED1*%
X214684919Y-166427996D03*
D12*
X212144922Y-166427995D03*
X209604921Y-166427997D03*
X207064921Y-166427995D03*
%TD*%
D10*
%TO.C,H1*%
X171617436Y-119847816D03*
%TD*%
D13*
%TO.C,MCU1*%
X203264915Y-135058001D03*
D14*
X203264916Y-137598002D03*
X203264915Y-140138002D03*
X203264913Y-142678002D03*
X203264916Y-145218003D03*
X203264912Y-147758003D03*
X203264915Y-150298002D03*
X203264917Y-152838001D03*
X203264915Y-155378003D03*
X203264915Y-157918002D03*
X203264913Y-160458002D03*
X203264915Y-162998003D03*
X218504915Y-135058001D03*
X218504917Y-137598002D03*
X218504915Y-140138002D03*
X218504915Y-142678001D03*
X218504913Y-145218003D03*
X218504915Y-147758002D03*
X218504918Y-150298001D03*
X218504914Y-152838001D03*
X218504917Y-155378002D03*
X218504915Y-157918002D03*
X218504914Y-160458002D03*
X218504915Y-162998003D03*
%TD*%
D10*
%TO.C,H5*%
X272762472Y-168335281D03*
%TD*%
D15*
%TO.C,RST1*%
X207634924Y-174028002D03*
X214134924Y-174027998D03*
%TD*%
D10*
%TO.C,H4*%
X150063909Y-166069519D03*
%TD*%
%TO.C,H6*%
X333579144Y-128390538D03*
%TD*%
D16*
%TO.C,S38*%
X311097342Y-157079704D03*
D17*
X313567456Y-149362773D03*
D18*
X316082035Y-154755304D03*
D17*
X319028752Y-149243558D03*
D16*
X321066728Y-152430904D03*
D19*
X310599298Y-150746847D03*
X321996914Y-147859483D03*
%TD*%
D16*
%TO.C,S2*%
X78641487Y-114558955D03*
D17*
X86140758Y-111490825D03*
D18*
X83626180Y-116883355D03*
D17*
X89742537Y-115597793D03*
D16*
X88610873Y-119207755D03*
D20*
X83172600Y-110106748D03*
X92710695Y-116981867D03*
%TD*%
D16*
%TO.C,S21*%
X147699212Y-136830697D03*
D17*
X155198483Y-133762567D03*
D18*
X152683905Y-139155097D03*
D17*
X158800262Y-137869535D03*
D16*
X157668598Y-141479497D03*
D20*
X152230325Y-132378490D03*
X161768420Y-139253609D03*
%TD*%
D16*
%TO.C,S30*%
X340343477Y-134614991D03*
D17*
X342813591Y-126898060D03*
D18*
X345328170Y-132290591D03*
D17*
X348274887Y-126778845D03*
D16*
X350312863Y-129966191D03*
D19*
X339845433Y-128282134D03*
X351243049Y-125394770D03*
%TD*%
D21*
%TO.C,D49*%
X284678770Y-153013731D03*
X283284134Y-150022911D03*
%TD*%
D16*
%TO.C,S6*%
X94955025Y-122166084D03*
D17*
X102454296Y-119097954D03*
D18*
X99939718Y-124490484D03*
D17*
X106056075Y-123204922D03*
D16*
X104924411Y-126814884D03*
D20*
X99486138Y-117713877D03*
X109024233Y-124588996D03*
%TD*%
D21*
%TO.C,D50*%
X277494259Y-137606497D03*
X276099623Y-134615677D03*
%TD*%
D16*
%TO.C,S5*%
X87770519Y-137573317D03*
D17*
X95269790Y-134505187D03*
D18*
X92755212Y-139897717D03*
D17*
X98871569Y-138612155D03*
D16*
X97739905Y-142222117D03*
D20*
X92301632Y-133121110D03*
X101839727Y-139996229D03*
%TD*%
D21*
%TO.C,D32*%
X339367477Y-99927521D03*
X337972841Y-96936701D03*
%TD*%
D16*
%TO.C,S57*%
X262749709Y-187236805D03*
D17*
X262008212Y-179168177D03*
D18*
X266429927Y-183149507D03*
D17*
X266988789Y-176924542D03*
D16*
X270110145Y-179062209D03*
D22*
X259816813Y-181601979D03*
X269180189Y-174490743D03*
%TD*%
D23*
%TO.C,D17*%
X151202485Y-119320699D03*
X152597123Y-116329883D03*
%TD*%
D16*
%TO.C,S58*%
X245138017Y-193407550D03*
D18*
X249643352Y-196562221D03*
D17*
X253056133Y-191688267D03*
X255890025Y-196358283D03*
D16*
X254148687Y-199716892D03*
D24*
X250373409Y-189809802D03*
X258572746Y-198236746D03*
%TD*%
D25*
%TO.C,D29*%
X180138159Y-193577062D03*
X178245357Y-190873860D03*
%TD*%
D16*
%TO.C,S17*%
X139626727Y-111550569D03*
D17*
X147125998Y-108482439D03*
D18*
X144611420Y-113874969D03*
D17*
X150727777Y-112589407D03*
D16*
X149596113Y-116199369D03*
D20*
X144157840Y-107098362D03*
X153695935Y-113973481D03*
%TD*%
D16*
%TO.C,S49*%
X271285755Y-156886733D03*
D17*
X273755869Y-149169802D03*
D18*
X276270448Y-154562333D03*
D17*
X279217165Y-149050587D03*
D16*
X281255141Y-152237933D03*
D19*
X270787711Y-150553876D03*
X282185327Y-147666512D03*
%TD*%
D16*
%TO.C,S45*%
X279358239Y-131606600D03*
D17*
X281828353Y-123889669D03*
D18*
X284342932Y-129282200D03*
D17*
X287289649Y-123770454D03*
D16*
X289327625Y-126957800D03*
D19*
X278860195Y-125273743D03*
X290257811Y-122386379D03*
%TD*%
D21*
%TO.C,D43*%
X307120272Y-158548062D03*
X305725636Y-155557242D03*
%TD*%
D23*
%TO.C,D11*%
X126647893Y-129386571D03*
X128042531Y-126395755D03*
%TD*%
%TO.C,D22*%
X166459483Y-129193596D03*
X167854121Y-126202780D03*
%TD*%
D16*
%TO.C,S28*%
X151659690Y-179062218D03*
D18*
X155339908Y-183149515D03*
D17*
X159761621Y-179168189D03*
X161472353Y-184355999D03*
D16*
X159020126Y-187236812D03*
D26*
X157570217Y-176734389D03*
X163663758Y-186789799D03*
%TD*%
D23*
%TO.C,D1*%
X83032734Y-137736313D03*
X84427372Y-134745497D03*
%TD*%
%TO.C,D18*%
X158386997Y-103913466D03*
X159781635Y-100922650D03*
%TD*%
D16*
%TO.C,S35*%
X316845424Y-126814885D03*
D17*
X319315538Y-119097954D03*
D18*
X321830117Y-124490485D03*
D17*
X324776834Y-118978739D03*
D16*
X326814810Y-122166085D03*
D19*
X316347380Y-120482028D03*
X327744996Y-117594664D03*
%TD*%
D23*
%TO.C,D15*%
X136833468Y-150135156D03*
X138228106Y-147144340D03*
%TD*%
%TO.C,D26*%
X181716481Y-139066492D03*
X183111119Y-136075676D03*
%TD*%
D16*
%TO.C,S40*%
X296728323Y-126265244D03*
D17*
X299198437Y-118548313D03*
D18*
X301713016Y-123940844D03*
D17*
X304659733Y-118429098D03*
D16*
X306697709Y-121616444D03*
D19*
X296230279Y-119932387D03*
X307627895Y-117045023D03*
%TD*%
D16*
%TO.C,S50*%
X264101242Y-141479503D03*
D17*
X266571356Y-133762572D03*
D18*
X269085935Y-139155103D03*
D17*
X272032652Y-133643357D03*
D16*
X274070628Y-136830703D03*
D19*
X263603198Y-135146646D03*
X275000814Y-132259282D03*
%TD*%
D21*
%TO.C,D42*%
X295752319Y-91577772D03*
X294357683Y-88586952D03*
%TD*%
D16*
%TO.C,S44*%
X286542748Y-147013834D03*
D17*
X289012862Y-139296903D03*
D18*
X291527441Y-144689434D03*
D17*
X294474158Y-139177688D03*
D16*
X296512134Y-142365034D03*
D19*
X286044704Y-140680977D03*
X297442320Y-137793613D03*
%TD*%
D23*
%TO.C,D27*%
X188900990Y-123659263D03*
X190295628Y-120668447D03*
%TD*%
D16*
%TO.C,S18*%
X146811235Y-96143337D03*
D17*
X154310506Y-93075207D03*
D18*
X151795928Y-98467737D03*
D17*
X157912285Y-97182175D03*
D16*
X156780621Y-100792137D03*
D20*
X151342348Y-91691130D03*
X160880443Y-98566249D03*
%TD*%
D23*
%TO.C,D6*%
X106530788Y-129936215D03*
X107925426Y-126945399D03*
%TD*%
%TO.C,D16*%
X144017983Y-134727931D03*
X145412621Y-131737115D03*
%TD*%
D16*
%TO.C,S8*%
X109324049Y-91351616D03*
D17*
X116823320Y-88283486D03*
D18*
X114308742Y-93676016D03*
D17*
X120425099Y-92390454D03*
D16*
X119293435Y-96000416D03*
D20*
X113855162Y-86899409D03*
X123393257Y-93774528D03*
%TD*%
D21*
%TO.C,D56*%
X247868247Y-116664936D03*
X246473611Y-113674116D03*
%TD*%
D23*
%TO.C,D3*%
X97401758Y-106921850D03*
X98796396Y-103931034D03*
%TD*%
D21*
%TO.C,D53*%
X269421775Y-162886633D03*
X268027139Y-159895813D03*
%TD*%
D16*
%TO.C,S23*%
X162068230Y-106016235D03*
D17*
X169567501Y-102948105D03*
D18*
X167052923Y-108340635D03*
D17*
X173169280Y-107055073D03*
D16*
X172037616Y-110665035D03*
D20*
X166599343Y-101564028D03*
X176137438Y-108439147D03*
%TD*%
D16*
%TO.C,S56*%
X234475227Y-120537934D03*
D17*
X236945341Y-112821003D03*
D18*
X239459920Y-118213534D03*
D17*
X242406637Y-112701788D03*
D16*
X244444613Y-115889134D03*
D19*
X233977183Y-114205077D03*
X245374799Y-111317713D03*
%TD*%
D23*
%TO.C,D4*%
X104586268Y-91514622D03*
X105980906Y-88523806D03*
%TD*%
D21*
%TO.C,D30*%
X353736493Y-130741984D03*
X352341857Y-127751164D03*
%TD*%
D23*
%TO.C,D25*%
X174531967Y-154473730D03*
X175926605Y-151482914D03*
%TD*%
D21*
%TO.C,D40*%
X310121343Y-122392238D03*
X308726707Y-119401418D03*
%TD*%
D16*
%TO.C,S41*%
X289543815Y-110858008D03*
D17*
X292013929Y-103141077D03*
D18*
X294528508Y-108533608D03*
D17*
X297475225Y-103021862D03*
D16*
X299513201Y-106209208D03*
D19*
X289045771Y-104525151D03*
X300443387Y-101637787D03*
%TD*%
D16*
%TO.C,S4*%
X93010505Y-83744487D03*
D17*
X100509776Y-80676357D03*
D18*
X97995198Y-86068887D03*
D17*
X104111555Y-84783325D03*
D16*
X102979891Y-88393287D03*
D20*
X97541618Y-79292280D03*
X107079713Y-86167399D03*
%TD*%
D16*
%TO.C,S51*%
X256916728Y-126072273D03*
D17*
X259386842Y-118355342D03*
D18*
X261901421Y-123747873D03*
D17*
X264848138Y-118236127D03*
D16*
X266886114Y-121423473D03*
D19*
X256418684Y-119739416D03*
X267816300Y-116852052D03*
%TD*%
D23*
%TO.C,D8*%
X120899809Y-99121755D03*
X122294447Y-96130939D03*
%TD*%
%TO.C,D14*%
X129648961Y-165542395D03*
X131043599Y-162551579D03*
%TD*%
D21*
%TO.C,D31*%
X346551989Y-115334753D03*
X345157353Y-112343933D03*
%TD*%
%TO.C,D51*%
X270309751Y-122199263D03*
X268915115Y-119208443D03*
%TD*%
D16*
%TO.C,S22*%
X154883721Y-121423467D03*
D17*
X162382992Y-118355337D03*
D18*
X159868414Y-123747867D03*
D17*
X165984771Y-122462305D03*
D16*
X164853107Y-126072267D03*
D20*
X159414834Y-116971260D03*
X168952929Y-123846379D03*
%TD*%
D21*
%TO.C,D36*%
X323053935Y-107534653D03*
X321659299Y-104543833D03*
%TD*%
D16*
%TO.C,S19*%
X133330185Y-167645166D03*
D17*
X140829456Y-164577036D03*
D18*
X138314878Y-169969566D03*
D17*
X144431235Y-168684004D03*
D16*
X143299571Y-172293966D03*
D20*
X137861298Y-163192959D03*
X147399393Y-170068078D03*
%TD*%
D21*
%TO.C,D54*%
X262237265Y-147479397D03*
X260842629Y-144488577D03*
%TD*%
D16*
%TO.C,S16*%
X132442217Y-126957805D03*
D17*
X139941488Y-123889675D03*
D18*
X137426910Y-129282205D03*
D17*
X143543267Y-127996643D03*
D16*
X142411603Y-131606605D03*
D20*
X136973330Y-122505598D03*
X146511425Y-129380717D03*
%TD*%
D23*
%TO.C,D24*%
X167347457Y-169880956D03*
X168742095Y-166890140D03*
%TD*%
D16*
%TO.C,S9*%
X100703114Y-152430912D03*
D17*
X108202385Y-149362782D03*
D18*
X105687807Y-154755312D03*
D17*
X111804164Y-153469750D03*
D16*
X110672500Y-157079712D03*
D20*
X105234227Y-147978705D03*
X114772322Y-154853824D03*
%TD*%
D27*
%TO.C,D58*%
X255188650Y-203069746D03*
X257081452Y-200366542D03*
%TD*%
D23*
%TO.C,D19*%
X144905953Y-175415289D03*
X146300591Y-172424473D03*
%TD*%
D16*
%TO.C,S26*%
X170140712Y-131296365D03*
D17*
X177639983Y-128228235D03*
D18*
X175125405Y-133620765D03*
D17*
X181241762Y-132335203D03*
D16*
X180110098Y-135945165D03*
D20*
X174671825Y-126844158D03*
X184209920Y-133719277D03*
%TD*%
D16*
%TO.C,S29*%
X167621150Y-199716896D03*
D17*
X168713703Y-191688271D03*
D18*
X172126485Y-196562225D03*
D17*
X174071334Y-190622524D03*
D16*
X176631820Y-193407554D03*
D28*
X166030982Y-193566733D03*
X176754057Y-188744060D03*
%TD*%
D16*
%TO.C,S39*%
X303912835Y-141672473D03*
D17*
X306382949Y-133955542D03*
D18*
X308897528Y-139348073D03*
D17*
X311844245Y-133836327D03*
D16*
X313882221Y-137023673D03*
D19*
X303414791Y-135339616D03*
X314812407Y-132452252D03*
%TD*%
D23*
%TO.C,D12*%
X133832403Y-113979340D03*
X135227041Y-110988524D03*
%TD*%
D21*
%TO.C,D46*%
X285566741Y-112326368D03*
X284172105Y-109335548D03*
%TD*%
D23*
%TO.C,D23*%
X173643989Y-113786364D03*
X175038627Y-110795548D03*
%TD*%
D16*
%TO.C,S34*%
X324029938Y-142222112D03*
D17*
X326500052Y-134505181D03*
D18*
X329014631Y-139897712D03*
D17*
X331961348Y-134385966D03*
D16*
X333999324Y-137573312D03*
D19*
X323531894Y-135889255D03*
X334929510Y-133001891D03*
%TD*%
D16*
%TO.C,S25*%
X162956207Y-146703601D03*
D17*
X170455478Y-143635471D03*
D18*
X167940900Y-149028001D03*
D17*
X174057257Y-147742439D03*
D16*
X172925593Y-151352401D03*
D20*
X167487320Y-142251394D03*
X177025415Y-149126513D03*
%TD*%
D16*
%TO.C,S42*%
X282359299Y-95450780D03*
D17*
X284829413Y-87733849D03*
D18*
X287343992Y-93126380D03*
D17*
X290290709Y-87614634D03*
D16*
X292328685Y-90801980D03*
D19*
X281861255Y-89117923D03*
X293258871Y-86230559D03*
%TD*%
D23*
%TO.C,D10*%
X119463381Y-144793812D03*
X120858019Y-141802996D03*
%TD*%
D16*
%TO.C,S52*%
X249732220Y-110665040D03*
D17*
X252202334Y-102948109D03*
D18*
X254716913Y-108340640D03*
D17*
X257663630Y-102828894D03*
D16*
X259701606Y-106016240D03*
D19*
X249234176Y-104332183D03*
X260631792Y-101444819D03*
%TD*%
D16*
%TO.C,S32*%
X325974455Y-103800527D03*
D17*
X328444569Y-96083596D03*
D18*
X330959148Y-101476127D03*
D17*
X333905865Y-95964381D03*
D16*
X335943841Y-99151727D03*
D19*
X325476411Y-97467670D03*
X336874027Y-94580306D03*
%TD*%
D16*
%TO.C,S24*%
X155771692Y-162110834D03*
D17*
X163270963Y-159042704D03*
D18*
X160756385Y-164435234D03*
D17*
X166872742Y-163149672D03*
D16*
X165741078Y-166759634D03*
D20*
X160302805Y-157658627D03*
X169840900Y-164533746D03*
%TD*%
D29*
%TO.C,D28*%
X159279200Y-190737670D03*
X161731576Y-188529536D03*
%TD*%
D21*
%TO.C,D41*%
X302936833Y-106985007D03*
X301542197Y-103994187D03*
%TD*%
%TO.C,D39*%
X317305849Y-137799469D03*
X315911213Y-134808649D03*
%TD*%
D16*
%TO.C,S47*%
X264989214Y-100792133D03*
D17*
X267459328Y-93075202D03*
D18*
X269973907Y-98467733D03*
D17*
X272920624Y-92955987D03*
D16*
X274958600Y-96143333D03*
D19*
X264491170Y-94459276D03*
X275888786Y-91571912D03*
%TD*%
D16*
%TO.C,S53*%
X256028764Y-166759626D03*
D17*
X258498878Y-159042695D03*
D18*
X261013457Y-164435226D03*
D17*
X263960174Y-158923480D03*
D16*
X265998150Y-162110826D03*
D19*
X255530720Y-160426769D03*
X266928336Y-157539405D03*
%TD*%
D16*
%TO.C,S12*%
X122256645Y-106209210D03*
D17*
X129755916Y-103141080D03*
D18*
X127241338Y-108533610D03*
D17*
X133357695Y-107248048D03*
D16*
X132226031Y-110858010D03*
D20*
X126787758Y-101757003D03*
X136325853Y-108632122D03*
%TD*%
D21*
%TO.C,D45*%
X292751251Y-127733601D03*
X291356615Y-124742781D03*
%TD*%
%TO.C,D33*%
X332182965Y-84520292D03*
X330788329Y-81529472D03*
%TD*%
D16*
%TO.C,S11*%
X115072130Y-121616442D03*
D17*
X122571401Y-118548312D03*
D18*
X120056823Y-123940842D03*
D17*
X126173180Y-122655280D03*
D16*
X125041516Y-126265242D03*
D20*
X119603243Y-117164235D03*
X129141338Y-124039354D03*
%TD*%
D16*
%TO.C,S37*%
X302476402Y-96000423D03*
D17*
X304946516Y-88283492D03*
D18*
X307461095Y-93676023D03*
D17*
X310407812Y-88164277D03*
D16*
X312445788Y-91351623D03*
D19*
X301978358Y-89667566D03*
X313375974Y-86780202D03*
%TD*%
D16*
%TO.C,S3*%
X85825995Y-99151727D03*
D17*
X93325266Y-96083597D03*
D18*
X90810688Y-101476127D03*
D17*
X96927045Y-100190565D03*
D16*
X95795381Y-103800527D03*
D20*
X90357108Y-94699520D03*
X99895203Y-101574639D03*
%TD*%
D16*
%TO.C,S15*%
X125257703Y-142365030D03*
D17*
X132756974Y-139296900D03*
D18*
X130242396Y-144689430D03*
D17*
X136358753Y-143403868D03*
D16*
X135227089Y-147013830D03*
D20*
X129788816Y-137912823D03*
X139326911Y-144787942D03*
%TD*%
D16*
%TO.C,S43*%
X293727252Y-162421068D03*
D17*
X296197366Y-154704137D03*
D18*
X298711945Y-160096668D03*
D17*
X301658662Y-154584922D03*
D16*
X303696638Y-157772268D03*
D19*
X293229208Y-156088211D03*
X304626824Y-153200847D03*
%TD*%
D21*
%TO.C,D48*%
X291863277Y-168420963D03*
X290468641Y-165430143D03*
%TD*%
D16*
%TO.C,S1*%
X71456980Y-129966190D03*
D17*
X78956251Y-126898060D03*
D18*
X76441673Y-132290590D03*
D17*
X82558030Y-131005028D03*
D16*
X81426366Y-134614990D03*
D20*
X75988093Y-125513983D03*
X85526188Y-132389102D03*
%TD*%
D21*
%TO.C,D34*%
X337422955Y-138349114D03*
X336028319Y-135358294D03*
%TD*%
%TO.C,D47*%
X278382234Y-96919135D03*
X276987598Y-93928315D03*
%TD*%
D16*
%TO.C,S14*%
X118073193Y-157772274D03*
D17*
X125572464Y-154704144D03*
D18*
X123057886Y-160096674D03*
D17*
X129174243Y-158811112D03*
D16*
X128042579Y-162421074D03*
D20*
X122604306Y-153320067D03*
X132142401Y-160195186D03*
%TD*%
D23*
%TO.C,D9*%
X112278875Y-160201031D03*
X113673513Y-157210215D03*
%TD*%
%TO.C,D20*%
X152090463Y-160008064D03*
X153485101Y-157017248D03*
%TD*%
D16*
%TO.C,S55*%
X241659736Y-135945163D03*
D17*
X244129850Y-128228232D03*
D18*
X246644429Y-133620763D03*
D17*
X249591146Y-128109017D03*
D16*
X251629122Y-131296363D03*
D19*
X241161692Y-129612306D03*
X252559308Y-126724942D03*
%TD*%
D23*
%TO.C,D5*%
X99346277Y-145343445D03*
X100740915Y-142352629D03*
%TD*%
D16*
%TO.C,S27*%
X177325226Y-115889141D03*
D17*
X184824497Y-112821011D03*
D18*
X182309919Y-118213541D03*
D17*
X188426276Y-116927979D03*
D16*
X187294612Y-120537941D03*
D20*
X181856339Y-111436934D03*
X191394434Y-118312053D03*
%TD*%
D16*
%TO.C,S36*%
X309660917Y-111407645D03*
D17*
X312131031Y-103690714D03*
D18*
X314645610Y-109083245D03*
D17*
X317592327Y-103571499D03*
D16*
X319630303Y-106758845D03*
D19*
X309162873Y-105074788D03*
X320560489Y-102187424D03*
%TD*%
D16*
%TO.C,S54*%
X248844249Y-151352399D03*
D17*
X251314363Y-143635468D03*
D18*
X253828942Y-149027999D03*
D17*
X256775659Y-143516253D03*
D16*
X258813635Y-146703599D03*
D19*
X248346205Y-145019542D03*
X259743821Y-142132178D03*
%TD*%
D16*
%TO.C,S46*%
X272173726Y-116199367D03*
D17*
X274643840Y-108482436D03*
D18*
X277158419Y-113874967D03*
D17*
X280105136Y-108363221D03*
D16*
X282143112Y-111550567D03*
D19*
X271675682Y-109866510D03*
X283073298Y-106979146D03*
%TD*%
D16*
%TO.C,S33*%
X318789951Y-88393294D03*
D17*
X321260065Y-80676363D03*
D18*
X323774644Y-86068894D03*
D17*
X326721361Y-80557148D03*
D16*
X328759337Y-83744494D03*
D19*
X318291907Y-82060437D03*
X329689523Y-79173073D03*
%TD*%
D16*
%TO.C,S20*%
X140514706Y-152237935D03*
D17*
X148013977Y-149169805D03*
D18*
X145499399Y-154562335D03*
D17*
X151615756Y-153276773D03*
D16*
X150484092Y-156886735D03*
D20*
X145045819Y-147785728D03*
X154583914Y-154660847D03*
%TD*%
D23*
%TO.C,D2*%
X90217252Y-122329088D03*
X91611890Y-119338272D03*
%TD*%
D21*
%TO.C,D52*%
X263125239Y-106792039D03*
X261730603Y-103801219D03*
%TD*%
%TO.C,D38*%
X324490358Y-153206705D03*
X323095722Y-150215885D03*
%TD*%
D16*
%TO.C,S7*%
X102139541Y-106758854D03*
D17*
X109638812Y-103690724D03*
D18*
X107124234Y-109083254D03*
D17*
X113240591Y-107797692D03*
D16*
X112108927Y-111407654D03*
D20*
X106670654Y-102306647D03*
X116208749Y-109181766D03*
%TD*%
D23*
%TO.C,D13*%
X141016914Y-98572110D03*
X142411552Y-95581294D03*
%TD*%
D16*
%TO.C,S10*%
X107887620Y-137023680D03*
D17*
X115386891Y-133955550D03*
D18*
X112872313Y-139348080D03*
D17*
X118988670Y-138062518D03*
D16*
X117857006Y-141672480D03*
D20*
X112418733Y-132571473D03*
X121956828Y-139446592D03*
%TD*%
D21*
%TO.C,D44*%
X299935763Y-143140838D03*
X298541127Y-140150018D03*
%TD*%
D30*
%TO.C,D57*%
X273564745Y-178438621D03*
X271112369Y-176230487D03*
%TD*%
D21*
%TO.C,D55*%
X255052757Y-132072165D03*
X253658121Y-129081345D03*
%TD*%
D16*
%TO.C,S31*%
X333158965Y-119207758D03*
D17*
X335629079Y-111490827D03*
D18*
X338143658Y-116883358D03*
D17*
X341090375Y-111371612D03*
D16*
X343128351Y-114558958D03*
D19*
X332660921Y-112874901D03*
X344058537Y-109987537D03*
%TD*%
D16*
%TO.C,S48*%
X278470263Y-172293965D03*
D17*
X280940377Y-164577034D03*
D18*
X283454956Y-169969565D03*
D17*
X286401673Y-164457819D03*
D16*
X288439649Y-167645165D03*
D19*
X277972219Y-165961108D03*
X289369835Y-163073744D03*
%TD*%
D23*
%TO.C,D7*%
X113715297Y-114528983D03*
X115109935Y-111538167D03*
%TD*%
D21*
%TO.C,D37*%
X315869428Y-92127415D03*
X314474792Y-89136595D03*
%TD*%
D23*
%TO.C,D21*%
X159274977Y-144600832D03*
X160669615Y-141610016D03*
%TD*%
D21*
%TO.C,D35*%
X330238442Y-122941878D03*
X328843806Y-119951058D03*
%TD*%
D16*
%TO.C,S13*%
X129441150Y-90801974D03*
D17*
X136940421Y-87733844D03*
D18*
X134425843Y-93126374D03*
D17*
X140542200Y-91840812D03*
D16*
X139410536Y-95450774D03*
D20*
X133972263Y-86349767D03*
X143510358Y-93224886D03*
%TD*%
M02*
