%TF.GenerationSoftware,KiCad,Pcbnew,8.0.7*%
%TF.CreationDate,2024-12-17T03:41:54-05:00*%
%TF.ProjectId,choc,63686f63-2e6b-4696-9361-645f70636258,v1.0.0*%
%TF.SameCoordinates,Original*%
%TF.FileFunction,Copper,L1,Top*%
%TF.FilePolarity,Positive*%
%FSLAX46Y46*%
G04 Gerber Fmt 4.6, Leading zero omitted, Abs format (unit mm)*
G04 Created by KiCad (PCBNEW 8.0.7) date 2024-12-17 03:41:54*
%MOMM*%
%LPD*%
G01*
G04 APERTURE LIST*
%TA.AperFunction,ComponentPad*%
%ADD10C,0.600000*%
%TD*%
%TA.AperFunction,ComponentPad*%
%ADD11C,3.800000*%
%TD*%
%TA.AperFunction,ComponentPad*%
%ADD12R,1.700000X1.700000*%
%TD*%
%TA.AperFunction,ComponentPad*%
%ADD13O,1.700000X1.700000*%
%TD*%
%TA.AperFunction,ComponentPad*%
%ADD14R,1.752600X1.752600*%
%TD*%
%TA.AperFunction,ComponentPad*%
%ADD15C,1.752600*%
%TD*%
%TA.AperFunction,ComponentPad*%
%ADD16C,1.700000*%
%TD*%
%TA.AperFunction,Conductor*%
%ADD17C,0.200000*%
%TD*%
G04 APERTURE END LIST*
D10*
%TO.P,REF\u002A\u002A,1*%
%TO.N,P9*%
X274939567Y-179676512D03*
%TD*%
%TO.P,REF\u002A\u002A,1*%
%TO.N,P21*%
X140235069Y-100248779D03*
%TD*%
%TO.P,REF\u002A\u002A,1*%
%TO.N,P8*%
X300717610Y-144817497D03*
%TD*%
%TO.P,REF\u002A\u002A,1*%
%TO.N,P18*%
X153730617Y-129161100D03*
%TD*%
%TO.P,REF\u002A\u002A,1*%
%TO.N,P10*%
X111497027Y-161877708D03*
%TD*%
%TO.P,REF\u002A\u002A,1*%
%TO.N,P7*%
X347333834Y-117011421D03*
%TD*%
D11*
%TO.P,H8,*%
%TO.N,*%
X251208949Y-122113582D03*
%TD*%
D10*
%TO.P,REF\u002A\u002A,1*%
%TO.N,P16*%
X118681534Y-146470471D03*
%TD*%
D11*
%TO.P,H7,*%
%TO.N,*%
X319210129Y-97576074D03*
%TD*%
D10*
%TO.P,REF\u002A\u002A,1*%
%TO.N,P20*%
X165677635Y-130870266D03*
%TD*%
%TO.P,REF\u002A\u002A,1*%
%TO.N,P14*%
X158493129Y-146277503D03*
%TD*%
%TO.P,REF\u002A\u002A,1*%
%TO.N,P14*%
X143236132Y-136404603D03*
%TD*%
%TO.P,REF\u002A\u002A,1*%
%TO.N,P1*%
X316651267Y-93804083D03*
%TD*%
%TO.P,REF\u002A\u002A,1*%
%TO.N,P7*%
X331020289Y-124618547D03*
%TD*%
%TO.P,REF\u002A\u002A,1*%
%TO.N,P21*%
X188119145Y-125335928D03*
%TD*%
%TO.P,REF\u002A\u002A,1*%
%TO.N,P8*%
X270203623Y-164563299D03*
%TD*%
%TO.P,REF\u002A\u002A,1*%
%TO.N,P1*%
X248650084Y-118341603D03*
%TD*%
%TO.P,REF\u002A\u002A,1*%
%TO.N,P9*%
X292645129Y-170097631D03*
%TD*%
%TO.P,REF\u002A\u002A,1*%
%TO.N,P0*%
X255834605Y-133748836D03*
%TD*%
%TO.P,REF\u002A\u002A,1*%
%TO.N,P19*%
X138473624Y-119288210D03*
%TD*%
%TO.P,REF\u002A\u002A,1*%
%TO.N,P9*%
X254127528Y-204585176D03*
%TD*%
%TO.P,REF\u002A\u002A,1*%
%TO.N,P14*%
X105748940Y-131612884D03*
%TD*%
%TO.P,REF\u002A\u002A,1*%
%TO.N,P8*%
X318087691Y-139476142D03*
%TD*%
%TO.P,REF\u002A\u002A,1*%
%TO.N,P1*%
X263907087Y-108468700D03*
%TD*%
%TO.P,REF\u002A\u002A,1*%
%TO.N,P10*%
X157904387Y-191975556D03*
%TD*%
%TO.P,REF\u002A\u002A,1*%
%TO.N,P7*%
X278276105Y-139283165D03*
%TD*%
%TO.P,REF\u002A\u002A,1*%
%TO.N,P1*%
X279164081Y-98595800D03*
%TD*%
%TO.P,REF\u002A\u002A,1*%
%TO.N,P6*%
X294729983Y-116714999D03*
%TD*%
%TO.P,REF\u002A\u002A,1*%
%TO.N,P7*%
X293533096Y-129410264D03*
%TD*%
%TO.P,REF\u002A\u002A,1*%
%TO.N,P8*%
X354518340Y-132418651D03*
%TD*%
%TO.P,REF\u002A\u002A,1*%
%TO.N,P20*%
X150420642Y-120997370D03*
%TD*%
%TO.P,REF\u002A\u002A,1*%
%TO.N,P21*%
X157605158Y-105590134D03*
%TD*%
%TO.P,REF\u002A\u002A,1*%
%TO.N,P21*%
X103804427Y-93191291D03*
%TD*%
D11*
%TO.P,H2,*%
%TO.N,*%
X102559716Y-97576077D03*
%TD*%
D10*
%TO.P,REF\u002A\u002A,1*%
%TO.N,P0*%
X271091590Y-123875934D03*
%TD*%
%TO.P,REF\u002A\u002A,1*%
%TO.N,P0*%
X323835779Y-109211315D03*
%TD*%
%TO.P,REF\u002A\u002A,1*%
%TO.N,P16*%
X136051628Y-151811836D03*
%TD*%
%TO.P,REF\u002A\u002A,1*%
%TO.N,P7*%
X310903184Y-124068905D03*
%TD*%
%TO.P,REF\u002A\u002A,1*%
%TO.N,P16*%
X82250894Y-139412986D03*
%TD*%
D11*
%TO.P,H3,*%
%TO.N,*%
X88190698Y-128390536D03*
%TD*%
D10*
%TO.P,REF\u002A\u002A,1*%
%TO.N,P16*%
X151308617Y-161684729D03*
%TD*%
%TO.P,REF\u002A\u002A,1*%
%TO.N,P15*%
X168987614Y-139034006D03*
%TD*%
%TO.P,REF\u002A\u002A,1*%
%TO.N,P9*%
X307902120Y-160224732D03*
%TD*%
%TO.P,REF\u002A\u002A,1*%
%TO.N,P1*%
X296534166Y-93254445D03*
%TD*%
%TO.P,REF\u002A\u002A,1*%
%TO.N,P1*%
X332964811Y-86196957D03*
%TD*%
%TO.P,REF\u002A\u002A,1*%
%TO.N,P8*%
X285460612Y-154690398D03*
%TD*%
%TO.P,REF\u002A\u002A,1*%
%TO.N,P21*%
X172862149Y-115463038D03*
%TD*%
D12*
%TO.P,OLED1,1*%
%TO.N,GND*%
X214684919Y-166427996D03*
D13*
%TO.P,OLED1,2*%
%TO.N,VCC*%
X212144922Y-166427995D03*
%TO.P,OLED1,3*%
%TO.N,P3*%
X209604921Y-166427997D03*
%TO.P,OLED1,4*%
%TO.N,P2*%
X207064921Y-166427995D03*
%TD*%
D10*
%TO.P,REF\u002A\u002A,1*%
%TO.N,P10*%
X181199278Y-195092487D03*
%TD*%
%TO.P,REF\u002A\u002A,1*%
%TO.N,P20*%
X112933450Y-116205649D03*
%TD*%
%TO.P,REF\u002A\u002A,1*%
%TO.N,P16*%
X166565615Y-171557628D03*
%TD*%
%TO.P,REF\u002A\u002A,1*%
%TO.N,P5*%
X314847090Y-117264638D03*
%TD*%
%TO.P,REF\u002A\u002A,1*%
%TO.N,P20*%
X180934634Y-140743163D03*
%TD*%
%TO.P,REF\u002A\u002A,1*%
%TO.N,P16*%
X98564431Y-147020115D03*
%TD*%
D11*
%TO.P,H1,*%
%TO.N,*%
X171617436Y-119847816D03*
%TD*%
D14*
%TO.P,MCU1,1*%
%TO.N,RAW*%
X203264915Y-135058001D03*
D15*
%TO.P,MCU1,2*%
%TO.N,GND*%
X203264916Y-137598002D03*
%TO.P,MCU1,3*%
%TO.N,RST*%
X203264915Y-140138002D03*
%TO.P,MCU1,4*%
%TO.N,VCC*%
X203264913Y-142678002D03*
%TO.P,MCU1,5*%
%TO.N,P21*%
X203264916Y-145218003D03*
%TO.P,MCU1,6*%
%TO.N,P20*%
X203264912Y-147758003D03*
%TO.P,MCU1,7*%
%TO.N,P19*%
X203264915Y-150298002D03*
%TO.P,MCU1,8*%
%TO.N,P18*%
X203264917Y-152838001D03*
%TO.P,MCU1,9*%
%TO.N,P15*%
X203264915Y-155378003D03*
%TO.P,MCU1,10*%
%TO.N,P14*%
X203264915Y-157918002D03*
%TO.P,MCU1,11*%
%TO.N,P16*%
X203264913Y-160458002D03*
%TO.P,MCU1,12*%
%TO.N,P10*%
X203264915Y-162998003D03*
%TO.P,MCU1,13*%
%TO.N,P1*%
X218504915Y-135058001D03*
%TO.P,MCU1,14*%
%TO.N,P0*%
X218504917Y-137598002D03*
%TO.P,MCU1,15*%
%TO.N,GND*%
X218504915Y-140138002D03*
%TO.P,MCU1,16*%
X218504915Y-142678001D03*
%TO.P,MCU1,17*%
%TO.N,P2*%
X218504913Y-145218003D03*
%TO.P,MCU1,18*%
%TO.N,P3*%
X218504915Y-147758002D03*
%TO.P,MCU1,19*%
%TO.N,P4*%
X218504918Y-150298001D03*
%TO.P,MCU1,20*%
%TO.N,P5*%
X218504914Y-152838001D03*
%TO.P,MCU1,21*%
%TO.N,P6*%
X218504917Y-155378002D03*
%TO.P,MCU1,22*%
%TO.N,P7*%
X218504915Y-157918002D03*
%TO.P,MCU1,23*%
%TO.N,P8*%
X218504914Y-160458002D03*
%TO.P,MCU1,24*%
%TO.N,P9*%
X218504915Y-162998003D03*
%TD*%
D10*
%TO.P,REF\u002A\u002A,1*%
%TO.N,P14*%
X173750122Y-156150393D03*
%TD*%
%TO.P,REF\u002A\u002A,1*%
%TO.N,P14*%
X89435399Y-124005756D03*
%TD*%
%TO.P,REF\u002A\u002A,1*%
%TO.N,P0*%
X286348592Y-114003032D03*
%TD*%
%TO.P,REF\u002A\u002A,1*%
%TO.N,P10*%
X144124108Y-177091968D03*
%TD*%
%TO.P,REF\u002A\u002A,1*%
%TO.N,P10*%
X128867112Y-167219061D03*
%TD*%
%TO.P,REF\u002A\u002A,1*%
%TO.N,P7*%
X263019108Y-149156065D03*
%TD*%
%TO.P,REF\u002A\u002A,1*%
%TO.N,P0*%
X303718669Y-108661679D03*
%TD*%
D11*
%TO.P,H5,*%
%TO.N,*%
X272762472Y-168335281D03*
%TD*%
D16*
%TO.P,RST1,1*%
%TO.N,RST*%
X207634924Y-174028002D03*
%TO.P,RST1,2*%
%TO.N,GND*%
X214134924Y-174027998D03*
%TD*%
D10*
%TO.P,REF\u002A\u002A,1*%
%TO.N,P20*%
X96619914Y-108598518D03*
%TD*%
D11*
%TO.P,H4,*%
%TO.N,*%
X150063909Y-166069519D03*
%TD*%
D10*
%TO.P,REF\u002A\u002A,1*%
%TO.N,P9*%
X325272204Y-154883376D03*
%TD*%
%TO.P,REF\u002A\u002A,1*%
%TO.N,P20*%
X133050553Y-115656007D03*
%TD*%
D11*
%TO.P,H6,*%
%TO.N,*%
X333579144Y-128390538D03*
%TD*%
D10*
%TO.P,REF\u002A\u002A,1*%
%TO.N,P8*%
X338204797Y-140025786D03*
%TD*%
%TO.P,REF\u002A\u002A,1*%
%TO.N,P14*%
X125866047Y-131063241D03*
%TD*%
%TO.P,REF\u002A\u002A,1*%
%TO.N,P0*%
X340149319Y-101604189D03*
%TD*%
%TO.P,REF\u002A\u002A,1*%
%TO.N,P21*%
X120117962Y-100798420D03*
%TD*%
%TO.P,REF\u002A\u002A,1*%
%TO.N,P4*%
X331160629Y-109657509D03*
%TD*%
D17*
%TO.N,GND*%
X214684919Y-144053668D02*
X214684919Y-166427996D01*
X216060586Y-142678001D02*
X214684919Y-144053668D01*
X218504915Y-142678001D02*
X216060586Y-142678001D01*
%TO.N,VCC*%
X210634461Y-142678002D02*
X212144922Y-144188463D01*
X203264913Y-142678002D02*
X210634461Y-142678002D01*
X212144922Y-144188463D02*
X212144922Y-166427995D01*
%TO.N,P8*%
X247283991Y-157675494D02*
X254015762Y-172111822D01*
X245791613Y-157132312D02*
X247283991Y-157675494D01*
X254015762Y-172111822D02*
X270203623Y-164563299D01*
X243169667Y-156178002D02*
X245791613Y-157132312D01*
X242442248Y-156178002D02*
X243169667Y-156178002D01*
X242442247Y-156178003D02*
X242442248Y-156178002D01*
X225324914Y-156178003D02*
X242442247Y-156178003D01*
X221044915Y-160458002D02*
X225324914Y-156178003D01*
%TO.N,P7*%
X246552996Y-156834340D02*
X263019108Y-149156065D01*
X243240200Y-155778002D02*
X246373030Y-156918259D01*
X242034094Y-155778003D02*
X243240200Y-155778002D01*
X246373030Y-156918259D02*
X246552996Y-156834340D01*
X223184915Y-155778003D02*
X242034094Y-155778003D01*
X221044915Y-157918003D02*
X223184915Y-155778003D01*
%TO.N,P4*%
X243283868Y-153519680D02*
X241335598Y-149341601D01*
X242898670Y-154578002D02*
X243283868Y-153519680D01*
X242810820Y-154578003D02*
X242898670Y-154578002D01*
X221044915Y-150298001D02*
X225324917Y-154578003D01*
X225324917Y-154578003D02*
X242810820Y-154578003D01*
%TO.N,P5*%
X242528534Y-141308357D02*
X270313827Y-128351863D01*
X242528531Y-141308365D02*
X242528534Y-141308357D01*
X240658053Y-142180583D02*
X242528531Y-141308365D01*
X242725929Y-151376695D02*
X239684719Y-144854799D01*
X239684719Y-144854799D02*
X240658053Y-142180583D01*
X243775000Y-153626435D02*
X242725929Y-151376695D01*
X243283069Y-154978003D02*
X243340239Y-154820931D01*
X221048460Y-152838001D02*
X223188462Y-154978003D01*
X223188462Y-154978003D02*
X243283069Y-154978003D01*
X221044914Y-152838001D02*
X221048460Y-152838001D01*
X243340239Y-154820931D02*
X243775000Y-153626435D01*
%TO.N,P4*%
X241335598Y-149341601D02*
X239252174Y-144873683D01*
X241351658Y-149376041D02*
X241335598Y-149341601D01*
X239252174Y-144873683D02*
X240338844Y-141888082D01*
X240338844Y-141888082D02*
X240869372Y-141640693D01*
X240869372Y-141640693D02*
X269994615Y-128059363D01*
%TO.N,P6*%
X244207545Y-153607550D02*
X243563153Y-155378003D01*
X240977263Y-142473082D02*
X240117263Y-144835913D01*
X218504917Y-155378003D02*
X243563153Y-155378003D01*
X240117263Y-144835913D02*
X244207545Y-153607550D01*
X252857955Y-136933020D02*
X240977263Y-142473082D01*
%TO.N,P0*%
X239433736Y-140877464D02*
X237405549Y-136528001D01*
X240059093Y-141105075D02*
X239433736Y-140877464D01*
X255834605Y-133748836D02*
X240059093Y-141105075D01*
%TO.N,P1*%
X236648096Y-134992198D02*
X236234697Y-136128002D01*
X233722549Y-128718343D02*
X236648096Y-134992198D01*
X234091121Y-127705701D02*
X233722549Y-128718343D01*
X246432218Y-121950952D02*
X234091121Y-127705701D01*
X236234697Y-136128002D02*
X222114915Y-136128002D01*
%TO.N,P0*%
X222114915Y-136528001D02*
X237405549Y-136528001D01*
X221044914Y-137598002D02*
X222114915Y-136528001D01*
%TO.N,P1*%
X222114915Y-136128002D02*
X221044915Y-135058002D01*
%TO.N,P0*%
X218504918Y-137598002D02*
X221044914Y-137598002D01*
%TO.N,P1*%
X218504916Y-135058002D02*
X221044915Y-135058002D01*
%TO.N,P4*%
X218504918Y-150298002D02*
X221044915Y-150298001D01*
%TO.N,P5*%
X218504914Y-152838002D02*
X221044914Y-152838001D01*
%TO.N,P8*%
X218504915Y-160458002D02*
X221044915Y-160458002D01*
%TO.N,P7*%
X218504916Y-157918003D02*
X221044915Y-157918003D01*
%TO.N,P9*%
X256993232Y-205306530D02*
X274939567Y-179676512D01*
X255526967Y-205565076D02*
X256993232Y-205306530D01*
X254127528Y-204585176D02*
X255526967Y-205565076D01*
%TO.N,P6*%
X270633035Y-128644364D02*
X252857955Y-136933020D01*
X271611872Y-125955042D02*
X270633035Y-128644364D01*
X293362684Y-115523041D02*
X276983888Y-123160592D01*
X276983888Y-123160592D02*
X271738753Y-125606446D01*
X294324826Y-115873232D02*
X293362684Y-115523041D01*
X271738753Y-125606446D02*
X271611872Y-125955042D01*
X294340043Y-115878766D02*
X294324826Y-115873232D01*
X294729983Y-116714999D02*
X294340043Y-115878766D01*
%TO.N,P5*%
X271419542Y-125313941D02*
X270313828Y-128351865D01*
X301216272Y-111419500D02*
X271419542Y-125313941D01*
X305025020Y-113356118D02*
X304040684Y-111245203D01*
X304040684Y-111245203D02*
X302664336Y-110744256D01*
X312511100Y-116080825D02*
X305025020Y-113356118D01*
X313766674Y-115495343D02*
X312511100Y-116080825D01*
X314847090Y-117264638D02*
X314074259Y-115607297D01*
X314074259Y-115607297D02*
X313766674Y-115495343D01*
X302664336Y-110744256D02*
X301216272Y-111419500D01*
%TO.N,P4*%
X327717997Y-111262835D02*
X331160629Y-109657509D01*
X323630051Y-109774947D02*
X327717997Y-111262835D01*
X304333187Y-110925993D02*
X305317521Y-113036906D01*
X305317521Y-113036906D02*
X311673599Y-115350329D01*
X311673599Y-115350329D02*
X323630051Y-109774947D01*
X302645453Y-110311711D02*
X304333187Y-110925993D01*
X271100330Y-125021444D02*
X302645453Y-110311711D01*
X269994615Y-128059363D02*
X271100330Y-125021444D01*
%TO.N,P9*%
X292065323Y-171690643D02*
X292645129Y-170097631D01*
X274939567Y-179676512D02*
X292065323Y-171690643D01*
X306692897Y-163547053D02*
X307902120Y-160224732D01*
X292645129Y-170097631D02*
X306692897Y-163547053D01*
X311224440Y-161433958D02*
X307902120Y-160224732D01*
X325272204Y-154883376D02*
X311224440Y-161433958D01*
%TO.N,P8*%
X284251388Y-158012712D02*
X285460612Y-154690398D01*
X270203623Y-164563299D02*
X284251388Y-158012712D01*
X300717610Y-144817497D02*
X299508388Y-148139817D01*
X299508388Y-148139817D02*
X285460612Y-154690398D01*
X304039933Y-146026725D02*
X300717610Y-144817497D01*
X318087691Y-139476142D02*
X304039933Y-146026725D01*
X320423642Y-144485600D02*
X318087691Y-139476142D01*
X338204797Y-140025786D02*
X325038578Y-146165301D01*
X325038578Y-146165301D02*
X320423642Y-144485600D01*
X338204805Y-140025779D02*
X338204797Y-140025786D01*
X354518340Y-132418651D02*
X338204805Y-140025779D01*
%TO.N,P7*%
X277066882Y-142605478D02*
X263019108Y-149156065D01*
X278276105Y-139283165D02*
X277066882Y-142605478D01*
X293533096Y-129410264D02*
X292323874Y-132732588D01*
X292323874Y-132732588D02*
X278276105Y-139283165D01*
X296855411Y-130619490D02*
X310903184Y-124068905D01*
X293533096Y-129410264D02*
X296855411Y-130619490D01*
X312909491Y-128371450D02*
X310903184Y-124068905D01*
X318560982Y-130428426D02*
X312909491Y-128371450D01*
X331020289Y-124618547D02*
X318560982Y-130428426D01*
X347333834Y-117011421D02*
X331020289Y-124618547D01*
%TO.N,P0*%
X324053904Y-109109603D02*
X340149319Y-101604189D01*
X323835779Y-109211315D02*
X324053900Y-109109604D01*
X324053900Y-109109604D02*
X324053904Y-109109603D01*
X305610022Y-112717699D02*
X303718669Y-108661679D01*
X311622986Y-114906238D02*
X305610022Y-112717699D01*
X323835779Y-109211315D02*
X311622986Y-114906238D01*
X289670910Y-115212262D02*
X303718669Y-108661679D01*
X286348592Y-114003032D02*
X289670910Y-115212262D01*
X285139372Y-117325349D02*
X271091590Y-123875934D01*
X286348592Y-114003032D02*
X285139372Y-117325349D01*
X255834605Y-133748836D02*
X269882365Y-127198254D01*
X269882365Y-127198254D02*
X271091590Y-123875934D01*
%TO.N,P1*%
X248650084Y-118341603D02*
X247561090Y-118849409D01*
X247561090Y-118849409D02*
X246432218Y-121950952D01*
X262697863Y-111791014D02*
X263907087Y-108468700D01*
X248650084Y-118341603D02*
X262697863Y-111791014D01*
X277954856Y-101918118D02*
X263907087Y-108468700D01*
X279164081Y-98595800D02*
X277954856Y-101918118D01*
X279164081Y-98595800D02*
X282486395Y-99805031D01*
X282486395Y-99805031D02*
X296534166Y-93254445D01*
X304684989Y-99384050D02*
X298310574Y-97063956D01*
X316651267Y-93804083D02*
X304684989Y-99384050D01*
X298310574Y-97063956D02*
X296534166Y-93254445D01*
X316651269Y-93804084D02*
X316651267Y-93804083D01*
X332964811Y-86196957D02*
X316651269Y-93804084D01*
%TO.N,P19*%
X198584918Y-152437999D02*
X182041802Y-152438005D01*
X200724915Y-150297995D02*
X198780277Y-152242643D01*
X179916671Y-149775081D02*
X180230550Y-149101962D01*
X167944380Y-133030645D02*
X138473624Y-119288210D01*
X203264918Y-150298004D02*
X200724915Y-150297995D01*
X181688446Y-152438004D02*
X180280934Y-152438004D01*
X180135556Y-141462670D02*
X179850273Y-140678869D01*
X182041802Y-152438005D02*
X181688446Y-152438004D01*
X179576904Y-150503705D02*
X179874563Y-149865379D01*
X180280934Y-152438004D02*
X180050462Y-151804795D01*
X168863385Y-135555600D02*
X167944380Y-133030645D01*
X181738791Y-145867531D02*
X180135556Y-141462670D01*
X198780277Y-152242643D02*
X198584918Y-152437999D01*
X198780277Y-152242643D02*
X198610560Y-152412359D01*
X179874563Y-149865379D02*
X179916671Y-149775081D01*
X180230550Y-149101962D02*
X181738791Y-145867531D01*
X179850273Y-140678869D02*
X179786289Y-140649032D01*
X180050462Y-151804795D02*
X179718749Y-150893415D01*
X179718750Y-150893412D02*
X179576904Y-150503705D01*
X179786289Y-140649032D02*
X168863385Y-135555600D01*
%TO.N,P18*%
X179167702Y-150434761D02*
X179144359Y-150484820D01*
X154707679Y-129616714D02*
X157498422Y-128600968D01*
X157498422Y-128600968D02*
X167625172Y-133323149D01*
X167625172Y-133323149D02*
X168544178Y-135848104D01*
X153730617Y-129161100D02*
X154707679Y-129616714D01*
X180001729Y-152837998D02*
X180001080Y-152838655D01*
X179144359Y-150484820D02*
X180001080Y-152838655D01*
X203264917Y-152838002D02*
X181522758Y-152838001D01*
X168544178Y-135848104D02*
X179531065Y-140971373D01*
X181306243Y-145848639D02*
X179167702Y-150434761D01*
X179531065Y-140971373D02*
X181306243Y-145848639D01*
X181522758Y-152838001D02*
X180001729Y-152837998D01*
%TO.N,P15*%
X197231000Y-153238000D02*
X182016402Y-153238001D01*
X169916637Y-139467211D02*
X170822168Y-139137621D01*
X200724917Y-155378000D02*
X198584912Y-153238001D01*
X179020221Y-151313278D02*
X179522250Y-152692574D01*
X178948347Y-149958692D02*
X178711816Y-150465934D01*
X182015748Y-153238652D02*
X179724140Y-153238645D01*
X170822168Y-139137621D02*
X171326687Y-138055674D01*
X171326687Y-138055674D02*
X171891224Y-137850207D01*
X203264912Y-155378002D02*
X200724917Y-155378000D01*
X179522250Y-152692574D02*
X179719207Y-153233719D01*
X182016402Y-153238001D02*
X182015748Y-153238652D01*
X179724140Y-153238645D02*
X179719207Y-153233719D01*
X180868786Y-145840295D02*
X178948347Y-149958692D01*
X171891224Y-137850207D02*
X179201311Y-141258958D01*
X179201311Y-141258958D02*
X180868786Y-145840295D01*
X168987614Y-139034006D02*
X169916637Y-139467211D01*
X198584912Y-153238001D02*
X197231000Y-153238000D01*
X178711816Y-150465934D02*
X179020221Y-151313278D01*
%TO.N,P16*%
X165140050Y-170892874D02*
X166565615Y-171557628D01*
X107269369Y-141148892D02*
X118681534Y-146470471D01*
X177106741Y-154854517D02*
X177487187Y-154038652D01*
X134878010Y-151264571D02*
X136051628Y-151811836D01*
X182396751Y-154038650D02*
X182397401Y-154038002D01*
X136051628Y-151811836D02*
X137077080Y-152290012D01*
X169880572Y-170351078D02*
X177106741Y-154854517D01*
X194304919Y-154038000D02*
X200724916Y-160458004D01*
X99821002Y-147606062D02*
X102673936Y-146567674D01*
X138286300Y-155612320D02*
X151308617Y-161684729D01*
X151270984Y-163455540D02*
X164714793Y-169724487D01*
X82250894Y-139412986D02*
X98564431Y-147020115D01*
X118681534Y-146470471D02*
X131555703Y-152473795D01*
X150925499Y-162506331D02*
X151270984Y-163455540D01*
X182397401Y-154038002D02*
X193217802Y-154038004D01*
X193217802Y-154038004D02*
X194304919Y-154038000D01*
X104777895Y-142055713D02*
X107269369Y-141148892D01*
X151308617Y-161684729D02*
X150925499Y-162506331D01*
X98564431Y-147020115D02*
X99821002Y-147606062D01*
X131555703Y-152473795D02*
X134878010Y-151264571D01*
X164714793Y-169724487D02*
X165140050Y-170892874D01*
X177487187Y-154038652D02*
X182396751Y-154038650D01*
X203264918Y-160458000D02*
X200724916Y-160458004D01*
X166565615Y-171557628D02*
X169880572Y-170351078D01*
X137077080Y-152290012D02*
X138286300Y-155612320D01*
X102673936Y-146567674D02*
X104777895Y-142055713D01*
%TO.N,P14*%
X157859994Y-147635274D02*
X158493129Y-146277503D01*
X141532693Y-135597032D02*
X138194436Y-136812061D01*
X177253386Y-153638652D02*
X177228055Y-153647865D01*
X112016056Y-126653641D02*
X114483613Y-125755522D01*
X158344584Y-148966680D02*
X157859994Y-147635274D01*
X194919598Y-153638003D02*
X182270400Y-153637997D01*
X173750122Y-156150393D02*
X158344584Y-148966680D01*
X114483613Y-125755522D02*
X125866047Y-131063241D01*
X143236132Y-136404603D02*
X141538497Y-135612982D01*
X175783567Y-156479574D02*
X175037990Y-156750944D01*
X105748940Y-131612884D02*
X105748940Y-131612884D01*
X200724919Y-157918004D02*
X196444917Y-153638002D01*
X107587728Y-132470322D02*
X109654462Y-131718084D01*
X145901487Y-140405918D02*
X158493129Y-146277503D01*
X105748940Y-131612884D02*
X107587728Y-132470322D01*
X175932969Y-156425197D02*
X175783567Y-156479574D01*
X109654462Y-131718084D02*
X112016056Y-126653641D01*
X144692268Y-137083611D02*
X145901487Y-140405918D01*
X177228055Y-153647865D02*
X175932969Y-156425197D01*
X196444917Y-153638002D02*
X194919598Y-153638003D01*
X203264912Y-157918000D02*
X200724919Y-157918004D01*
X141538497Y-135612982D02*
X141532693Y-135597032D01*
X143236132Y-136404603D02*
X144692268Y-137083611D01*
X182270400Y-153637997D02*
X182269747Y-153638650D01*
X175037990Y-156750944D02*
X173750122Y-156150393D01*
X138194436Y-136812061D02*
X125866047Y-131063241D01*
X89435399Y-124005756D02*
X105748940Y-131612884D01*
X182269747Y-153638650D02*
X177253386Y-153638652D01*
%TO.N,P20*%
X114637916Y-117000458D02*
X114675544Y-117103846D01*
X180319853Y-151375419D02*
X180561015Y-152037997D01*
X167973371Y-131940788D02*
X169182598Y-135263094D01*
X112933449Y-116205649D02*
X112933450Y-116205649D01*
X96619914Y-108598518D02*
X112933449Y-116205649D01*
X196444918Y-152038004D02*
X193141598Y-152037998D01*
X134704266Y-116427147D02*
X138026584Y-115217920D01*
X182016428Y-145460816D02*
X182171334Y-145886414D01*
X200724919Y-147757998D02*
X196444918Y-152038004D01*
X150420642Y-120997370D02*
X151801007Y-121641045D01*
X180397880Y-149689614D02*
X180009448Y-150522593D01*
X119093071Y-111176420D02*
X121536702Y-110287011D01*
X112933450Y-116205649D02*
X114637916Y-117000458D01*
X182031295Y-146186736D02*
X180540381Y-149384009D01*
X203264918Y-147758003D02*
X200724919Y-147757998D01*
X180577839Y-141508307D02*
X181002860Y-142676054D01*
X114675544Y-117103846D02*
X116667077Y-116378986D01*
X153010233Y-124963356D02*
X165677635Y-130870266D01*
X121536702Y-110287011D02*
X133050553Y-115656007D01*
X165677635Y-130870266D02*
X167973371Y-131940788D01*
X181002860Y-142676054D02*
X182016428Y-145460816D01*
X180540381Y-149384009D02*
X180397880Y-149689614D01*
X151801007Y-121641045D02*
X153010233Y-124963356D01*
X133050553Y-115656007D02*
X134704266Y-116427147D01*
X182171334Y-145886414D02*
X182031295Y-146186736D01*
X169182598Y-135263094D02*
X180934634Y-140743163D01*
X116667077Y-116378986D02*
X119093071Y-111176420D01*
X180934634Y-140743163D02*
X180577839Y-141508307D01*
X193141598Y-152037998D02*
X180561017Y-152037995D01*
X138026584Y-115217920D02*
X150420642Y-120997370D01*
X180561017Y-152037995D02*
X180561015Y-152037997D01*
X180009448Y-150522593D02*
X180319853Y-151375419D01*
X180561015Y-152037997D02*
X180624123Y-152037994D01*
%TO.N,P21*%
X200724915Y-145218002D02*
X194304918Y-151638001D01*
X194304918Y-151638001D02*
X191008000Y-151638000D01*
X128336575Y-94700417D02*
X126220661Y-95470550D01*
X180583104Y-150929158D02*
X180442000Y-150541478D01*
X172862149Y-115463038D02*
X174690774Y-116315736D01*
X121486733Y-101436687D02*
X120117962Y-100798420D01*
X103804427Y-93191291D02*
X120117962Y-100798420D01*
X123837601Y-100581041D02*
X121486733Y-101436687D01*
X140235069Y-100248779D02*
X142194742Y-101162591D01*
X191008000Y-151638000D02*
X180841101Y-151638003D01*
X145517064Y-99953365D02*
X157605158Y-105590134D01*
X157605158Y-105590134D02*
X159807537Y-106617128D01*
X142194742Y-101162591D02*
X145517064Y-99953365D01*
X188119145Y-125335928D02*
X189228702Y-125853332D01*
X175899999Y-119638050D02*
X188119145Y-125335928D01*
X180442000Y-150541478D02*
X180830427Y-149708498D01*
X126220661Y-95470550D02*
X123837601Y-100581041D01*
X180830427Y-149708498D02*
X181096125Y-149138695D01*
X181096125Y-149138695D02*
X180848257Y-149670261D01*
X159807537Y-106617128D02*
X161016766Y-109939442D01*
X140235069Y-100248779D02*
X128336575Y-94700417D01*
X180841101Y-151638003D02*
X180583104Y-150929158D01*
X161016766Y-109939442D02*
X172862149Y-115463038D01*
X203264921Y-145218005D02*
X200724915Y-145218002D01*
X174690774Y-116315736D02*
X175899999Y-119638050D01*
X189228702Y-125853332D02*
X190423517Y-129136045D01*
X190423517Y-129136045D02*
X181096125Y-149138695D01*
%TO.N,P10*%
X130076342Y-170541383D02*
X128867112Y-167219061D01*
X144124108Y-177091968D02*
X130076342Y-170541383D01*
X168623306Y-203898277D02*
X181199278Y-195092487D01*
X157904387Y-191975556D02*
X144521908Y-177112815D01*
X125544799Y-168428287D02*
X128867112Y-167219061D01*
X165918861Y-203421408D02*
X168623306Y-203898277D01*
X111497027Y-161877708D02*
X125544799Y-168428287D01*
X144521908Y-177112815D02*
X144124108Y-177091968D01*
X157904387Y-191975556D02*
X165918861Y-203421408D01*
%TD*%
M02*
