%TF.GenerationSoftware,KiCad,Pcbnew,8.0.7*%
%TF.CreationDate,2024-12-17T03:41:54-05:00*%
%TF.ProjectId,choc,63686f63-2e6b-4696-9361-645f70636258,v1.0.0*%
%TF.SameCoordinates,Original*%
%TF.FileFunction,Legend,Bot*%
%TF.FilePolarity,Positive*%
%FSLAX46Y46*%
G04 Gerber Fmt 4.6, Leading zero omitted, Abs format (unit mm)*
G04 Created by KiCad (PCBNEW 8.0.7) date 2024-12-17 03:41:54*
%MOMM*%
%LPD*%
G01*
G04 APERTURE LIST*
G04 Aperture macros list*
%AMRotRect*
0 Rectangle, with rotation*
0 The origin of the aperture is its center*
0 $1 length*
0 $2 width*
0 $3 Rotation angle, in degrees counterclockwise*
0 Add horizontal line*
21,1,$1,$2,0,0,$3*%
G04 Aperture macros list end*
%ADD10C,0.150000*%
%ADD11C,0.100000*%
%ADD12R,1.752600X1.752600*%
%ADD13C,1.752600*%
%ADD14C,3.800000*%
%ADD15R,1.700000X1.700000*%
%ADD16O,1.700000X1.700000*%
%ADD17C,1.700000*%
%ADD18C,1.900000*%
%ADD19C,3.000000*%
%ADD20C,3.400000*%
%ADD21RotRect,2.600000X2.600000X25.000000*%
%ADD22RotRect,2.600000X2.600000X335.000000*%
%ADD23RotRect,0.900000X1.200000X115.000000*%
%ADD24RotRect,2.600000X2.600000X48.000000*%
%ADD25RotRect,0.900000X1.200000X65.000000*%
%ADD26RotRect,2.600000X2.600000X325.000000*%
%ADD27RotRect,0.900000X1.200000X125.000000*%
%ADD28RotRect,2.600000X2.600000X312.000000*%
%ADD29RotRect,0.900000X1.200000X55.000000*%
%ADD30RotRect,2.600000X2.600000X35.000000*%
%ADD31RotRect,0.900000X1.200000X42.000000*%
%ADD32RotRect,0.900000X1.200000X138.000000*%
G04 APERTURE END LIST*
D10*
%TO.C,S38*%
X311257105Y-147957510D02*
X311015259Y-148621971D01*
X313158886Y-152035893D02*
X312494423Y-151794049D01*
X313976027Y-146689653D02*
X311257105Y-147957510D01*
X314640490Y-146931498D02*
X313976027Y-146689653D01*
X314640490Y-146931498D02*
X315029298Y-147765301D01*
X315243392Y-151063869D02*
X313158886Y-152035893D01*
X315745698Y-148071197D02*
X319805956Y-146177868D01*
X317713877Y-152339297D02*
X317418047Y-151704879D01*
X319805956Y-146177868D02*
X320059527Y-146721652D01*
X321580953Y-149984361D02*
X321792261Y-150437515D01*
X321792261Y-150437515D02*
X317713877Y-152339297D01*
X315243392Y-151063869D02*
G75*
G02*
X317409595Y-151686755I771659J-1394543D01*
G01*
X315745698Y-148071197D02*
G75*
G02*
X315029300Y-147765300I-205251J511146D01*
G01*
%TO.C,S2*%
X83830406Y-112896089D02*
X83588562Y-112231627D01*
X85732188Y-108817704D02*
X85067725Y-109059549D01*
X85914914Y-113868111D02*
X83830406Y-112896089D01*
X86525878Y-116580439D02*
X86821711Y-115946024D01*
X88451112Y-110085560D02*
X85732188Y-108817704D01*
X88530310Y-112329246D02*
X92590568Y-114222575D01*
X88692956Y-110750022D02*
X88304146Y-111583825D01*
X88692956Y-110750022D02*
X88451112Y-110085560D01*
X90604262Y-118482221D02*
X86525878Y-116580439D01*
X90815571Y-118029067D02*
X90604262Y-118482221D01*
X92590568Y-114222575D02*
X92336996Y-114766359D01*
X85914914Y-113868111D02*
G75*
G02*
X86830162Y-115927896I-572266J-1487515D01*
G01*
X88530310Y-112329246D02*
G75*
G02*
X88304146Y-111583825I259628J485792D01*
G01*
%TO.C,S21*%
X152888131Y-135167831D02*
X152646287Y-134503369D01*
X154789913Y-131089446D02*
X154125450Y-131331291D01*
X154972639Y-136139853D02*
X152888131Y-135167831D01*
X155583603Y-138852181D02*
X155879436Y-138217766D01*
X157508837Y-132357302D02*
X154789913Y-131089446D01*
X157588035Y-134600988D02*
X161648293Y-136494317D01*
X157750681Y-133021764D02*
X157361871Y-133855567D01*
X157750681Y-133021764D02*
X157508837Y-132357302D01*
X159661987Y-140753963D02*
X155583603Y-138852181D01*
X159873296Y-140300809D02*
X159661987Y-140753963D01*
X161648293Y-136494317D02*
X161394721Y-137038101D01*
X154972639Y-136139853D02*
G75*
G02*
X155887887Y-138199638I-572266J-1487515D01*
G01*
X157588035Y-134600988D02*
G75*
G02*
X157361871Y-133855567I259628J485792D01*
G01*
%TO.C,S30*%
X340503240Y-125492797D02*
X340261394Y-126157258D01*
X342405021Y-129571180D02*
X341740558Y-129329336D01*
X343222162Y-124224940D02*
X340503240Y-125492797D01*
X343886625Y-124466785D02*
X343222162Y-124224940D01*
X343886625Y-124466785D02*
X344275433Y-125300588D01*
X344489527Y-128599156D02*
X342405021Y-129571180D01*
X344991833Y-125606484D02*
X349052091Y-123713155D01*
X346960012Y-129874584D02*
X346664182Y-129240166D01*
X349052091Y-123713155D02*
X349305662Y-124256939D01*
X350827088Y-127519648D02*
X351038396Y-127972802D01*
X351038396Y-127972802D02*
X346960012Y-129874584D01*
X344489527Y-128599156D02*
G75*
G02*
X346655730Y-129222042I771659J-1394543D01*
G01*
X344991833Y-125606484D02*
G75*
G02*
X344275435Y-125300587I-205251J511146D01*
G01*
D11*
%TO.C,D49*%
X283513274Y-151460790D02*
X284238322Y-151122696D01*
X283875797Y-151291744D02*
X283664488Y-150838590D01*
X284129368Y-151835528D02*
X283513274Y-151460790D01*
X284129368Y-151835528D02*
X283630899Y-152067970D01*
X284129368Y-151835528D02*
X284627839Y-151603089D01*
X284238322Y-151122696D02*
X284129368Y-151835528D01*
X284298416Y-152198052D02*
X284129368Y-151835528D01*
D10*
%TO.C,S6*%
X100143944Y-120503218D02*
X99902100Y-119838756D01*
X102045726Y-116424833D02*
X101381263Y-116666678D01*
X102228452Y-121475240D02*
X100143944Y-120503218D01*
X102839416Y-124187568D02*
X103135249Y-123553153D01*
X104764650Y-117692689D02*
X102045726Y-116424833D01*
X104843848Y-119936375D02*
X108904106Y-121829704D01*
X105006494Y-118357151D02*
X104617684Y-119190954D01*
X105006494Y-118357151D02*
X104764650Y-117692689D01*
X106917800Y-126089350D02*
X102839416Y-124187568D01*
X107129109Y-125636196D02*
X106917800Y-126089350D01*
X108904106Y-121829704D02*
X108650534Y-122373488D01*
X102228452Y-121475240D02*
G75*
G02*
X103143700Y-123535025I-572266J-1487515D01*
G01*
X104843848Y-119936375D02*
G75*
G02*
X104617684Y-119190954I259628J485792D01*
G01*
D11*
%TO.C,D50*%
X276328763Y-136053556D02*
X277053811Y-135715462D01*
X276691286Y-135884510D02*
X276479977Y-135431356D01*
X276944857Y-136428294D02*
X276328763Y-136053556D01*
X276944857Y-136428294D02*
X276446388Y-136660736D01*
X276944857Y-136428294D02*
X277443328Y-136195855D01*
X277053811Y-135715462D02*
X276944857Y-136428294D01*
X277113905Y-136790818D02*
X276944857Y-136428294D01*
D10*
%TO.C,S5*%
X92959438Y-135910451D02*
X92717594Y-135245989D01*
X94861220Y-131832066D02*
X94196757Y-132073911D01*
X95043946Y-136882473D02*
X92959438Y-135910451D01*
X95654910Y-139594801D02*
X95950743Y-138960386D01*
X97580144Y-133099922D02*
X94861220Y-131832066D01*
X97659342Y-135343608D02*
X101719600Y-137236937D01*
X97821988Y-133764384D02*
X97433178Y-134598187D01*
X97821988Y-133764384D02*
X97580144Y-133099922D01*
X99733294Y-141496583D02*
X95654910Y-139594801D01*
X99944603Y-141043429D02*
X99733294Y-141496583D01*
X101719600Y-137236937D02*
X101466028Y-137780721D01*
X95043946Y-136882473D02*
G75*
G02*
X95959194Y-138942258I-572266J-1487515D01*
G01*
X97659342Y-135343608D02*
G75*
G02*
X97433178Y-134598187I259628J485792D01*
G01*
D11*
%TO.C,D32*%
X338201981Y-98374580D02*
X338927029Y-98036486D01*
X338564504Y-98205534D02*
X338353195Y-97752380D01*
X338818075Y-98749318D02*
X338201981Y-98374580D01*
X338818075Y-98749318D02*
X338319606Y-98981760D01*
X338818075Y-98749318D02*
X339316546Y-98516879D01*
X338927029Y-98036486D02*
X338818075Y-98749318D01*
X338987123Y-99111842D02*
X338818075Y-98749318D01*
D10*
%TO.C,S57*%
X259332444Y-178777354D02*
X259369451Y-179483491D01*
X261339836Y-176547918D02*
X259332444Y-178777354D01*
X262045973Y-176510912D02*
X261339836Y-176547918D01*
X262045973Y-176510912D02*
X262729666Y-177126512D01*
X262676597Y-181788441D02*
X261970458Y-181825447D01*
X263508638Y-177128172D02*
X266506344Y-173798884D01*
X264215595Y-180079211D02*
X262676597Y-181788441D01*
X266506344Y-173798884D02*
X266952230Y-174200362D01*
X266988036Y-180287949D02*
X266467835Y-179819558D01*
X269627552Y-176609232D02*
X269999124Y-176943796D01*
X269999124Y-176943796D02*
X266988036Y-180287949D01*
X263508638Y-177128172D02*
G75*
G02*
X262729666Y-177126512I-388656J390316D01*
G01*
X264215595Y-180079211D02*
G75*
G02*
X266452971Y-179806177I1255205J-982169D01*
G01*
D11*
%TO.C,D17*%
X151582840Y-118505022D02*
X151751888Y-118142498D01*
X151642937Y-117429670D02*
X152367982Y-117767760D01*
X151751888Y-118142498D02*
X151253417Y-117910059D01*
X151751888Y-118142498D02*
X151642937Y-117429670D01*
X151751888Y-118142498D02*
X152250356Y-118374939D01*
X152005458Y-117598711D02*
X152216768Y-117145560D01*
X152367982Y-117767760D02*
X151751888Y-118142498D01*
D10*
%TO.C,S58*%
X250536857Y-192670994D02*
X250414071Y-191974628D01*
X252420905Y-193990221D02*
X250536857Y-192670994D01*
X252551597Y-196767435D02*
X252953098Y-196194027D01*
X253117950Y-188984810D02*
X252421586Y-189107597D01*
X255263788Y-192928890D02*
X258933589Y-195498514D01*
X255575407Y-190705539D02*
X253117950Y-188984810D01*
X255698194Y-191401903D02*
X255170504Y-192155523D01*
X255698194Y-191401903D02*
X255575407Y-190705539D01*
X256237781Y-199348527D02*
X252551597Y-196767435D01*
X256524569Y-198938952D02*
X256237781Y-199348527D01*
X258933589Y-195498514D02*
X258589444Y-195990005D01*
X252420905Y-193990221D02*
G75*
G02*
X252964572Y-196177646I-821875J-1365545D01*
G01*
X255263788Y-192928890D02*
G75*
G02*
X255170504Y-192155523I340043J433326D01*
G01*
D11*
%TO.C,D29*%
X178720703Y-192250104D02*
X179376025Y-191791243D01*
X179048363Y-192020674D02*
X178761576Y-191611095D01*
X179376025Y-191791243D02*
X179392512Y-192512166D01*
X179392512Y-192512166D02*
X178720703Y-192250104D01*
X179392512Y-192512166D02*
X178941976Y-192827631D01*
X179392512Y-192512166D02*
X179843043Y-192196697D01*
X179621940Y-192839827D02*
X179392512Y-192512166D01*
D10*
%TO.C,S17*%
X144815646Y-109887703D02*
X144573802Y-109223241D01*
X146717428Y-105809318D02*
X146052965Y-106051163D01*
X146900154Y-110859725D02*
X144815646Y-109887703D01*
X147511118Y-113572053D02*
X147806951Y-112937638D01*
X149436352Y-107077174D02*
X146717428Y-105809318D01*
X149515550Y-109320860D02*
X153575808Y-111214189D01*
X149678196Y-107741636D02*
X149289386Y-108575439D01*
X149678196Y-107741636D02*
X149436352Y-107077174D01*
X151589502Y-115473835D02*
X147511118Y-113572053D01*
X151800811Y-115020681D02*
X151589502Y-115473835D01*
X153575808Y-111214189D02*
X153322236Y-111757973D01*
X146900154Y-110859725D02*
G75*
G02*
X147815402Y-112919510I-572266J-1487515D01*
G01*
X149515550Y-109320860D02*
G75*
G02*
X149289386Y-108575439I259628J485792D01*
G01*
%TO.C,S49*%
X271445518Y-147764539D02*
X271203672Y-148429000D01*
X273347299Y-151842922D02*
X272682836Y-151601078D01*
X274164440Y-146496682D02*
X271445518Y-147764539D01*
X274828903Y-146738527D02*
X274164440Y-146496682D01*
X274828903Y-146738527D02*
X275217711Y-147572330D01*
X275431805Y-150870898D02*
X273347299Y-151842922D01*
X275934111Y-147878226D02*
X279994369Y-145984897D01*
X277902290Y-152146326D02*
X277606460Y-151511908D01*
X279994369Y-145984897D02*
X280247940Y-146528681D01*
X281769366Y-149791390D02*
X281980674Y-150244544D01*
X281980674Y-150244544D02*
X277902290Y-152146326D01*
X275431805Y-150870898D02*
G75*
G02*
X277598008Y-151493784I771659J-1394543D01*
G01*
X275934111Y-147878226D02*
G75*
G02*
X275217713Y-147572329I-205251J511146D01*
G01*
%TO.C,S45*%
X279518002Y-122484406D02*
X279276156Y-123148867D01*
X281419783Y-126562789D02*
X280755320Y-126320945D01*
X282236924Y-121216549D02*
X279518002Y-122484406D01*
X282901387Y-121458394D02*
X282236924Y-121216549D01*
X282901387Y-121458394D02*
X283290195Y-122292197D01*
X283504289Y-125590765D02*
X281419783Y-126562789D01*
X284006595Y-122598093D02*
X288066853Y-120704764D01*
X285974774Y-126866193D02*
X285678944Y-126231775D01*
X288066853Y-120704764D02*
X288320424Y-121248548D01*
X289841850Y-124511257D02*
X290053158Y-124964411D01*
X290053158Y-124964411D02*
X285974774Y-126866193D01*
X283504289Y-125590765D02*
G75*
G02*
X285670492Y-126213651I771659J-1394543D01*
G01*
X284006595Y-122598093D02*
G75*
G02*
X283290197Y-122292196I-205251J511146D01*
G01*
D11*
%TO.C,D43*%
X305954776Y-156995121D02*
X306679824Y-156657027D01*
X306317299Y-156826075D02*
X306105990Y-156372921D01*
X306570870Y-157369859D02*
X305954776Y-156995121D01*
X306570870Y-157369859D02*
X306072401Y-157602301D01*
X306570870Y-157369859D02*
X307069341Y-157137420D01*
X306679824Y-156657027D02*
X306570870Y-157369859D01*
X306739918Y-157732383D02*
X306570870Y-157369859D01*
%TO.C,D11*%
X127028248Y-128570894D02*
X127197296Y-128208370D01*
X127088345Y-127495542D02*
X127813390Y-127833632D01*
X127197296Y-128208370D02*
X126698825Y-127975931D01*
X127197296Y-128208370D02*
X127088345Y-127495542D01*
X127197296Y-128208370D02*
X127695764Y-128440811D01*
X127450866Y-127664583D02*
X127662176Y-127211432D01*
X127813390Y-127833632D02*
X127197296Y-128208370D01*
%TO.C,D22*%
X166839838Y-128377919D02*
X167008886Y-128015395D01*
X166899935Y-127302567D02*
X167624980Y-127640657D01*
X167008886Y-128015395D02*
X166510415Y-127782956D01*
X167008886Y-128015395D02*
X166899935Y-127302567D01*
X167008886Y-128015395D02*
X167507354Y-128247836D01*
X167262456Y-127471608D02*
X167473766Y-127018457D01*
X167624980Y-127640657D02*
X167008886Y-128015395D01*
D10*
%TO.C,S28*%
X157085848Y-179559015D02*
X157122853Y-178852876D01*
X158127452Y-184003681D02*
X158647655Y-183535292D01*
X158624848Y-181268248D02*
X157085848Y-179559015D01*
X160429999Y-176547926D02*
X159723864Y-176510920D01*
X161138536Y-187347833D02*
X158127452Y-184003681D01*
X161510112Y-187013269D02*
X161138536Y-187347833D01*
X161633615Y-180873629D02*
X164631319Y-184202921D01*
X162400384Y-179483499D02*
X161716689Y-180099099D01*
X162400384Y-179483499D02*
X162437390Y-178777361D01*
X162437390Y-178777361D02*
X160429999Y-176547926D01*
X164631319Y-184202921D02*
X164185432Y-184604396D01*
X158624848Y-181268248D02*
G75*
G02*
X158662515Y-183521907I-1107996J-1145663D01*
G01*
X161633615Y-180873629D02*
G75*
G02*
X161716691Y-180099101I428804J345726D01*
G01*
D11*
%TO.C,D1*%
X83413089Y-136920636D02*
X83582137Y-136558112D01*
X83473186Y-135845284D02*
X84198231Y-136183374D01*
X83582137Y-136558112D02*
X83083666Y-136325673D01*
X83582137Y-136558112D02*
X83473186Y-135845284D01*
X83582137Y-136558112D02*
X84080605Y-136790553D01*
X83835707Y-136014325D02*
X84047017Y-135561174D01*
X84198231Y-136183374D02*
X83582137Y-136558112D01*
%TO.C,D18*%
X158767352Y-103097789D02*
X158936400Y-102735265D01*
X158827449Y-102022437D02*
X159552494Y-102360527D01*
X158936400Y-102735265D02*
X158437929Y-102502826D01*
X158936400Y-102735265D02*
X158827449Y-102022437D01*
X158936400Y-102735265D02*
X159434868Y-102967706D01*
X159189970Y-102191478D02*
X159401280Y-101738327D01*
X159552494Y-102360527D02*
X158936400Y-102735265D01*
D10*
%TO.C,S35*%
X317005187Y-117692691D02*
X316763341Y-118357152D01*
X318906968Y-121771074D02*
X318242505Y-121529230D01*
X319724109Y-116424834D02*
X317005187Y-117692691D01*
X320388572Y-116666679D02*
X319724109Y-116424834D01*
X320388572Y-116666679D02*
X320777380Y-117500482D01*
X320991474Y-120799050D02*
X318906968Y-121771074D01*
X321493780Y-117806378D02*
X325554038Y-115913049D01*
X323461959Y-122074478D02*
X323166129Y-121440060D01*
X325554038Y-115913049D02*
X325807609Y-116456833D01*
X327329035Y-119719542D02*
X327540343Y-120172696D01*
X327540343Y-120172696D02*
X323461959Y-122074478D01*
X320991474Y-120799050D02*
G75*
G02*
X323157677Y-121421936I771659J-1394543D01*
G01*
X321493780Y-117806378D02*
G75*
G02*
X320777382Y-117500481I-205251J511146D01*
G01*
D11*
%TO.C,D15*%
X137213823Y-149319479D02*
X137382871Y-148956955D01*
X137273920Y-148244127D02*
X137998965Y-148582217D01*
X137382871Y-148956955D02*
X136884400Y-148724516D01*
X137382871Y-148956955D02*
X137273920Y-148244127D01*
X137382871Y-148956955D02*
X137881339Y-149189396D01*
X137636441Y-148413168D02*
X137847751Y-147960017D01*
X137998965Y-148582217D02*
X137382871Y-148956955D01*
%TO.C,D26*%
X182096836Y-138250815D02*
X182265884Y-137888291D01*
X182156933Y-137175463D02*
X182881978Y-137513553D01*
X182265884Y-137888291D02*
X181767413Y-137655852D01*
X182265884Y-137888291D02*
X182156933Y-137175463D01*
X182265884Y-137888291D02*
X182764352Y-138120732D01*
X182519454Y-137344504D02*
X182730764Y-136891353D01*
X182881978Y-137513553D02*
X182265884Y-137888291D01*
D10*
%TO.C,S40*%
X296888086Y-117143050D02*
X296646240Y-117807511D01*
X298789867Y-121221433D02*
X298125404Y-120979589D01*
X299607008Y-115875193D02*
X296888086Y-117143050D01*
X300271471Y-116117038D02*
X299607008Y-115875193D01*
X300271471Y-116117038D02*
X300660279Y-116950841D01*
X300874373Y-120249409D02*
X298789867Y-121221433D01*
X301376679Y-117256737D02*
X305436937Y-115363408D01*
X303344858Y-121524837D02*
X303049028Y-120890419D01*
X305436937Y-115363408D02*
X305690508Y-115907192D01*
X307211934Y-119169901D02*
X307423242Y-119623055D01*
X307423242Y-119623055D02*
X303344858Y-121524837D01*
X300874373Y-120249409D02*
G75*
G02*
X303040576Y-120872295I771659J-1394543D01*
G01*
X301376679Y-117256737D02*
G75*
G02*
X300660281Y-116950840I-205251J511146D01*
G01*
%TO.C,S50*%
X264261005Y-132357309D02*
X264019159Y-133021770D01*
X266162786Y-136435692D02*
X265498323Y-136193848D01*
X266979927Y-131089452D02*
X264261005Y-132357309D01*
X267644390Y-131331297D02*
X266979927Y-131089452D01*
X267644390Y-131331297D02*
X268033198Y-132165100D01*
X268247292Y-135463668D02*
X266162786Y-136435692D01*
X268749598Y-132470996D02*
X272809856Y-130577667D01*
X270717777Y-136739096D02*
X270421947Y-136104678D01*
X272809856Y-130577667D02*
X273063427Y-131121451D01*
X274584853Y-134384160D02*
X274796161Y-134837314D01*
X274796161Y-134837314D02*
X270717777Y-136739096D01*
X268247292Y-135463668D02*
G75*
G02*
X270413495Y-136086554I771659J-1394543D01*
G01*
X268749598Y-132470996D02*
G75*
G02*
X268033200Y-132165099I-205251J511146D01*
G01*
D11*
%TO.C,D42*%
X294586823Y-90024831D02*
X295311871Y-89686737D01*
X294949346Y-89855785D02*
X294738037Y-89402631D01*
X295202917Y-90399569D02*
X294586823Y-90024831D01*
X295202917Y-90399569D02*
X294704448Y-90632011D01*
X295202917Y-90399569D02*
X295701388Y-90167130D01*
X295311871Y-89686737D02*
X295202917Y-90399569D01*
X295371965Y-90762093D02*
X295202917Y-90399569D01*
D10*
%TO.C,S44*%
X286702511Y-137891640D02*
X286460665Y-138556101D01*
X288604292Y-141970023D02*
X287939829Y-141728179D01*
X289421433Y-136623783D02*
X286702511Y-137891640D01*
X290085896Y-136865628D02*
X289421433Y-136623783D01*
X290085896Y-136865628D02*
X290474704Y-137699431D01*
X290688798Y-140997999D02*
X288604292Y-141970023D01*
X291191104Y-138005327D02*
X295251362Y-136111998D01*
X293159283Y-142273427D02*
X292863453Y-141639009D01*
X295251362Y-136111998D02*
X295504933Y-136655782D01*
X297026359Y-139918491D02*
X297237667Y-140371645D01*
X297237667Y-140371645D02*
X293159283Y-142273427D01*
X290688798Y-140997999D02*
G75*
G02*
X292855001Y-141620885I771659J-1394543D01*
G01*
X291191104Y-138005327D02*
G75*
G02*
X290474706Y-137699430I-205251J511146D01*
G01*
D11*
%TO.C,D27*%
X189281345Y-122843586D02*
X189450393Y-122481062D01*
X189341442Y-121768234D02*
X190066487Y-122106324D01*
X189450393Y-122481062D02*
X188951922Y-122248623D01*
X189450393Y-122481062D02*
X189341442Y-121768234D01*
X189450393Y-122481062D02*
X189948861Y-122713503D01*
X189703963Y-121937275D02*
X189915273Y-121484124D01*
X190066487Y-122106324D02*
X189450393Y-122481062D01*
D10*
%TO.C,S18*%
X152000154Y-94480471D02*
X151758310Y-93816009D01*
X153901936Y-90402086D02*
X153237473Y-90643931D01*
X154084662Y-95452493D02*
X152000154Y-94480471D01*
X154695626Y-98164821D02*
X154991459Y-97530406D01*
X156620860Y-91669942D02*
X153901936Y-90402086D01*
X156700058Y-93913628D02*
X160760316Y-95806957D01*
X156862704Y-92334404D02*
X156473894Y-93168207D01*
X156862704Y-92334404D02*
X156620860Y-91669942D01*
X158774010Y-100066603D02*
X154695626Y-98164821D01*
X158985319Y-99613449D02*
X158774010Y-100066603D01*
X160760316Y-95806957D02*
X160506744Y-96350741D01*
X154084662Y-95452493D02*
G75*
G02*
X154999910Y-97512278I-572266J-1487515D01*
G01*
X156700058Y-93913628D02*
G75*
G02*
X156473894Y-93168207I259628J485792D01*
G01*
D11*
%TO.C,D6*%
X106911143Y-129120538D02*
X107080191Y-128758014D01*
X106971240Y-128045186D02*
X107696285Y-128383276D01*
X107080191Y-128758014D02*
X106581720Y-128525575D01*
X107080191Y-128758014D02*
X106971240Y-128045186D01*
X107080191Y-128758014D02*
X107578659Y-128990455D01*
X107333761Y-128214227D02*
X107545071Y-127761076D01*
X107696285Y-128383276D02*
X107080191Y-128758014D01*
%TO.C,D16*%
X144398338Y-133912254D02*
X144567386Y-133549730D01*
X144458435Y-132836902D02*
X145183480Y-133174992D01*
X144567386Y-133549730D02*
X144068915Y-133317291D01*
X144567386Y-133549730D02*
X144458435Y-132836902D01*
X144567386Y-133549730D02*
X145065854Y-133782171D01*
X144820956Y-133005943D02*
X145032266Y-132552792D01*
X145183480Y-133174992D02*
X144567386Y-133549730D01*
D10*
%TO.C,S8*%
X114512968Y-89688750D02*
X114271124Y-89024288D01*
X116414750Y-85610365D02*
X115750287Y-85852210D01*
X116597476Y-90660772D02*
X114512968Y-89688750D01*
X117208440Y-93373100D02*
X117504273Y-92738685D01*
X119133674Y-86878221D02*
X116414750Y-85610365D01*
X119212872Y-89121907D02*
X123273130Y-91015236D01*
X119375518Y-87542683D02*
X118986708Y-88376486D01*
X119375518Y-87542683D02*
X119133674Y-86878221D01*
X121286824Y-95274882D02*
X117208440Y-93373100D01*
X121498133Y-94821728D02*
X121286824Y-95274882D01*
X123273130Y-91015236D02*
X123019558Y-91559020D01*
X116597476Y-90660772D02*
G75*
G02*
X117512724Y-92720557I-572266J-1487515D01*
G01*
X119212872Y-89121907D02*
G75*
G02*
X118986708Y-88376486I259628J485792D01*
G01*
D11*
%TO.C,D56*%
X246702751Y-115111995D02*
X247427799Y-114773901D01*
X247065274Y-114942949D02*
X246853965Y-114489795D01*
X247318845Y-115486733D02*
X246702751Y-115111995D01*
X247318845Y-115486733D02*
X246820376Y-115719175D01*
X247318845Y-115486733D02*
X247817316Y-115254294D01*
X247427799Y-114773901D02*
X247318845Y-115486733D01*
X247487893Y-115849257D02*
X247318845Y-115486733D01*
%TO.C,D3*%
X97782113Y-106106173D02*
X97951161Y-105743649D01*
X97842210Y-105030821D02*
X98567255Y-105368911D01*
X97951161Y-105743649D02*
X97452690Y-105511210D01*
X97951161Y-105743649D02*
X97842210Y-105030821D01*
X97951161Y-105743649D02*
X98449629Y-105976090D01*
X98204731Y-105199862D02*
X98416041Y-104746711D01*
X98567255Y-105368911D02*
X97951161Y-105743649D01*
%TO.C,D53*%
X268256279Y-161333692D02*
X268981327Y-160995598D01*
X268618802Y-161164646D02*
X268407493Y-160711492D01*
X268872373Y-161708430D02*
X268256279Y-161333692D01*
X268872373Y-161708430D02*
X268373904Y-161940872D01*
X268872373Y-161708430D02*
X269370844Y-161475991D01*
X268981327Y-160995598D02*
X268872373Y-161708430D01*
X269041421Y-162070954D02*
X268872373Y-161708430D01*
D10*
%TO.C,S23*%
X167257149Y-104353369D02*
X167015305Y-103688907D01*
X169158931Y-100274984D02*
X168494468Y-100516829D01*
X169341657Y-105325391D02*
X167257149Y-104353369D01*
X169952621Y-108037719D02*
X170248454Y-107403304D01*
X171877855Y-101542840D02*
X169158931Y-100274984D01*
X171957053Y-103786526D02*
X176017311Y-105679855D01*
X172119699Y-102207302D02*
X171730889Y-103041105D01*
X172119699Y-102207302D02*
X171877855Y-101542840D01*
X174031005Y-109939501D02*
X169952621Y-108037719D01*
X174242314Y-109486347D02*
X174031005Y-109939501D01*
X176017311Y-105679855D02*
X175763739Y-106223639D01*
X169341657Y-105325391D02*
G75*
G02*
X170256905Y-107385176I-572266J-1487515D01*
G01*
X171957053Y-103786526D02*
G75*
G02*
X171730889Y-103041105I259628J485792D01*
G01*
%TO.C,S56*%
X234634990Y-111415740D02*
X234393144Y-112080201D01*
X236536771Y-115494123D02*
X235872308Y-115252279D01*
X237353912Y-110147883D02*
X234634990Y-111415740D01*
X238018375Y-110389728D02*
X237353912Y-110147883D01*
X238018375Y-110389728D02*
X238407183Y-111223531D01*
X238621277Y-114522099D02*
X236536771Y-115494123D01*
X239123583Y-111529427D02*
X243183841Y-109636098D01*
X241091762Y-115797527D02*
X240795932Y-115163109D01*
X243183841Y-109636098D02*
X243437412Y-110179882D01*
X244958838Y-113442591D02*
X245170146Y-113895745D01*
X245170146Y-113895745D02*
X241091762Y-115797527D01*
X238621277Y-114522099D02*
G75*
G02*
X240787480Y-115144985I771659J-1394543D01*
G01*
X239123583Y-111529427D02*
G75*
G02*
X238407185Y-111223530I-205251J511146D01*
G01*
D11*
%TO.C,D4*%
X104966623Y-90698945D02*
X105135671Y-90336421D01*
X105026720Y-89623593D02*
X105751765Y-89961683D01*
X105135671Y-90336421D02*
X104637200Y-90103982D01*
X105135671Y-90336421D02*
X105026720Y-89623593D01*
X105135671Y-90336421D02*
X105634139Y-90568862D01*
X105389241Y-89792634D02*
X105600551Y-89339483D01*
X105751765Y-89961683D02*
X105135671Y-90336421D01*
%TO.C,D30*%
X352570997Y-129189043D02*
X353296045Y-128850949D01*
X352933520Y-129019997D02*
X352722211Y-128566843D01*
X353187091Y-129563781D02*
X352570997Y-129189043D01*
X353187091Y-129563781D02*
X352688622Y-129796223D01*
X353187091Y-129563781D02*
X353685562Y-129331342D01*
X353296045Y-128850949D02*
X353187091Y-129563781D01*
X353356139Y-129926305D02*
X353187091Y-129563781D01*
%TO.C,D25*%
X174912322Y-153658053D02*
X175081370Y-153295529D01*
X174972419Y-152582701D02*
X175697464Y-152920791D01*
X175081370Y-153295529D02*
X174582899Y-153063090D01*
X175081370Y-153295529D02*
X174972419Y-152582701D01*
X175081370Y-153295529D02*
X175579838Y-153527970D01*
X175334940Y-152751742D02*
X175546250Y-152298591D01*
X175697464Y-152920791D02*
X175081370Y-153295529D01*
%TO.C,D40*%
X308955847Y-120839297D02*
X309680895Y-120501203D01*
X309318370Y-120670251D02*
X309107061Y-120217097D01*
X309571941Y-121214035D02*
X308955847Y-120839297D01*
X309571941Y-121214035D02*
X309073472Y-121446477D01*
X309571941Y-121214035D02*
X310070412Y-120981596D01*
X309680895Y-120501203D02*
X309571941Y-121214035D01*
X309740989Y-121576559D02*
X309571941Y-121214035D01*
D10*
%TO.C,S41*%
X289703578Y-101735814D02*
X289461732Y-102400275D01*
X291605359Y-105814197D02*
X290940896Y-105572353D01*
X292422500Y-100467957D02*
X289703578Y-101735814D01*
X293086963Y-100709802D02*
X292422500Y-100467957D01*
X293086963Y-100709802D02*
X293475771Y-101543605D01*
X293689865Y-104842173D02*
X291605359Y-105814197D01*
X294192171Y-101849501D02*
X298252429Y-99956172D01*
X296160350Y-106117601D02*
X295864520Y-105483183D01*
X298252429Y-99956172D02*
X298506000Y-100499956D01*
X300027426Y-103762665D02*
X300238734Y-104215819D01*
X300238734Y-104215819D02*
X296160350Y-106117601D01*
X293689865Y-104842173D02*
G75*
G02*
X295856068Y-105465059I771659J-1394543D01*
G01*
X294192171Y-101849501D02*
G75*
G02*
X293475773Y-101543604I-205251J511146D01*
G01*
%TO.C,S4*%
X98199424Y-82081621D02*
X97957580Y-81417159D01*
X100101206Y-78003236D02*
X99436743Y-78245081D01*
X100283932Y-83053643D02*
X98199424Y-82081621D01*
X100894896Y-85765971D02*
X101190729Y-85131556D01*
X102820130Y-79271092D02*
X100101206Y-78003236D01*
X102899328Y-81514778D02*
X106959586Y-83408107D01*
X103061974Y-79935554D02*
X102673164Y-80769357D01*
X103061974Y-79935554D02*
X102820130Y-79271092D01*
X104973280Y-87667753D02*
X100894896Y-85765971D01*
X105184589Y-87214599D02*
X104973280Y-87667753D01*
X106959586Y-83408107D02*
X106706014Y-83951891D01*
X100283932Y-83053643D02*
G75*
G02*
X101199180Y-85113428I-572266J-1487515D01*
G01*
X102899328Y-81514778D02*
G75*
G02*
X102673164Y-80769357I259628J485792D01*
G01*
%TO.C,S51*%
X257076491Y-116950079D02*
X256834645Y-117614540D01*
X258978272Y-121028462D02*
X258313809Y-120786618D01*
X259795413Y-115682222D02*
X257076491Y-116950079D01*
X260459876Y-115924067D02*
X259795413Y-115682222D01*
X260459876Y-115924067D02*
X260848684Y-116757870D01*
X261062778Y-120056438D02*
X258978272Y-121028462D01*
X261565084Y-117063766D02*
X265625342Y-115170437D01*
X263533263Y-121331866D02*
X263237433Y-120697448D01*
X265625342Y-115170437D02*
X265878913Y-115714221D01*
X267400339Y-118976930D02*
X267611647Y-119430084D01*
X267611647Y-119430084D02*
X263533263Y-121331866D01*
X261062778Y-120056438D02*
G75*
G02*
X263228981Y-120679324I771659J-1394543D01*
G01*
X261565084Y-117063766D02*
G75*
G02*
X260848686Y-116757869I-205251J511146D01*
G01*
D11*
%TO.C,D8*%
X121280164Y-98306078D02*
X121449212Y-97943554D01*
X121340261Y-97230726D02*
X122065306Y-97568816D01*
X121449212Y-97943554D02*
X120950741Y-97711115D01*
X121449212Y-97943554D02*
X121340261Y-97230726D01*
X121449212Y-97943554D02*
X121947680Y-98175995D01*
X121702782Y-97399767D02*
X121914092Y-96946616D01*
X122065306Y-97568816D02*
X121449212Y-97943554D01*
%TO.C,D14*%
X130029316Y-164726718D02*
X130198364Y-164364194D01*
X130089413Y-163651366D02*
X130814458Y-163989456D01*
X130198364Y-164364194D02*
X129699893Y-164131755D01*
X130198364Y-164364194D02*
X130089413Y-163651366D01*
X130198364Y-164364194D02*
X130696832Y-164596635D01*
X130451934Y-163820407D02*
X130663244Y-163367256D01*
X130814458Y-163989456D02*
X130198364Y-164364194D01*
%TO.C,D31*%
X345386493Y-113781812D02*
X346111541Y-113443718D01*
X345749016Y-113612766D02*
X345537707Y-113159612D01*
X346002587Y-114156550D02*
X345386493Y-113781812D01*
X346002587Y-114156550D02*
X345504118Y-114388992D01*
X346002587Y-114156550D02*
X346501058Y-113924111D01*
X346111541Y-113443718D02*
X346002587Y-114156550D01*
X346171635Y-114519074D02*
X346002587Y-114156550D01*
%TO.C,D51*%
X269144255Y-120646322D02*
X269869303Y-120308228D01*
X269506778Y-120477276D02*
X269295469Y-120024122D01*
X269760349Y-121021060D02*
X269144255Y-120646322D01*
X269760349Y-121021060D02*
X269261880Y-121253502D01*
X269760349Y-121021060D02*
X270258820Y-120788621D01*
X269869303Y-120308228D02*
X269760349Y-121021060D01*
X269929397Y-121383584D02*
X269760349Y-121021060D01*
D10*
%TO.C,S22*%
X160072640Y-119760601D02*
X159830796Y-119096139D01*
X161974422Y-115682216D02*
X161309959Y-115924061D01*
X162157148Y-120732623D02*
X160072640Y-119760601D01*
X162768112Y-123444951D02*
X163063945Y-122810536D01*
X164693346Y-116950072D02*
X161974422Y-115682216D01*
X164772544Y-119193758D02*
X168832802Y-121087087D01*
X164935190Y-117614534D02*
X164546380Y-118448337D01*
X164935190Y-117614534D02*
X164693346Y-116950072D01*
X166846496Y-125346733D02*
X162768112Y-123444951D01*
X167057805Y-124893579D02*
X166846496Y-125346733D01*
X168832802Y-121087087D02*
X168579230Y-121630871D01*
X162157148Y-120732623D02*
G75*
G02*
X163072396Y-122792408I-572266J-1487515D01*
G01*
X164772544Y-119193758D02*
G75*
G02*
X164546380Y-118448337I259628J485792D01*
G01*
D11*
%TO.C,D36*%
X321888439Y-105981712D02*
X322613487Y-105643618D01*
X322250962Y-105812666D02*
X322039653Y-105359512D01*
X322504533Y-106356450D02*
X321888439Y-105981712D01*
X322504533Y-106356450D02*
X322006064Y-106588892D01*
X322504533Y-106356450D02*
X323003004Y-106124011D01*
X322613487Y-105643618D02*
X322504533Y-106356450D01*
X322673581Y-106718974D02*
X322504533Y-106356450D01*
D10*
%TO.C,S19*%
X138519104Y-165982300D02*
X138277260Y-165317838D01*
X140420886Y-161903915D02*
X139756423Y-162145760D01*
X140603612Y-166954322D02*
X138519104Y-165982300D01*
X141214576Y-169666650D02*
X141510409Y-169032235D01*
X143139810Y-163171771D02*
X140420886Y-161903915D01*
X143219008Y-165415457D02*
X147279266Y-167308786D01*
X143381654Y-163836233D02*
X142992844Y-164670036D01*
X143381654Y-163836233D02*
X143139810Y-163171771D01*
X145292960Y-171568432D02*
X141214576Y-169666650D01*
X145504269Y-171115278D02*
X145292960Y-171568432D01*
X147279266Y-167308786D02*
X147025694Y-167852570D01*
X140603612Y-166954322D02*
G75*
G02*
X141518860Y-169014107I-572266J-1487515D01*
G01*
X143219008Y-165415457D02*
G75*
G02*
X142992844Y-164670036I259628J485792D01*
G01*
D11*
%TO.C,D54*%
X261071769Y-145926456D02*
X261796817Y-145588362D01*
X261434292Y-145757410D02*
X261222983Y-145304256D01*
X261687863Y-146301194D02*
X261071769Y-145926456D01*
X261687863Y-146301194D02*
X261189394Y-146533636D01*
X261687863Y-146301194D02*
X262186334Y-146068755D01*
X261796817Y-145588362D02*
X261687863Y-146301194D01*
X261856911Y-146663718D02*
X261687863Y-146301194D01*
D10*
%TO.C,S16*%
X137631136Y-125294939D02*
X137389292Y-124630477D01*
X139532918Y-121216554D02*
X138868455Y-121458399D01*
X139715644Y-126266961D02*
X137631136Y-125294939D01*
X140326608Y-128979289D02*
X140622441Y-128344874D01*
X142251842Y-122484410D02*
X139532918Y-121216554D01*
X142331040Y-124728096D02*
X146391298Y-126621425D01*
X142493686Y-123148872D02*
X142104876Y-123982675D01*
X142493686Y-123148872D02*
X142251842Y-122484410D01*
X144404992Y-130881071D02*
X140326608Y-128979289D01*
X144616301Y-130427917D02*
X144404992Y-130881071D01*
X146391298Y-126621425D02*
X146137726Y-127165209D01*
X139715644Y-126266961D02*
G75*
G02*
X140630892Y-128326746I-572266J-1487515D01*
G01*
X142331040Y-124728096D02*
G75*
G02*
X142104876Y-123982675I259628J485792D01*
G01*
D11*
%TO.C,D24*%
X167727812Y-169065279D02*
X167896860Y-168702755D01*
X167787909Y-167989927D02*
X168512954Y-168328017D01*
X167896860Y-168702755D02*
X167398389Y-168470316D01*
X167896860Y-168702755D02*
X167787909Y-167989927D01*
X167896860Y-168702755D02*
X168395328Y-168935196D01*
X168150430Y-168158968D02*
X168361740Y-167705817D01*
X168512954Y-168328017D02*
X167896860Y-168702755D01*
D10*
%TO.C,S9*%
X105892033Y-150768046D02*
X105650189Y-150103584D01*
X107793815Y-146689661D02*
X107129352Y-146931506D01*
X107976541Y-151740068D02*
X105892033Y-150768046D01*
X108587505Y-154452396D02*
X108883338Y-153817981D01*
X110512739Y-147957517D02*
X107793815Y-146689661D01*
X110591937Y-150201203D02*
X114652195Y-152094532D01*
X110754583Y-148621979D02*
X110365773Y-149455782D01*
X110754583Y-148621979D02*
X110512739Y-147957517D01*
X112665889Y-156354178D02*
X108587505Y-154452396D01*
X112877198Y-155901024D02*
X112665889Y-156354178D01*
X114652195Y-152094532D02*
X114398623Y-152638316D01*
X107976541Y-151740068D02*
G75*
G02*
X108891789Y-153799853I-572266J-1487515D01*
G01*
X110591937Y-150201203D02*
G75*
G02*
X110365773Y-149455782I259628J485792D01*
G01*
D11*
%TO.C,D58*%
X255704867Y-202332509D02*
X255934297Y-202004852D01*
X255934297Y-202004852D02*
X255483766Y-201689380D01*
X255934297Y-202004852D02*
X255950785Y-201283925D01*
X255934297Y-202004852D02*
X256384833Y-202320314D01*
X255950785Y-201283925D02*
X256606104Y-201742788D01*
X256278446Y-201513357D02*
X256565235Y-201103779D01*
X256606104Y-201742788D02*
X255934297Y-202004852D01*
%TO.C,D19*%
X145286308Y-174599612D02*
X145455356Y-174237088D01*
X145346405Y-173524260D02*
X146071450Y-173862350D01*
X145455356Y-174237088D02*
X144956885Y-174004649D01*
X145455356Y-174237088D02*
X145346405Y-173524260D01*
X145455356Y-174237088D02*
X145953824Y-174469529D01*
X145708926Y-173693301D02*
X145920236Y-173240150D01*
X146071450Y-173862350D02*
X145455356Y-174237088D01*
D10*
%TO.C,S26*%
X175329631Y-129633499D02*
X175087787Y-128969037D01*
X177231413Y-125555114D02*
X176566950Y-125796959D01*
X177414139Y-130605521D02*
X175329631Y-129633499D01*
X178025103Y-133317849D02*
X178320936Y-132683434D01*
X179950337Y-126822970D02*
X177231413Y-125555114D01*
X180029535Y-129066656D02*
X184089793Y-130959985D01*
X180192181Y-127487432D02*
X179803371Y-128321235D01*
X180192181Y-127487432D02*
X179950337Y-126822970D01*
X182103487Y-135219631D02*
X178025103Y-133317849D01*
X182314796Y-134766477D02*
X182103487Y-135219631D01*
X184089793Y-130959985D02*
X183836221Y-131503769D01*
X177414139Y-130605521D02*
G75*
G02*
X178329387Y-132665306I-572266J-1487515D01*
G01*
X180029535Y-129066656D02*
G75*
G02*
X179803371Y-128321235I259628J485792D01*
G01*
%TO.C,S29*%
X166194430Y-190705543D02*
X166071641Y-191401908D01*
X168651888Y-188984814D02*
X166194430Y-190705543D01*
X168775524Y-194391727D02*
X168079160Y-194268938D01*
X169348252Y-189107602D02*
X168651888Y-188984814D01*
X169348252Y-189107602D02*
X169875941Y-189861221D01*
X170634574Y-190038070D02*
X174304374Y-187468446D01*
X170659574Y-193072501D02*
X168775524Y-194391727D01*
X173314001Y-193899555D02*
X172912499Y-193326149D01*
X174304374Y-187468446D02*
X174648522Y-187959937D01*
X176713392Y-190908885D02*
X177000185Y-191318460D01*
X177000185Y-191318460D02*
X173314001Y-193899555D01*
X170634574Y-190038070D02*
G75*
G02*
X169875942Y-189861220I-290891J467742D01*
G01*
X170659574Y-193072501D02*
G75*
G02*
X172901025Y-193309767I1002092J-1239366D01*
G01*
%TO.C,S39*%
X304072598Y-132550279D02*
X303830752Y-133214740D01*
X305974379Y-136628662D02*
X305309916Y-136386818D01*
X306791520Y-131282422D02*
X304072598Y-132550279D01*
X307455983Y-131524267D02*
X306791520Y-131282422D01*
X307455983Y-131524267D02*
X307844791Y-132358070D01*
X308058885Y-135656638D02*
X305974379Y-136628662D01*
X308561191Y-132663966D02*
X312621449Y-130770637D01*
X310529370Y-136932066D02*
X310233540Y-136297648D01*
X312621449Y-130770637D02*
X312875020Y-131314421D01*
X314396446Y-134577130D02*
X314607754Y-135030284D01*
X314607754Y-135030284D02*
X310529370Y-136932066D01*
X308058885Y-135656638D02*
G75*
G02*
X310225088Y-136279524I771659J-1394543D01*
G01*
X308561191Y-132663966D02*
G75*
G02*
X307844793Y-132358069I-205251J511146D01*
G01*
D11*
%TO.C,D12*%
X134212758Y-113163663D02*
X134381806Y-112801139D01*
X134272855Y-112088311D02*
X134997900Y-112426401D01*
X134381806Y-112801139D02*
X133883335Y-112568700D01*
X134381806Y-112801139D02*
X134272855Y-112088311D01*
X134381806Y-112801139D02*
X134880274Y-113033580D01*
X134635376Y-112257352D02*
X134846686Y-111804201D01*
X134997900Y-112426401D02*
X134381806Y-112801139D01*
%TO.C,D46*%
X284401245Y-110773427D02*
X285126293Y-110435333D01*
X284763768Y-110604381D02*
X284552459Y-110151227D01*
X285017339Y-111148165D02*
X284401245Y-110773427D01*
X285017339Y-111148165D02*
X284518870Y-111380607D01*
X285017339Y-111148165D02*
X285515810Y-110915726D01*
X285126293Y-110435333D02*
X285017339Y-111148165D01*
X285186387Y-111510689D02*
X285017339Y-111148165D01*
%TO.C,D23*%
X174024344Y-112970687D02*
X174193392Y-112608163D01*
X174084441Y-111895335D02*
X174809486Y-112233425D01*
X174193392Y-112608163D02*
X173694921Y-112375724D01*
X174193392Y-112608163D02*
X174084441Y-111895335D01*
X174193392Y-112608163D02*
X174691860Y-112840604D01*
X174446962Y-112064376D02*
X174658272Y-111611225D01*
X174809486Y-112233425D02*
X174193392Y-112608163D01*
D10*
%TO.C,S34*%
X324189701Y-133099918D02*
X323947855Y-133764379D01*
X326091482Y-137178301D02*
X325427019Y-136936457D01*
X326908623Y-131832061D02*
X324189701Y-133099918D01*
X327573086Y-132073906D02*
X326908623Y-131832061D01*
X327573086Y-132073906D02*
X327961894Y-132907709D01*
X328175988Y-136206277D02*
X326091482Y-137178301D01*
X328678294Y-133213605D02*
X332738552Y-131320276D01*
X330646473Y-137481705D02*
X330350643Y-136847287D01*
X332738552Y-131320276D02*
X332992123Y-131864060D01*
X334513549Y-135126769D02*
X334724857Y-135579923D01*
X334724857Y-135579923D02*
X330646473Y-137481705D01*
X328175988Y-136206277D02*
G75*
G02*
X330342191Y-136829163I771659J-1394543D01*
G01*
X328678294Y-133213605D02*
G75*
G02*
X327961896Y-132907708I-205251J511146D01*
G01*
%TO.C,S25*%
X168145126Y-145040735D02*
X167903282Y-144376273D01*
X170046908Y-140962350D02*
X169382445Y-141204195D01*
X170229634Y-146012757D02*
X168145126Y-145040735D01*
X170840598Y-148725085D02*
X171136431Y-148090670D01*
X172765832Y-142230206D02*
X170046908Y-140962350D01*
X172845030Y-144473892D02*
X176905288Y-146367221D01*
X173007676Y-142894668D02*
X172618866Y-143728471D01*
X173007676Y-142894668D02*
X172765832Y-142230206D01*
X174918982Y-150626867D02*
X170840598Y-148725085D01*
X175130291Y-150173713D02*
X174918982Y-150626867D01*
X176905288Y-146367221D02*
X176651716Y-146911005D01*
X170229634Y-146012757D02*
G75*
G02*
X171144882Y-148072542I-572266J-1487515D01*
G01*
X172845030Y-144473892D02*
G75*
G02*
X172618866Y-143728471I259628J485792D01*
G01*
%TO.C,S42*%
X282519062Y-86328586D02*
X282277216Y-86993047D01*
X284420843Y-90406969D02*
X283756380Y-90165125D01*
X285237984Y-85060729D02*
X282519062Y-86328586D01*
X285902447Y-85302574D02*
X285237984Y-85060729D01*
X285902447Y-85302574D02*
X286291255Y-86136377D01*
X286505349Y-89434945D02*
X284420843Y-90406969D01*
X287007655Y-86442273D02*
X291067913Y-84548944D01*
X288975834Y-90710373D02*
X288680004Y-90075955D01*
X291067913Y-84548944D02*
X291321484Y-85092728D01*
X292842910Y-88355437D02*
X293054218Y-88808591D01*
X293054218Y-88808591D02*
X288975834Y-90710373D01*
X286505349Y-89434945D02*
G75*
G02*
X288671552Y-90057831I771659J-1394543D01*
G01*
X287007655Y-86442273D02*
G75*
G02*
X286291257Y-86136376I-205251J511146D01*
G01*
D11*
%TO.C,D10*%
X119843736Y-143978135D02*
X120012784Y-143615611D01*
X119903833Y-142902783D02*
X120628878Y-143240873D01*
X120012784Y-143615611D02*
X119514313Y-143383172D01*
X120012784Y-143615611D02*
X119903833Y-142902783D01*
X120012784Y-143615611D02*
X120511252Y-143848052D01*
X120266354Y-143071824D02*
X120477664Y-142618673D01*
X120628878Y-143240873D02*
X120012784Y-143615611D01*
D10*
%TO.C,S52*%
X249891983Y-101542846D02*
X249650137Y-102207307D01*
X251793764Y-105621229D02*
X251129301Y-105379385D01*
X252610905Y-100274989D02*
X249891983Y-101542846D01*
X253275368Y-100516834D02*
X252610905Y-100274989D01*
X253275368Y-100516834D02*
X253664176Y-101350637D01*
X253878270Y-104649205D02*
X251793764Y-105621229D01*
X254380576Y-101656533D02*
X258440834Y-99763204D01*
X256348755Y-105924633D02*
X256052925Y-105290215D01*
X258440834Y-99763204D02*
X258694405Y-100306988D01*
X260215831Y-103569697D02*
X260427139Y-104022851D01*
X260427139Y-104022851D02*
X256348755Y-105924633D01*
X253878270Y-104649205D02*
G75*
G02*
X256044473Y-105272091I771659J-1394543D01*
G01*
X254380576Y-101656533D02*
G75*
G02*
X253664178Y-101350636I-205251J511146D01*
G01*
%TO.C,S32*%
X326134218Y-94678333D02*
X325892372Y-95342794D01*
X328035999Y-98756716D02*
X327371536Y-98514872D01*
X328853140Y-93410476D02*
X326134218Y-94678333D01*
X329517603Y-93652321D02*
X328853140Y-93410476D01*
X329517603Y-93652321D02*
X329906411Y-94486124D01*
X330120505Y-97784692D02*
X328035999Y-98756716D01*
X330622811Y-94792020D02*
X334683069Y-92898691D01*
X332590990Y-99060120D02*
X332295160Y-98425702D01*
X334683069Y-92898691D02*
X334936640Y-93442475D01*
X336458066Y-96705184D02*
X336669374Y-97158338D01*
X336669374Y-97158338D02*
X332590990Y-99060120D01*
X330120505Y-97784692D02*
G75*
G02*
X332286708Y-98407578I771659J-1394543D01*
G01*
X330622811Y-94792020D02*
G75*
G02*
X329906413Y-94486123I-205251J511146D01*
G01*
%TO.C,S24*%
X160960611Y-160447968D02*
X160718767Y-159783506D01*
X162862393Y-156369583D02*
X162197930Y-156611428D01*
X163045119Y-161419990D02*
X160960611Y-160447968D01*
X163656083Y-164132318D02*
X163951916Y-163497903D01*
X165581317Y-157637439D02*
X162862393Y-156369583D01*
X165660515Y-159881125D02*
X169720773Y-161774454D01*
X165823161Y-158301901D02*
X165434351Y-159135704D01*
X165823161Y-158301901D02*
X165581317Y-157637439D01*
X167734467Y-166034100D02*
X163656083Y-164132318D01*
X167945776Y-165580946D02*
X167734467Y-166034100D01*
X169720773Y-161774454D02*
X169467201Y-162318238D01*
X163045119Y-161419990D02*
G75*
G02*
X163960367Y-163479775I-572266J-1487515D01*
G01*
X165660515Y-159881125D02*
G75*
G02*
X165434351Y-159135704I259628J485792D01*
G01*
D11*
%TO.C,D28*%
X159948028Y-190135452D02*
X160245286Y-189867800D01*
X160245286Y-189867800D02*
X159877260Y-189459070D01*
X160245286Y-189867800D02*
X160423521Y-189169062D01*
X160245286Y-189867800D02*
X160613310Y-190276526D01*
X160423521Y-189169062D02*
X160958827Y-189763578D01*
X160691171Y-189466323D02*
X161062748Y-189131754D01*
X160958827Y-189763578D02*
X160245286Y-189867800D01*
%TO.C,D41*%
X301771337Y-105432066D02*
X302496385Y-105093972D01*
X302133860Y-105263020D02*
X301922551Y-104809866D01*
X302387431Y-105806804D02*
X301771337Y-105432066D01*
X302387431Y-105806804D02*
X301888962Y-106039246D01*
X302387431Y-105806804D02*
X302885902Y-105574365D01*
X302496385Y-105093972D02*
X302387431Y-105806804D01*
X302556479Y-106169328D02*
X302387431Y-105806804D01*
%TO.C,D39*%
X316140353Y-136246528D02*
X316865401Y-135908434D01*
X316502876Y-136077482D02*
X316291567Y-135624328D01*
X316756447Y-136621266D02*
X316140353Y-136246528D01*
X316756447Y-136621266D02*
X316257978Y-136853708D01*
X316756447Y-136621266D02*
X317254918Y-136388827D01*
X316865401Y-135908434D02*
X316756447Y-136621266D01*
X316925495Y-136983790D02*
X316756447Y-136621266D01*
D10*
%TO.C,S47*%
X265148977Y-91669939D02*
X264907131Y-92334400D01*
X267050758Y-95748322D02*
X266386295Y-95506478D01*
X267867899Y-90402082D02*
X265148977Y-91669939D01*
X268532362Y-90643927D02*
X267867899Y-90402082D01*
X268532362Y-90643927D02*
X268921170Y-91477730D01*
X269135264Y-94776298D02*
X267050758Y-95748322D01*
X269637570Y-91783626D02*
X273697828Y-89890297D01*
X271605749Y-96051726D02*
X271309919Y-95417308D01*
X273697828Y-89890297D02*
X273951399Y-90434081D01*
X275472825Y-93696790D02*
X275684133Y-94149944D01*
X275684133Y-94149944D02*
X271605749Y-96051726D01*
X269135264Y-94776298D02*
G75*
G02*
X271301467Y-95399184I771659J-1394543D01*
G01*
X269637570Y-91783626D02*
G75*
G02*
X268921172Y-91477729I-205251J511146D01*
G01*
%TO.C,S53*%
X256188527Y-157637432D02*
X255946681Y-158301893D01*
X258090308Y-161715815D02*
X257425845Y-161473971D01*
X258907449Y-156369575D02*
X256188527Y-157637432D01*
X259571912Y-156611420D02*
X258907449Y-156369575D01*
X259571912Y-156611420D02*
X259960720Y-157445223D01*
X260174814Y-160743791D02*
X258090308Y-161715815D01*
X260677120Y-157751119D02*
X264737378Y-155857790D01*
X262645299Y-162019219D02*
X262349469Y-161384801D01*
X264737378Y-155857790D02*
X264990949Y-156401574D01*
X266512375Y-159664283D02*
X266723683Y-160117437D01*
X266723683Y-160117437D02*
X262645299Y-162019219D01*
X260174814Y-160743791D02*
G75*
G02*
X262341017Y-161366677I771659J-1394543D01*
G01*
X260677120Y-157751119D02*
G75*
G02*
X259960722Y-157445222I-205251J511146D01*
G01*
%TO.C,S12*%
X127445564Y-104546344D02*
X127203720Y-103881882D01*
X129347346Y-100467959D02*
X128682883Y-100709804D01*
X129530072Y-105518366D02*
X127445564Y-104546344D01*
X130141036Y-108230694D02*
X130436869Y-107596279D01*
X132066270Y-101735815D02*
X129347346Y-100467959D01*
X132145468Y-103979501D02*
X136205726Y-105872830D01*
X132308114Y-102400277D02*
X131919304Y-103234080D01*
X132308114Y-102400277D02*
X132066270Y-101735815D01*
X134219420Y-110132476D02*
X130141036Y-108230694D01*
X134430729Y-109679322D02*
X134219420Y-110132476D01*
X136205726Y-105872830D02*
X135952154Y-106416614D01*
X129530072Y-105518366D02*
G75*
G02*
X130445320Y-107578151I-572266J-1487515D01*
G01*
X132145468Y-103979501D02*
G75*
G02*
X131919304Y-103234080I259628J485792D01*
G01*
D11*
%TO.C,D45*%
X291585755Y-126180660D02*
X292310803Y-125842566D01*
X291948278Y-126011614D02*
X291736969Y-125558460D01*
X292201849Y-126555398D02*
X291585755Y-126180660D01*
X292201849Y-126555398D02*
X291703380Y-126787840D01*
X292201849Y-126555398D02*
X292700320Y-126322959D01*
X292310803Y-125842566D02*
X292201849Y-126555398D01*
X292370897Y-126917922D02*
X292201849Y-126555398D01*
%TO.C,D33*%
X331017469Y-82967351D02*
X331742517Y-82629257D01*
X331379992Y-82798305D02*
X331168683Y-82345151D01*
X331633563Y-83342089D02*
X331017469Y-82967351D01*
X331633563Y-83342089D02*
X331135094Y-83574531D01*
X331633563Y-83342089D02*
X332132034Y-83109650D01*
X331742517Y-82629257D02*
X331633563Y-83342089D01*
X331802611Y-83704613D02*
X331633563Y-83342089D01*
D10*
%TO.C,S11*%
X120261049Y-119953576D02*
X120019205Y-119289114D01*
X122162831Y-115875191D02*
X121498368Y-116117036D01*
X122345557Y-120925598D02*
X120261049Y-119953576D01*
X122956521Y-123637926D02*
X123252354Y-123003511D01*
X124881755Y-117143047D02*
X122162831Y-115875191D01*
X124960953Y-119386733D02*
X129021211Y-121280062D01*
X125123599Y-117807509D02*
X124734789Y-118641312D01*
X125123599Y-117807509D02*
X124881755Y-117143047D01*
X127034905Y-125539708D02*
X122956521Y-123637926D01*
X127246214Y-125086554D02*
X127034905Y-125539708D01*
X129021211Y-121280062D02*
X128767639Y-121823846D01*
X122345557Y-120925598D02*
G75*
G02*
X123260805Y-122985383I-572266J-1487515D01*
G01*
X124960953Y-119386733D02*
G75*
G02*
X124734789Y-118641312I259628J485792D01*
G01*
%TO.C,S37*%
X302636165Y-86878229D02*
X302394319Y-87542690D01*
X304537946Y-90956612D02*
X303873483Y-90714768D01*
X305355087Y-85610372D02*
X302636165Y-86878229D01*
X306019550Y-85852217D02*
X305355087Y-85610372D01*
X306019550Y-85852217D02*
X306408358Y-86686020D01*
X306622452Y-89984588D02*
X304537946Y-90956612D01*
X307124758Y-86991916D02*
X311185016Y-85098587D01*
X309092937Y-91260016D02*
X308797107Y-90625598D01*
X311185016Y-85098587D02*
X311438587Y-85642371D01*
X312960013Y-88905080D02*
X313171321Y-89358234D01*
X313171321Y-89358234D02*
X309092937Y-91260016D01*
X306622452Y-89984588D02*
G75*
G02*
X308788655Y-90607474I771659J-1394543D01*
G01*
X307124758Y-86991916D02*
G75*
G02*
X306408360Y-86686019I-205251J511146D01*
G01*
%TO.C,S3*%
X91014914Y-97488861D02*
X90773070Y-96824399D01*
X92916696Y-93410476D02*
X92252233Y-93652321D01*
X93099422Y-98460883D02*
X91014914Y-97488861D01*
X93710386Y-101173211D02*
X94006219Y-100538796D01*
X95635620Y-94678332D02*
X92916696Y-93410476D01*
X95714818Y-96922018D02*
X99775076Y-98815347D01*
X95877464Y-95342794D02*
X95488654Y-96176597D01*
X95877464Y-95342794D02*
X95635620Y-94678332D01*
X97788770Y-103074993D02*
X93710386Y-101173211D01*
X98000079Y-102621839D02*
X97788770Y-103074993D01*
X99775076Y-98815347D02*
X99521504Y-99359131D01*
X93099422Y-98460883D02*
G75*
G02*
X94014670Y-100520668I-572266J-1487515D01*
G01*
X95714818Y-96922018D02*
G75*
G02*
X95488654Y-96176597I259628J485792D01*
G01*
%TO.C,S15*%
X130446622Y-140702164D02*
X130204778Y-140037702D01*
X132348404Y-136623779D02*
X131683941Y-136865624D01*
X132531130Y-141674186D02*
X130446622Y-140702164D01*
X133142094Y-144386514D02*
X133437927Y-143752099D01*
X135067328Y-137891635D02*
X132348404Y-136623779D01*
X135146526Y-140135321D02*
X139206784Y-142028650D01*
X135309172Y-138556097D02*
X134920362Y-139389900D01*
X135309172Y-138556097D02*
X135067328Y-137891635D01*
X137220478Y-146288296D02*
X133142094Y-144386514D01*
X137431787Y-145835142D02*
X137220478Y-146288296D01*
X139206784Y-142028650D02*
X138953212Y-142572434D01*
X132531130Y-141674186D02*
G75*
G02*
X133446378Y-143733971I-572266J-1487515D01*
G01*
X135146526Y-140135321D02*
G75*
G02*
X134920362Y-139389900I259628J485792D01*
G01*
%TO.C,S43*%
X293887015Y-153298874D02*
X293645169Y-153963335D01*
X295788796Y-157377257D02*
X295124333Y-157135413D01*
X296605937Y-152031017D02*
X293887015Y-153298874D01*
X297270400Y-152272862D02*
X296605937Y-152031017D01*
X297270400Y-152272862D02*
X297659208Y-153106665D01*
X297873302Y-156405233D02*
X295788796Y-157377257D01*
X298375608Y-153412561D02*
X302435866Y-151519232D01*
X300343787Y-157680661D02*
X300047957Y-157046243D01*
X302435866Y-151519232D02*
X302689437Y-152063016D01*
X304210863Y-155325725D02*
X304422171Y-155778879D01*
X304422171Y-155778879D02*
X300343787Y-157680661D01*
X297873302Y-156405233D02*
G75*
G02*
X300039505Y-157028119I771659J-1394543D01*
G01*
X298375608Y-153412561D02*
G75*
G02*
X297659210Y-153106664I-205251J511146D01*
G01*
D11*
%TO.C,D48*%
X290697781Y-166868022D02*
X291422829Y-166529928D01*
X291060304Y-166698976D02*
X290848995Y-166245822D01*
X291313875Y-167242760D02*
X290697781Y-166868022D01*
X291313875Y-167242760D02*
X290815406Y-167475202D01*
X291313875Y-167242760D02*
X291812346Y-167010321D01*
X291422829Y-166529928D02*
X291313875Y-167242760D01*
X291482923Y-167605284D02*
X291313875Y-167242760D01*
D10*
%TO.C,S1*%
X76645899Y-128303324D02*
X76404055Y-127638862D01*
X78547681Y-124224939D02*
X77883218Y-124466784D01*
X78730407Y-129275346D02*
X76645899Y-128303324D01*
X79341371Y-131987674D02*
X79637204Y-131353259D01*
X81266605Y-125492795D02*
X78547681Y-124224939D01*
X81345803Y-127736481D02*
X85406061Y-129629810D01*
X81508449Y-126157257D02*
X81119639Y-126991060D01*
X81508449Y-126157257D02*
X81266605Y-125492795D01*
X83419755Y-133889456D02*
X79341371Y-131987674D01*
X83631064Y-133436302D02*
X83419755Y-133889456D01*
X85406061Y-129629810D02*
X85152489Y-130173594D01*
X78730407Y-129275346D02*
G75*
G02*
X79645655Y-131335131I-572266J-1487515D01*
G01*
X81345803Y-127736481D02*
G75*
G02*
X81119639Y-126991060I259628J485792D01*
G01*
D11*
%TO.C,D34*%
X336257459Y-136796173D02*
X336982507Y-136458079D01*
X336619982Y-136627127D02*
X336408673Y-136173973D01*
X336873553Y-137170911D02*
X336257459Y-136796173D01*
X336873553Y-137170911D02*
X336375084Y-137403353D01*
X336873553Y-137170911D02*
X337372024Y-136938472D01*
X336982507Y-136458079D02*
X336873553Y-137170911D01*
X337042601Y-137533435D02*
X336873553Y-137170911D01*
%TO.C,D47*%
X277216738Y-95366194D02*
X277941786Y-95028100D01*
X277579261Y-95197148D02*
X277367952Y-94743994D01*
X277832832Y-95740932D02*
X277216738Y-95366194D01*
X277832832Y-95740932D02*
X277334363Y-95973374D01*
X277832832Y-95740932D02*
X278331303Y-95508493D01*
X277941786Y-95028100D02*
X277832832Y-95740932D01*
X278001880Y-96103456D02*
X277832832Y-95740932D01*
D10*
%TO.C,S14*%
X123262112Y-156109408D02*
X123020268Y-155444946D01*
X125163894Y-152031023D02*
X124499431Y-152272868D01*
X125346620Y-157081430D02*
X123262112Y-156109408D01*
X125957584Y-159793758D02*
X126253417Y-159159343D01*
X127882818Y-153298879D02*
X125163894Y-152031023D01*
X127962016Y-155542565D02*
X132022274Y-157435894D01*
X128124662Y-153963341D02*
X127735852Y-154797144D01*
X128124662Y-153963341D02*
X127882818Y-153298879D01*
X130035968Y-161695540D02*
X125957584Y-159793758D01*
X130247277Y-161242386D02*
X130035968Y-161695540D01*
X132022274Y-157435894D02*
X131768702Y-157979678D01*
X125346620Y-157081430D02*
G75*
G02*
X126261868Y-159141215I-572266J-1487515D01*
G01*
X127962016Y-155542565D02*
G75*
G02*
X127735852Y-154797144I259628J485792D01*
G01*
D11*
%TO.C,D9*%
X112659230Y-159385354D02*
X112828278Y-159022830D01*
X112719327Y-158310002D02*
X113444372Y-158648092D01*
X112828278Y-159022830D02*
X112329807Y-158790391D01*
X112828278Y-159022830D02*
X112719327Y-158310002D01*
X112828278Y-159022830D02*
X113326746Y-159255271D01*
X113081848Y-158479043D02*
X113293158Y-158025892D01*
X113444372Y-158648092D02*
X112828278Y-159022830D01*
%TO.C,D20*%
X152470818Y-159192387D02*
X152639866Y-158829863D01*
X152530915Y-158117035D02*
X153255960Y-158455125D01*
X152639866Y-158829863D02*
X152141395Y-158597424D01*
X152639866Y-158829863D02*
X152530915Y-158117035D01*
X152639866Y-158829863D02*
X153138334Y-159062304D01*
X152893436Y-158286076D02*
X153104746Y-157832925D01*
X153255960Y-158455125D02*
X152639866Y-158829863D01*
D10*
%TO.C,S55*%
X241819499Y-126822969D02*
X241577653Y-127487430D01*
X243721280Y-130901352D02*
X243056817Y-130659508D01*
X244538421Y-125555112D02*
X241819499Y-126822969D01*
X245202884Y-125796957D02*
X244538421Y-125555112D01*
X245202884Y-125796957D02*
X245591692Y-126630760D01*
X245805786Y-129929328D02*
X243721280Y-130901352D01*
X246308092Y-126936656D02*
X250368350Y-125043327D01*
X248276271Y-131204756D02*
X247980441Y-130570338D01*
X250368350Y-125043327D02*
X250621921Y-125587111D01*
X252143347Y-128849820D02*
X252354655Y-129302974D01*
X252354655Y-129302974D02*
X248276271Y-131204756D01*
X245805786Y-129929328D02*
G75*
G02*
X247971989Y-130552214I771659J-1394543D01*
G01*
X246308092Y-126936656D02*
G75*
G02*
X245591694Y-126630759I-205251J511146D01*
G01*
D11*
%TO.C,D5*%
X99726632Y-144527768D02*
X99895680Y-144165244D01*
X99786729Y-143452416D02*
X100511774Y-143790506D01*
X99895680Y-144165244D02*
X99397209Y-143932805D01*
X99895680Y-144165244D02*
X99786729Y-143452416D01*
X99895680Y-144165244D02*
X100394148Y-144397685D01*
X100149250Y-143621457D02*
X100360560Y-143168306D01*
X100511774Y-143790506D02*
X99895680Y-144165244D01*
D10*
%TO.C,S27*%
X182514145Y-114226275D02*
X182272301Y-113561813D01*
X184415927Y-110147890D02*
X183751464Y-110389735D01*
X184598653Y-115198297D02*
X182514145Y-114226275D01*
X185209617Y-117910625D02*
X185505450Y-117276210D01*
X187134851Y-111415746D02*
X184415927Y-110147890D01*
X187214049Y-113659432D02*
X191274307Y-115552761D01*
X187376695Y-112080208D02*
X186987885Y-112914011D01*
X187376695Y-112080208D02*
X187134851Y-111415746D01*
X189288001Y-119812407D02*
X185209617Y-117910625D01*
X189499310Y-119359253D02*
X189288001Y-119812407D01*
X191274307Y-115552761D02*
X191020735Y-116096545D01*
X184598653Y-115198297D02*
G75*
G02*
X185513901Y-117258082I-572266J-1487515D01*
G01*
X187214049Y-113659432D02*
G75*
G02*
X186987885Y-112914011I259628J485792D01*
G01*
%TO.C,S36*%
X309820680Y-102285451D02*
X309578834Y-102949912D01*
X311722461Y-106363834D02*
X311057998Y-106121990D01*
X312539602Y-101017594D02*
X309820680Y-102285451D01*
X313204065Y-101259439D02*
X312539602Y-101017594D01*
X313204065Y-101259439D02*
X313592873Y-102093242D01*
X313806967Y-105391810D02*
X311722461Y-106363834D01*
X314309273Y-102399138D02*
X318369531Y-100505809D01*
X316277452Y-106667238D02*
X315981622Y-106032820D01*
X318369531Y-100505809D02*
X318623102Y-101049593D01*
X320144528Y-104312302D02*
X320355836Y-104765456D01*
X320355836Y-104765456D02*
X316277452Y-106667238D01*
X313806967Y-105391810D02*
G75*
G02*
X315973170Y-106014696I771659J-1394543D01*
G01*
X314309273Y-102399138D02*
G75*
G02*
X313592875Y-102093241I-205251J511146D01*
G01*
%TO.C,S54*%
X249004012Y-142230205D02*
X248762166Y-142894666D01*
X250905793Y-146308588D02*
X250241330Y-146066744D01*
X251722934Y-140962348D02*
X249004012Y-142230205D01*
X252387397Y-141204193D02*
X251722934Y-140962348D01*
X252387397Y-141204193D02*
X252776205Y-142037996D01*
X252990299Y-145336564D02*
X250905793Y-146308588D01*
X253492605Y-142343892D02*
X257552863Y-140450563D01*
X255460784Y-146611992D02*
X255164954Y-145977574D01*
X257552863Y-140450563D02*
X257806434Y-140994347D01*
X259327860Y-144257056D02*
X259539168Y-144710210D01*
X259539168Y-144710210D02*
X255460784Y-146611992D01*
X252990299Y-145336564D02*
G75*
G02*
X255156502Y-145959450I771659J-1394543D01*
G01*
X253492605Y-142343892D02*
G75*
G02*
X252776207Y-142037995I-205251J511146D01*
G01*
%TO.C,S46*%
X272333489Y-107077173D02*
X272091643Y-107741634D01*
X274235270Y-111155556D02*
X273570807Y-110913712D01*
X275052411Y-105809316D02*
X272333489Y-107077173D01*
X275716874Y-106051161D02*
X275052411Y-105809316D01*
X275716874Y-106051161D02*
X276105682Y-106884964D01*
X276319776Y-110183532D02*
X274235270Y-111155556D01*
X276822082Y-107190860D02*
X280882340Y-105297531D01*
X278790261Y-111458960D02*
X278494431Y-110824542D01*
X280882340Y-105297531D02*
X281135911Y-105841315D01*
X282657337Y-109104024D02*
X282868645Y-109557178D01*
X282868645Y-109557178D02*
X278790261Y-111458960D01*
X276319776Y-110183532D02*
G75*
G02*
X278485979Y-110806418I771659J-1394543D01*
G01*
X276822082Y-107190860D02*
G75*
G02*
X276105684Y-106884963I-205251J511146D01*
G01*
%TO.C,S33*%
X318949714Y-79271100D02*
X318707868Y-79935561D01*
X320851495Y-83349483D02*
X320187032Y-83107639D01*
X321668636Y-78003243D02*
X318949714Y-79271100D01*
X322333099Y-78245088D02*
X321668636Y-78003243D01*
X322333099Y-78245088D02*
X322721907Y-79078891D01*
X322936001Y-82377459D02*
X320851495Y-83349483D01*
X323438307Y-79384787D02*
X327498565Y-77491458D01*
X325406486Y-83652887D02*
X325110656Y-83018469D01*
X327498565Y-77491458D02*
X327752136Y-78035242D01*
X329273562Y-81297951D02*
X329484870Y-81751105D01*
X329484870Y-81751105D02*
X325406486Y-83652887D01*
X322936001Y-82377459D02*
G75*
G02*
X325102204Y-83000345I771659J-1394543D01*
G01*
X323438307Y-79384787D02*
G75*
G02*
X322721909Y-79078890I-205251J511146D01*
G01*
%TO.C,S20*%
X145703625Y-150575069D02*
X145461781Y-149910607D01*
X147605407Y-146496684D02*
X146940944Y-146738529D01*
X147788133Y-151547091D02*
X145703625Y-150575069D01*
X148399097Y-154259419D02*
X148694930Y-153625004D01*
X150324331Y-147764540D02*
X147605407Y-146496684D01*
X150403529Y-150008226D02*
X154463787Y-151901555D01*
X150566175Y-148429002D02*
X150177365Y-149262805D01*
X150566175Y-148429002D02*
X150324331Y-147764540D01*
X152477481Y-156161201D02*
X148399097Y-154259419D01*
X152688790Y-155708047D02*
X152477481Y-156161201D01*
X154463787Y-151901555D02*
X154210215Y-152445339D01*
X147788133Y-151547091D02*
G75*
G02*
X148703381Y-153606876I-572266J-1487515D01*
G01*
X150403529Y-150008226D02*
G75*
G02*
X150177365Y-149262805I259628J485792D01*
G01*
D11*
%TO.C,D2*%
X90597607Y-121513411D02*
X90766655Y-121150887D01*
X90657704Y-120438059D02*
X91382749Y-120776149D01*
X90766655Y-121150887D02*
X90268184Y-120918448D01*
X90766655Y-121150887D02*
X90657704Y-120438059D01*
X90766655Y-121150887D02*
X91265123Y-121383328D01*
X91020225Y-120607100D02*
X91231535Y-120153949D01*
X91382749Y-120776149D02*
X90766655Y-121150887D01*
%TO.C,D52*%
X261959743Y-105239098D02*
X262684791Y-104901004D01*
X262322266Y-105070052D02*
X262110957Y-104616898D01*
X262575837Y-105613836D02*
X261959743Y-105239098D01*
X262575837Y-105613836D02*
X262077368Y-105846278D01*
X262575837Y-105613836D02*
X263074308Y-105381397D01*
X262684791Y-104901004D02*
X262575837Y-105613836D01*
X262744885Y-105976360D02*
X262575837Y-105613836D01*
%TO.C,D38*%
X323324862Y-151653764D02*
X324049910Y-151315670D01*
X323687385Y-151484718D02*
X323476076Y-151031564D01*
X323940956Y-152028502D02*
X323324862Y-151653764D01*
X323940956Y-152028502D02*
X323442487Y-152260944D01*
X323940956Y-152028502D02*
X324439427Y-151796063D01*
X324049910Y-151315670D02*
X323940956Y-152028502D01*
X324110004Y-152391026D02*
X323940956Y-152028502D01*
D10*
%TO.C,S7*%
X107328460Y-105095988D02*
X107086616Y-104431526D01*
X109230242Y-101017603D02*
X108565779Y-101259448D01*
X109412968Y-106068010D02*
X107328460Y-105095988D01*
X110023932Y-108780338D02*
X110319765Y-108145923D01*
X111949166Y-102285459D02*
X109230242Y-101017603D01*
X112028364Y-104529145D02*
X116088622Y-106422474D01*
X112191010Y-102949921D02*
X111802200Y-103783724D01*
X112191010Y-102949921D02*
X111949166Y-102285459D01*
X114102316Y-110682120D02*
X110023932Y-108780338D01*
X114313625Y-110228966D02*
X114102316Y-110682120D01*
X116088622Y-106422474D02*
X115835050Y-106966258D01*
X109412968Y-106068010D02*
G75*
G02*
X110328216Y-108127795I-572266J-1487515D01*
G01*
X112028364Y-104529145D02*
G75*
G02*
X111802200Y-103783724I259628J485792D01*
G01*
D11*
%TO.C,D13*%
X141397269Y-97756433D02*
X141566317Y-97393909D01*
X141457366Y-96681081D02*
X142182411Y-97019171D01*
X141566317Y-97393909D02*
X141067846Y-97161470D01*
X141566317Y-97393909D02*
X141457366Y-96681081D01*
X141566317Y-97393909D02*
X142064785Y-97626350D01*
X141819887Y-96850122D02*
X142031197Y-96396971D01*
X142182411Y-97019171D02*
X141566317Y-97393909D01*
D10*
%TO.C,S10*%
X113076539Y-135360814D02*
X112834695Y-134696352D01*
X114978321Y-131282429D02*
X114313858Y-131524274D01*
X115161047Y-136332836D02*
X113076539Y-135360814D01*
X115772011Y-139045164D02*
X116067844Y-138410749D01*
X117697245Y-132550285D02*
X114978321Y-131282429D01*
X117776443Y-134793971D02*
X121836701Y-136687300D01*
X117939089Y-133214747D02*
X117550279Y-134048550D01*
X117939089Y-133214747D02*
X117697245Y-132550285D01*
X119850395Y-140946946D02*
X115772011Y-139045164D01*
X120061704Y-140493792D02*
X119850395Y-140946946D01*
X121836701Y-136687300D02*
X121583129Y-137231084D01*
X115161047Y-136332836D02*
G75*
G02*
X116076295Y-138392621I-572266J-1487515D01*
G01*
X117776443Y-134793971D02*
G75*
G02*
X117550279Y-134048550I259628J485792D01*
G01*
D11*
%TO.C,D44*%
X298770267Y-141587897D02*
X299495315Y-141249803D01*
X299132790Y-141418851D02*
X298921481Y-140965697D01*
X299386361Y-141962635D02*
X298770267Y-141587897D01*
X299386361Y-141962635D02*
X298887892Y-142195077D01*
X299386361Y-141962635D02*
X299884832Y-141730196D01*
X299495315Y-141249803D02*
X299386361Y-141962635D01*
X299555409Y-142325159D02*
X299386361Y-141962635D01*
%TO.C,D57*%
X271885118Y-177464529D02*
X272420424Y-176870013D01*
X272152772Y-177167271D02*
X271781197Y-176832705D01*
X272420424Y-176870013D02*
X272598658Y-177568748D01*
X272598658Y-177568748D02*
X271885118Y-177464529D01*
X272598658Y-177568748D02*
X272230637Y-177977480D01*
X272598658Y-177568748D02*
X272966682Y-177160019D01*
X272895917Y-177836403D02*
X272598658Y-177568748D01*
%TO.C,D55*%
X253887261Y-130519224D02*
X254612309Y-130181130D01*
X254249784Y-130350178D02*
X254038475Y-129897024D01*
X254503355Y-130893962D02*
X253887261Y-130519224D01*
X254503355Y-130893962D02*
X254004886Y-131126404D01*
X254503355Y-130893962D02*
X255001826Y-130661523D01*
X254612309Y-130181130D02*
X254503355Y-130893962D01*
X254672403Y-131256486D02*
X254503355Y-130893962D01*
D10*
%TO.C,S31*%
X333318728Y-110085564D02*
X333076882Y-110750025D01*
X335220509Y-114163947D02*
X334556046Y-113922103D01*
X336037650Y-108817707D02*
X333318728Y-110085564D01*
X336702113Y-109059552D02*
X336037650Y-108817707D01*
X336702113Y-109059552D02*
X337090921Y-109893355D01*
X337305015Y-113191923D02*
X335220509Y-114163947D01*
X337807321Y-110199251D02*
X341867579Y-108305922D01*
X339775500Y-114467351D02*
X339479670Y-113832933D01*
X341867579Y-108305922D02*
X342121150Y-108849706D01*
X343642576Y-112112415D02*
X343853884Y-112565569D01*
X343853884Y-112565569D02*
X339775500Y-114467351D01*
X337305015Y-113191923D02*
G75*
G02*
X339471218Y-113814809I771659J-1394543D01*
G01*
X337807321Y-110199251D02*
G75*
G02*
X337090923Y-109893354I-205251J511146D01*
G01*
%TO.C,S48*%
X278630026Y-163171771D02*
X278388180Y-163836232D01*
X280531807Y-167250154D02*
X279867344Y-167008310D01*
X281348948Y-161903914D02*
X278630026Y-163171771D01*
X282013411Y-162145759D02*
X281348948Y-161903914D01*
X282013411Y-162145759D02*
X282402219Y-162979562D01*
X282616313Y-166278130D02*
X280531807Y-167250154D01*
X283118619Y-163285458D02*
X287178877Y-161392129D01*
X285086798Y-167553558D02*
X284790968Y-166919140D01*
X287178877Y-161392129D02*
X287432448Y-161935913D01*
X288953874Y-165198622D02*
X289165182Y-165651776D01*
X289165182Y-165651776D02*
X285086798Y-167553558D01*
X282616313Y-166278130D02*
G75*
G02*
X284782516Y-166901016I771659J-1394543D01*
G01*
X283118619Y-163285458D02*
G75*
G02*
X282402221Y-162979561I-205251J511146D01*
G01*
D11*
%TO.C,D7*%
X114095652Y-113713306D02*
X114264700Y-113350782D01*
X114155749Y-112637954D02*
X114880794Y-112976044D01*
X114264700Y-113350782D02*
X113766229Y-113118343D01*
X114264700Y-113350782D02*
X114155749Y-112637954D01*
X114264700Y-113350782D02*
X114763168Y-113583223D01*
X114518270Y-112806995D02*
X114729580Y-112353844D01*
X114880794Y-112976044D02*
X114264700Y-113350782D01*
%TO.C,D37*%
X314703932Y-90574474D02*
X315428980Y-90236380D01*
X315066455Y-90405428D02*
X314855146Y-89952274D01*
X315320026Y-90949212D02*
X314703932Y-90574474D01*
X315320026Y-90949212D02*
X314821557Y-91181654D01*
X315320026Y-90949212D02*
X315818497Y-90716773D01*
X315428980Y-90236380D02*
X315320026Y-90949212D01*
X315489074Y-91311736D02*
X315320026Y-90949212D01*
%TO.C,D21*%
X159655332Y-143785155D02*
X159824380Y-143422631D01*
X159715429Y-142709803D02*
X160440474Y-143047893D01*
X159824380Y-143422631D02*
X159325909Y-143190192D01*
X159824380Y-143422631D02*
X159715429Y-142709803D01*
X159824380Y-143422631D02*
X160322848Y-143655072D01*
X160077950Y-142878844D02*
X160289260Y-142425693D01*
X160440474Y-143047893D02*
X159824380Y-143422631D01*
%TO.C,D35*%
X329072946Y-121388937D02*
X329797994Y-121050843D01*
X329435469Y-121219891D02*
X329224160Y-120766737D01*
X329689040Y-121763675D02*
X329072946Y-121388937D01*
X329689040Y-121763675D02*
X329190571Y-121996117D01*
X329689040Y-121763675D02*
X330187511Y-121531236D01*
X329797994Y-121050843D02*
X329689040Y-121763675D01*
X329858088Y-122126199D02*
X329689040Y-121763675D01*
D10*
%TO.C,S13*%
X134630069Y-89139108D02*
X134388225Y-88474646D01*
X136531851Y-85060723D02*
X135867388Y-85302568D01*
X136714577Y-90111130D02*
X134630069Y-89139108D01*
X137325541Y-92823458D02*
X137621374Y-92189043D01*
X139250775Y-86328579D02*
X136531851Y-85060723D01*
X139329973Y-88572265D02*
X143390231Y-90465594D01*
X139492619Y-86993041D02*
X139103809Y-87826844D01*
X139492619Y-86993041D02*
X139250775Y-86328579D01*
X141403925Y-94725240D02*
X137325541Y-92823458D01*
X141615234Y-94272086D02*
X141403925Y-94725240D01*
X143390231Y-90465594D02*
X143136659Y-91009378D01*
X136714577Y-90111130D02*
G75*
G02*
X137629825Y-92170915I-572266J-1487515D01*
G01*
X139329973Y-88572265D02*
G75*
G02*
X139103809Y-87826844I259628J485792D01*
G01*
%TD*%
D12*
%TO.C,MCU1*%
X203264915Y-135058001D03*
D13*
X203264916Y-137598002D03*
X203264915Y-140138002D03*
X203264913Y-142678002D03*
X203264916Y-145218003D03*
X203264912Y-147758003D03*
X203264915Y-150298002D03*
X203264917Y-152838001D03*
X203264915Y-155378003D03*
X203264915Y-157918002D03*
X203264913Y-160458002D03*
X203264915Y-162998003D03*
X218504915Y-135058001D03*
X218504917Y-137598002D03*
X218504915Y-140138002D03*
X218504915Y-142678001D03*
X218504913Y-145218003D03*
X218504915Y-147758002D03*
X218504918Y-150298001D03*
X218504914Y-152838001D03*
X218504917Y-155378002D03*
X218504915Y-157918002D03*
X218504914Y-160458002D03*
X218504915Y-162998003D03*
%TD*%
%LPC*%
D14*
%TO.C,H8*%
X251208949Y-122113582D03*
%TD*%
%TO.C,H7*%
X319210129Y-97576074D03*
%TD*%
%TO.C,H2*%
X102559716Y-97576077D03*
%TD*%
%TO.C,H3*%
X88190698Y-128390536D03*
%TD*%
D15*
%TO.C,OLED1*%
X214684919Y-166427996D03*
D16*
X212144922Y-166427995D03*
X209604921Y-166427997D03*
X207064921Y-166427995D03*
%TD*%
D14*
%TO.C,H1*%
X171617436Y-119847816D03*
%TD*%
D12*
%TO.C,MCU1*%
X203264915Y-135058001D03*
D13*
X203264916Y-137598002D03*
X203264915Y-140138002D03*
X203264913Y-142678002D03*
X203264916Y-145218003D03*
X203264912Y-147758003D03*
X203264915Y-150298002D03*
X203264917Y-152838001D03*
X203264915Y-155378003D03*
X203264915Y-157918002D03*
X203264913Y-160458002D03*
X203264915Y-162998003D03*
X218504915Y-135058001D03*
X218504917Y-137598002D03*
X218504915Y-140138002D03*
X218504915Y-142678001D03*
X218504913Y-145218003D03*
X218504915Y-147758002D03*
X218504918Y-150298001D03*
X218504914Y-152838001D03*
X218504917Y-155378002D03*
X218504915Y-157918002D03*
X218504914Y-160458002D03*
X218504915Y-162998003D03*
%TD*%
D14*
%TO.C,H5*%
X272762472Y-168335281D03*
%TD*%
D17*
%TO.C,RST1*%
X207634924Y-174028002D03*
X214134924Y-174027998D03*
%TD*%
D14*
%TO.C,H4*%
X150063909Y-166069519D03*
%TD*%
%TO.C,H6*%
X333579144Y-128390538D03*
%TD*%
D18*
%TO.C,S38*%
X311097342Y-157079704D03*
D19*
X313567456Y-149362773D03*
D20*
X316082035Y-154755304D03*
D19*
X319028752Y-149243558D03*
D18*
X321066728Y-152430904D03*
D21*
X310599298Y-150746847D03*
X321996914Y-147859483D03*
%TD*%
D18*
%TO.C,S2*%
X78641487Y-114558955D03*
D19*
X86140758Y-111490825D03*
D20*
X83626180Y-116883355D03*
D19*
X89742537Y-115597793D03*
D18*
X88610873Y-119207755D03*
D22*
X83172600Y-110106748D03*
X92710695Y-116981867D03*
%TD*%
D18*
%TO.C,S21*%
X147699212Y-136830697D03*
D19*
X155198483Y-133762567D03*
D20*
X152683905Y-139155097D03*
D19*
X158800262Y-137869535D03*
D18*
X157668598Y-141479497D03*
D22*
X152230325Y-132378490D03*
X161768420Y-139253609D03*
%TD*%
D18*
%TO.C,S30*%
X340343477Y-134614991D03*
D19*
X342813591Y-126898060D03*
D20*
X345328170Y-132290591D03*
D19*
X348274887Y-126778845D03*
D18*
X350312863Y-129966191D03*
D21*
X339845433Y-128282134D03*
X351243049Y-125394770D03*
%TD*%
D23*
%TO.C,D49*%
X284678770Y-153013731D03*
X283284134Y-150022911D03*
%TD*%
D18*
%TO.C,S6*%
X94955025Y-122166084D03*
D19*
X102454296Y-119097954D03*
D20*
X99939718Y-124490484D03*
D19*
X106056075Y-123204922D03*
D18*
X104924411Y-126814884D03*
D22*
X99486138Y-117713877D03*
X109024233Y-124588996D03*
%TD*%
D23*
%TO.C,D50*%
X277494259Y-137606497D03*
X276099623Y-134615677D03*
%TD*%
D18*
%TO.C,S5*%
X87770519Y-137573317D03*
D19*
X95269790Y-134505187D03*
D20*
X92755212Y-139897717D03*
D19*
X98871569Y-138612155D03*
D18*
X97739905Y-142222117D03*
D22*
X92301632Y-133121110D03*
X101839727Y-139996229D03*
%TD*%
D23*
%TO.C,D32*%
X339367477Y-99927521D03*
X337972841Y-96936701D03*
%TD*%
D18*
%TO.C,S57*%
X262749709Y-187236805D03*
D19*
X262008212Y-179168177D03*
D20*
X266429927Y-183149507D03*
D19*
X266988789Y-176924542D03*
D18*
X270110145Y-179062209D03*
D24*
X259816813Y-181601979D03*
X269180189Y-174490743D03*
%TD*%
D25*
%TO.C,D17*%
X151202485Y-119320699D03*
X152597123Y-116329883D03*
%TD*%
D18*
%TO.C,S58*%
X245138017Y-193407550D03*
D20*
X249643352Y-196562221D03*
D19*
X253056133Y-191688267D03*
X255890025Y-196358283D03*
D18*
X254148687Y-199716892D03*
D26*
X250373409Y-189809802D03*
X258572746Y-198236746D03*
%TD*%
D27*
%TO.C,D29*%
X180138159Y-193577062D03*
X178245357Y-190873860D03*
%TD*%
D18*
%TO.C,S17*%
X139626727Y-111550569D03*
D19*
X147125998Y-108482439D03*
D20*
X144611420Y-113874969D03*
D19*
X150727777Y-112589407D03*
D18*
X149596113Y-116199369D03*
D22*
X144157840Y-107098362D03*
X153695935Y-113973481D03*
%TD*%
D18*
%TO.C,S49*%
X271285755Y-156886733D03*
D19*
X273755869Y-149169802D03*
D20*
X276270448Y-154562333D03*
D19*
X279217165Y-149050587D03*
D18*
X281255141Y-152237933D03*
D21*
X270787711Y-150553876D03*
X282185327Y-147666512D03*
%TD*%
D18*
%TO.C,S45*%
X279358239Y-131606600D03*
D19*
X281828353Y-123889669D03*
D20*
X284342932Y-129282200D03*
D19*
X287289649Y-123770454D03*
D18*
X289327625Y-126957800D03*
D21*
X278860195Y-125273743D03*
X290257811Y-122386379D03*
%TD*%
D23*
%TO.C,D43*%
X307120272Y-158548062D03*
X305725636Y-155557242D03*
%TD*%
D25*
%TO.C,D11*%
X126647893Y-129386571D03*
X128042531Y-126395755D03*
%TD*%
%TO.C,D22*%
X166459483Y-129193596D03*
X167854121Y-126202780D03*
%TD*%
D18*
%TO.C,S28*%
X151659690Y-179062218D03*
D20*
X155339908Y-183149515D03*
D19*
X159761621Y-179168189D03*
X161472353Y-184355999D03*
D18*
X159020126Y-187236812D03*
D28*
X157570217Y-176734389D03*
X163663758Y-186789799D03*
%TD*%
D25*
%TO.C,D1*%
X83032734Y-137736313D03*
X84427372Y-134745497D03*
%TD*%
%TO.C,D18*%
X158386997Y-103913466D03*
X159781635Y-100922650D03*
%TD*%
D18*
%TO.C,S35*%
X316845424Y-126814885D03*
D19*
X319315538Y-119097954D03*
D20*
X321830117Y-124490485D03*
D19*
X324776834Y-118978739D03*
D18*
X326814810Y-122166085D03*
D21*
X316347380Y-120482028D03*
X327744996Y-117594664D03*
%TD*%
D25*
%TO.C,D15*%
X136833468Y-150135156D03*
X138228106Y-147144340D03*
%TD*%
%TO.C,D26*%
X181716481Y-139066492D03*
X183111119Y-136075676D03*
%TD*%
D18*
%TO.C,S40*%
X296728323Y-126265244D03*
D19*
X299198437Y-118548313D03*
D20*
X301713016Y-123940844D03*
D19*
X304659733Y-118429098D03*
D18*
X306697709Y-121616444D03*
D21*
X296230279Y-119932387D03*
X307627895Y-117045023D03*
%TD*%
D18*
%TO.C,S50*%
X264101242Y-141479503D03*
D19*
X266571356Y-133762572D03*
D20*
X269085935Y-139155103D03*
D19*
X272032652Y-133643357D03*
D18*
X274070628Y-136830703D03*
D21*
X263603198Y-135146646D03*
X275000814Y-132259282D03*
%TD*%
D23*
%TO.C,D42*%
X295752319Y-91577772D03*
X294357683Y-88586952D03*
%TD*%
D18*
%TO.C,S44*%
X286542748Y-147013834D03*
D19*
X289012862Y-139296903D03*
D20*
X291527441Y-144689434D03*
D19*
X294474158Y-139177688D03*
D18*
X296512134Y-142365034D03*
D21*
X286044704Y-140680977D03*
X297442320Y-137793613D03*
%TD*%
D25*
%TO.C,D27*%
X188900990Y-123659263D03*
X190295628Y-120668447D03*
%TD*%
D18*
%TO.C,S18*%
X146811235Y-96143337D03*
D19*
X154310506Y-93075207D03*
D20*
X151795928Y-98467737D03*
D19*
X157912285Y-97182175D03*
D18*
X156780621Y-100792137D03*
D22*
X151342348Y-91691130D03*
X160880443Y-98566249D03*
%TD*%
D25*
%TO.C,D6*%
X106530788Y-129936215D03*
X107925426Y-126945399D03*
%TD*%
%TO.C,D16*%
X144017983Y-134727931D03*
X145412621Y-131737115D03*
%TD*%
D18*
%TO.C,S8*%
X109324049Y-91351616D03*
D19*
X116823320Y-88283486D03*
D20*
X114308742Y-93676016D03*
D19*
X120425099Y-92390454D03*
D18*
X119293435Y-96000416D03*
D22*
X113855162Y-86899409D03*
X123393257Y-93774528D03*
%TD*%
D23*
%TO.C,D56*%
X247868247Y-116664936D03*
X246473611Y-113674116D03*
%TD*%
D25*
%TO.C,D3*%
X97401758Y-106921850D03*
X98796396Y-103931034D03*
%TD*%
D23*
%TO.C,D53*%
X269421775Y-162886633D03*
X268027139Y-159895813D03*
%TD*%
D18*
%TO.C,S23*%
X162068230Y-106016235D03*
D19*
X169567501Y-102948105D03*
D20*
X167052923Y-108340635D03*
D19*
X173169280Y-107055073D03*
D18*
X172037616Y-110665035D03*
D22*
X166599343Y-101564028D03*
X176137438Y-108439147D03*
%TD*%
D18*
%TO.C,S56*%
X234475227Y-120537934D03*
D19*
X236945341Y-112821003D03*
D20*
X239459920Y-118213534D03*
D19*
X242406637Y-112701788D03*
D18*
X244444613Y-115889134D03*
D21*
X233977183Y-114205077D03*
X245374799Y-111317713D03*
%TD*%
D25*
%TO.C,D4*%
X104586268Y-91514622D03*
X105980906Y-88523806D03*
%TD*%
D23*
%TO.C,D30*%
X353736493Y-130741984D03*
X352341857Y-127751164D03*
%TD*%
D25*
%TO.C,D25*%
X174531967Y-154473730D03*
X175926605Y-151482914D03*
%TD*%
D23*
%TO.C,D40*%
X310121343Y-122392238D03*
X308726707Y-119401418D03*
%TD*%
D18*
%TO.C,S41*%
X289543815Y-110858008D03*
D19*
X292013929Y-103141077D03*
D20*
X294528508Y-108533608D03*
D19*
X297475225Y-103021862D03*
D18*
X299513201Y-106209208D03*
D21*
X289045771Y-104525151D03*
X300443387Y-101637787D03*
%TD*%
D18*
%TO.C,S4*%
X93010505Y-83744487D03*
D19*
X100509776Y-80676357D03*
D20*
X97995198Y-86068887D03*
D19*
X104111555Y-84783325D03*
D18*
X102979891Y-88393287D03*
D22*
X97541618Y-79292280D03*
X107079713Y-86167399D03*
%TD*%
D18*
%TO.C,S51*%
X256916728Y-126072273D03*
D19*
X259386842Y-118355342D03*
D20*
X261901421Y-123747873D03*
D19*
X264848138Y-118236127D03*
D18*
X266886114Y-121423473D03*
D21*
X256418684Y-119739416D03*
X267816300Y-116852052D03*
%TD*%
D25*
%TO.C,D8*%
X120899809Y-99121755D03*
X122294447Y-96130939D03*
%TD*%
%TO.C,D14*%
X129648961Y-165542395D03*
X131043599Y-162551579D03*
%TD*%
D23*
%TO.C,D31*%
X346551989Y-115334753D03*
X345157353Y-112343933D03*
%TD*%
%TO.C,D51*%
X270309751Y-122199263D03*
X268915115Y-119208443D03*
%TD*%
D18*
%TO.C,S22*%
X154883721Y-121423467D03*
D19*
X162382992Y-118355337D03*
D20*
X159868414Y-123747867D03*
D19*
X165984771Y-122462305D03*
D18*
X164853107Y-126072267D03*
D22*
X159414834Y-116971260D03*
X168952929Y-123846379D03*
%TD*%
D23*
%TO.C,D36*%
X323053935Y-107534653D03*
X321659299Y-104543833D03*
%TD*%
D18*
%TO.C,S19*%
X133330185Y-167645166D03*
D19*
X140829456Y-164577036D03*
D20*
X138314878Y-169969566D03*
D19*
X144431235Y-168684004D03*
D18*
X143299571Y-172293966D03*
D22*
X137861298Y-163192959D03*
X147399393Y-170068078D03*
%TD*%
D23*
%TO.C,D54*%
X262237265Y-147479397D03*
X260842629Y-144488577D03*
%TD*%
D18*
%TO.C,S16*%
X132442217Y-126957805D03*
D19*
X139941488Y-123889675D03*
D20*
X137426910Y-129282205D03*
D19*
X143543267Y-127996643D03*
D18*
X142411603Y-131606605D03*
D22*
X136973330Y-122505598D03*
X146511425Y-129380717D03*
%TD*%
D25*
%TO.C,D24*%
X167347457Y-169880956D03*
X168742095Y-166890140D03*
%TD*%
D18*
%TO.C,S9*%
X100703114Y-152430912D03*
D19*
X108202385Y-149362782D03*
D20*
X105687807Y-154755312D03*
D19*
X111804164Y-153469750D03*
D18*
X110672500Y-157079712D03*
D22*
X105234227Y-147978705D03*
X114772322Y-154853824D03*
%TD*%
D29*
%TO.C,D58*%
X255188650Y-203069746D03*
X257081452Y-200366542D03*
%TD*%
D25*
%TO.C,D19*%
X144905953Y-175415289D03*
X146300591Y-172424473D03*
%TD*%
D18*
%TO.C,S26*%
X170140712Y-131296365D03*
D19*
X177639983Y-128228235D03*
D20*
X175125405Y-133620765D03*
D19*
X181241762Y-132335203D03*
D18*
X180110098Y-135945165D03*
D22*
X174671825Y-126844158D03*
X184209920Y-133719277D03*
%TD*%
D18*
%TO.C,S29*%
X167621150Y-199716896D03*
D19*
X168713703Y-191688271D03*
D20*
X172126485Y-196562225D03*
D19*
X174071334Y-190622524D03*
D18*
X176631820Y-193407554D03*
D30*
X166030982Y-193566733D03*
X176754057Y-188744060D03*
%TD*%
D18*
%TO.C,S39*%
X303912835Y-141672473D03*
D19*
X306382949Y-133955542D03*
D20*
X308897528Y-139348073D03*
D19*
X311844245Y-133836327D03*
D18*
X313882221Y-137023673D03*
D21*
X303414791Y-135339616D03*
X314812407Y-132452252D03*
%TD*%
D25*
%TO.C,D12*%
X133832403Y-113979340D03*
X135227041Y-110988524D03*
%TD*%
D23*
%TO.C,D46*%
X285566741Y-112326368D03*
X284172105Y-109335548D03*
%TD*%
D25*
%TO.C,D23*%
X173643989Y-113786364D03*
X175038627Y-110795548D03*
%TD*%
D18*
%TO.C,S34*%
X324029938Y-142222112D03*
D19*
X326500052Y-134505181D03*
D20*
X329014631Y-139897712D03*
D19*
X331961348Y-134385966D03*
D18*
X333999324Y-137573312D03*
D21*
X323531894Y-135889255D03*
X334929510Y-133001891D03*
%TD*%
D18*
%TO.C,S25*%
X162956207Y-146703601D03*
D19*
X170455478Y-143635471D03*
D20*
X167940900Y-149028001D03*
D19*
X174057257Y-147742439D03*
D18*
X172925593Y-151352401D03*
D22*
X167487320Y-142251394D03*
X177025415Y-149126513D03*
%TD*%
D18*
%TO.C,S42*%
X282359299Y-95450780D03*
D19*
X284829413Y-87733849D03*
D20*
X287343992Y-93126380D03*
D19*
X290290709Y-87614634D03*
D18*
X292328685Y-90801980D03*
D21*
X281861255Y-89117923D03*
X293258871Y-86230559D03*
%TD*%
D25*
%TO.C,D10*%
X119463381Y-144793812D03*
X120858019Y-141802996D03*
%TD*%
D18*
%TO.C,S52*%
X249732220Y-110665040D03*
D19*
X252202334Y-102948109D03*
D20*
X254716913Y-108340640D03*
D19*
X257663630Y-102828894D03*
D18*
X259701606Y-106016240D03*
D21*
X249234176Y-104332183D03*
X260631792Y-101444819D03*
%TD*%
D18*
%TO.C,S32*%
X325974455Y-103800527D03*
D19*
X328444569Y-96083596D03*
D20*
X330959148Y-101476127D03*
D19*
X333905865Y-95964381D03*
D18*
X335943841Y-99151727D03*
D21*
X325476411Y-97467670D03*
X336874027Y-94580306D03*
%TD*%
D18*
%TO.C,S24*%
X155771692Y-162110834D03*
D19*
X163270963Y-159042704D03*
D20*
X160756385Y-164435234D03*
D19*
X166872742Y-163149672D03*
D18*
X165741078Y-166759634D03*
D22*
X160302805Y-157658627D03*
X169840900Y-164533746D03*
%TD*%
D31*
%TO.C,D28*%
X159279200Y-190737670D03*
X161731576Y-188529536D03*
%TD*%
D23*
%TO.C,D41*%
X302936833Y-106985007D03*
X301542197Y-103994187D03*
%TD*%
%TO.C,D39*%
X317305849Y-137799469D03*
X315911213Y-134808649D03*
%TD*%
D18*
%TO.C,S47*%
X264989214Y-100792133D03*
D19*
X267459328Y-93075202D03*
D20*
X269973907Y-98467733D03*
D19*
X272920624Y-92955987D03*
D18*
X274958600Y-96143333D03*
D21*
X264491170Y-94459276D03*
X275888786Y-91571912D03*
%TD*%
D18*
%TO.C,S53*%
X256028764Y-166759626D03*
D19*
X258498878Y-159042695D03*
D20*
X261013457Y-164435226D03*
D19*
X263960174Y-158923480D03*
D18*
X265998150Y-162110826D03*
D21*
X255530720Y-160426769D03*
X266928336Y-157539405D03*
%TD*%
D18*
%TO.C,S12*%
X122256645Y-106209210D03*
D19*
X129755916Y-103141080D03*
D20*
X127241338Y-108533610D03*
D19*
X133357695Y-107248048D03*
D18*
X132226031Y-110858010D03*
D22*
X126787758Y-101757003D03*
X136325853Y-108632122D03*
%TD*%
D23*
%TO.C,D45*%
X292751251Y-127733601D03*
X291356615Y-124742781D03*
%TD*%
%TO.C,D33*%
X332182965Y-84520292D03*
X330788329Y-81529472D03*
%TD*%
D18*
%TO.C,S11*%
X115072130Y-121616442D03*
D19*
X122571401Y-118548312D03*
D20*
X120056823Y-123940842D03*
D19*
X126173180Y-122655280D03*
D18*
X125041516Y-126265242D03*
D22*
X119603243Y-117164235D03*
X129141338Y-124039354D03*
%TD*%
D18*
%TO.C,S37*%
X302476402Y-96000423D03*
D19*
X304946516Y-88283492D03*
D20*
X307461095Y-93676023D03*
D19*
X310407812Y-88164277D03*
D18*
X312445788Y-91351623D03*
D21*
X301978358Y-89667566D03*
X313375974Y-86780202D03*
%TD*%
D18*
%TO.C,S3*%
X85825995Y-99151727D03*
D19*
X93325266Y-96083597D03*
D20*
X90810688Y-101476127D03*
D19*
X96927045Y-100190565D03*
D18*
X95795381Y-103800527D03*
D22*
X90357108Y-94699520D03*
X99895203Y-101574639D03*
%TD*%
D18*
%TO.C,S15*%
X125257703Y-142365030D03*
D19*
X132756974Y-139296900D03*
D20*
X130242396Y-144689430D03*
D19*
X136358753Y-143403868D03*
D18*
X135227089Y-147013830D03*
D22*
X129788816Y-137912823D03*
X139326911Y-144787942D03*
%TD*%
D18*
%TO.C,S43*%
X293727252Y-162421068D03*
D19*
X296197366Y-154704137D03*
D20*
X298711945Y-160096668D03*
D19*
X301658662Y-154584922D03*
D18*
X303696638Y-157772268D03*
D21*
X293229208Y-156088211D03*
X304626824Y-153200847D03*
%TD*%
D23*
%TO.C,D48*%
X291863277Y-168420963D03*
X290468641Y-165430143D03*
%TD*%
D18*
%TO.C,S1*%
X71456980Y-129966190D03*
D19*
X78956251Y-126898060D03*
D20*
X76441673Y-132290590D03*
D19*
X82558030Y-131005028D03*
D18*
X81426366Y-134614990D03*
D22*
X75988093Y-125513983D03*
X85526188Y-132389102D03*
%TD*%
D23*
%TO.C,D34*%
X337422955Y-138349114D03*
X336028319Y-135358294D03*
%TD*%
%TO.C,D47*%
X278382234Y-96919135D03*
X276987598Y-93928315D03*
%TD*%
D18*
%TO.C,S14*%
X118073193Y-157772274D03*
D19*
X125572464Y-154704144D03*
D20*
X123057886Y-160096674D03*
D19*
X129174243Y-158811112D03*
D18*
X128042579Y-162421074D03*
D22*
X122604306Y-153320067D03*
X132142401Y-160195186D03*
%TD*%
D25*
%TO.C,D9*%
X112278875Y-160201031D03*
X113673513Y-157210215D03*
%TD*%
%TO.C,D20*%
X152090463Y-160008064D03*
X153485101Y-157017248D03*
%TD*%
D18*
%TO.C,S55*%
X241659736Y-135945163D03*
D19*
X244129850Y-128228232D03*
D20*
X246644429Y-133620763D03*
D19*
X249591146Y-128109017D03*
D18*
X251629122Y-131296363D03*
D21*
X241161692Y-129612306D03*
X252559308Y-126724942D03*
%TD*%
D25*
%TO.C,D5*%
X99346277Y-145343445D03*
X100740915Y-142352629D03*
%TD*%
D18*
%TO.C,S27*%
X177325226Y-115889141D03*
D19*
X184824497Y-112821011D03*
D20*
X182309919Y-118213541D03*
D19*
X188426276Y-116927979D03*
D18*
X187294612Y-120537941D03*
D22*
X181856339Y-111436934D03*
X191394434Y-118312053D03*
%TD*%
D18*
%TO.C,S36*%
X309660917Y-111407645D03*
D19*
X312131031Y-103690714D03*
D20*
X314645610Y-109083245D03*
D19*
X317592327Y-103571499D03*
D18*
X319630303Y-106758845D03*
D21*
X309162873Y-105074788D03*
X320560489Y-102187424D03*
%TD*%
D18*
%TO.C,S54*%
X248844249Y-151352399D03*
D19*
X251314363Y-143635468D03*
D20*
X253828942Y-149027999D03*
D19*
X256775659Y-143516253D03*
D18*
X258813635Y-146703599D03*
D21*
X248346205Y-145019542D03*
X259743821Y-142132178D03*
%TD*%
D18*
%TO.C,S46*%
X272173726Y-116199367D03*
D19*
X274643840Y-108482436D03*
D20*
X277158419Y-113874967D03*
D19*
X280105136Y-108363221D03*
D18*
X282143112Y-111550567D03*
D21*
X271675682Y-109866510D03*
X283073298Y-106979146D03*
%TD*%
D18*
%TO.C,S33*%
X318789951Y-88393294D03*
D19*
X321260065Y-80676363D03*
D20*
X323774644Y-86068894D03*
D19*
X326721361Y-80557148D03*
D18*
X328759337Y-83744494D03*
D21*
X318291907Y-82060437D03*
X329689523Y-79173073D03*
%TD*%
D18*
%TO.C,S20*%
X140514706Y-152237935D03*
D19*
X148013977Y-149169805D03*
D20*
X145499399Y-154562335D03*
D19*
X151615756Y-153276773D03*
D18*
X150484092Y-156886735D03*
D22*
X145045819Y-147785728D03*
X154583914Y-154660847D03*
%TD*%
D25*
%TO.C,D2*%
X90217252Y-122329088D03*
X91611890Y-119338272D03*
%TD*%
D23*
%TO.C,D52*%
X263125239Y-106792039D03*
X261730603Y-103801219D03*
%TD*%
%TO.C,D38*%
X324490358Y-153206705D03*
X323095722Y-150215885D03*
%TD*%
D18*
%TO.C,S7*%
X102139541Y-106758854D03*
D19*
X109638812Y-103690724D03*
D20*
X107124234Y-109083254D03*
D19*
X113240591Y-107797692D03*
D18*
X112108927Y-111407654D03*
D22*
X106670654Y-102306647D03*
X116208749Y-109181766D03*
%TD*%
D25*
%TO.C,D13*%
X141016914Y-98572110D03*
X142411552Y-95581294D03*
%TD*%
D18*
%TO.C,S10*%
X107887620Y-137023680D03*
D19*
X115386891Y-133955550D03*
D20*
X112872313Y-139348080D03*
D19*
X118988670Y-138062518D03*
D18*
X117857006Y-141672480D03*
D22*
X112418733Y-132571473D03*
X121956828Y-139446592D03*
%TD*%
D23*
%TO.C,D44*%
X299935763Y-143140838D03*
X298541127Y-140150018D03*
%TD*%
D32*
%TO.C,D57*%
X273564745Y-178438621D03*
X271112369Y-176230487D03*
%TD*%
D23*
%TO.C,D55*%
X255052757Y-132072165D03*
X253658121Y-129081345D03*
%TD*%
D18*
%TO.C,S31*%
X333158965Y-119207758D03*
D19*
X335629079Y-111490827D03*
D20*
X338143658Y-116883358D03*
D19*
X341090375Y-111371612D03*
D18*
X343128351Y-114558958D03*
D21*
X332660921Y-112874901D03*
X344058537Y-109987537D03*
%TD*%
D18*
%TO.C,S48*%
X278470263Y-172293965D03*
D19*
X280940377Y-164577034D03*
D20*
X283454956Y-169969565D03*
D19*
X286401673Y-164457819D03*
D18*
X288439649Y-167645165D03*
D21*
X277972219Y-165961108D03*
X289369835Y-163073744D03*
%TD*%
D25*
%TO.C,D7*%
X113715297Y-114528983D03*
X115109935Y-111538167D03*
%TD*%
D23*
%TO.C,D37*%
X315869428Y-92127415D03*
X314474792Y-89136595D03*
%TD*%
D25*
%TO.C,D21*%
X159274977Y-144600832D03*
X160669615Y-141610016D03*
%TD*%
D23*
%TO.C,D35*%
X330238442Y-122941878D03*
X328843806Y-119951058D03*
%TD*%
D18*
%TO.C,S13*%
X129441150Y-90801974D03*
D19*
X136940421Y-87733844D03*
D20*
X134425843Y-93126374D03*
D19*
X140542200Y-91840812D03*
D18*
X139410536Y-95450774D03*
D22*
X133972263Y-86349767D03*
X143510358Y-93224886D03*
%TD*%
%LPD*%
M02*
