%TF.GenerationSoftware,KiCad,Pcbnew,8.0.7*%
%TF.CreationDate,2024-12-17T03:41:54-05:00*%
%TF.ProjectId,choc,63686f63-2e6b-4696-9361-645f70636258,v1.0.0*%
%TF.SameCoordinates,Original*%
%TF.FileFunction,Profile,NP*%
%FSLAX46Y46*%
G04 Gerber Fmt 4.6, Leading zero omitted, Abs format (unit mm)*
G04 Created by KiCad (PCBNEW 8.0.7) date 2024-12-17 03:41:54*
%MOMM*%
%LPD*%
G01*
G04 APERTURE LIST*
%TA.AperFunction,Profile*%
%ADD10C,0.150000*%
%TD*%
G04 APERTURE END LIST*
D10*
X254064035Y-93229264D02*
X225917139Y-111443291D01*
X128252578Y-77601877D02*
X94279189Y-71020415D01*
X189498336Y-199099556D02*
X232271502Y-199099553D01*
X232271502Y-199099553D02*
G75*
G02*
X233992235Y-199642099I99J-2999685D01*
G01*
X228918496Y-124001794D02*
G75*
G02*
X226199569Y-128269701I-2718998J-1267844D01*
G01*
X141174042Y-184603208D02*
X154701038Y-199626457D01*
X154701038Y-199626457D02*
G75*
G02*
X154928198Y-199911884I-2227742J-2006076D01*
G01*
X233992235Y-199642099D02*
X253697431Y-213439824D01*
X257874754Y-212704330D02*
X266841637Y-199911885D01*
X254064035Y-93229264D02*
G75*
G02*
X254426017Y-93029006I1629061J-2517370D01*
G01*
X332072173Y-159911074D02*
G75*
G02*
X331527969Y-160243622I-1827776J2379538D01*
G01*
X195570273Y-128269647D02*
G75*
G02*
X192851405Y-124001819I-75J2999909D01*
G01*
X360046938Y-135460669D02*
X330780134Y-72697808D01*
X267068805Y-199626450D02*
X280595790Y-184603204D01*
X327490650Y-71020422D02*
X293517258Y-77601878D01*
X332072173Y-159911074D02*
X359155497Y-139107661D01*
X90241876Y-160243609D02*
G75*
G02*
X89697667Y-159911075I1283118J2711472D01*
G01*
X293206058Y-77679628D02*
G75*
G02*
X293517258Y-77601877I881940J-2868308D01*
G01*
X62614349Y-139107662D02*
G75*
G02*
X61722914Y-135460673I1827450J2379126D01*
G01*
X167343821Y-93028990D02*
X145968259Y-83061405D01*
X167343821Y-93028990D02*
G75*
G02*
X167705809Y-93229251I-1268024J-2719346D01*
G01*
X128252578Y-77601877D02*
G75*
G02*
X128563769Y-77679635I-570979J-2946660D01*
G01*
X195852703Y-111443299D02*
G75*
G02*
X196941828Y-115229825I-1630003J-2518737D01*
G01*
X224828049Y-115229805D02*
X228918496Y-124001794D01*
X360046936Y-135460664D02*
G75*
G02*
X359155513Y-139107682I-2718941J-1267875D01*
G01*
X266841637Y-199911885D02*
G75*
G02*
X267068808Y-199626453I2455462J-1721152D01*
G01*
X257874754Y-212704330D02*
G75*
G02*
X253697452Y-213439794I-2456555J1721896D01*
G01*
X168072413Y-213439829D02*
X187777608Y-199642100D01*
X293206058Y-77679628D02*
X276187675Y-82912835D01*
X145582164Y-82912834D02*
X128563771Y-77679630D01*
X62614349Y-139107662D02*
X89697668Y-159911074D01*
X192851348Y-124001792D02*
X196941792Y-115229808D01*
X275801581Y-83061406D02*
X254426018Y-93028997D01*
X281541958Y-183898925D02*
X331527963Y-160243610D01*
X140227881Y-183898914D02*
G75*
G02*
X141174044Y-184603206I-1283083J-2711421D01*
G01*
X224828049Y-115229805D02*
G75*
G02*
X225917146Y-111443301I2718848J1267867D01*
G01*
X90989709Y-72697807D02*
G75*
G02*
X94279195Y-71020385I2718889J-1267729D01*
G01*
X187777608Y-199642100D02*
G75*
G02*
X189498336Y-199099557I1720692J-2457340D01*
G01*
X168072413Y-213439829D02*
G75*
G02*
X163895133Y-212704295I-1720717J2457294D01*
G01*
X145582164Y-82912834D02*
G75*
G02*
X145968260Y-83061403I-881966J-2868002D01*
G01*
X90989709Y-72697807D02*
X61722904Y-135460667D01*
X90241876Y-160243609D02*
X140227881Y-183898914D01*
X275801581Y-83061406D02*
G75*
G02*
X276187676Y-82912837I1267717J-2718530D01*
G01*
X327490650Y-71020422D02*
G75*
G02*
X330780107Y-72697821I570548J-2945217D01*
G01*
X154928196Y-199911885D02*
X163895087Y-212704327D01*
X280595790Y-184603204D02*
G75*
G02*
X281541954Y-183898917I2229308J-2007232D01*
G01*
X195852703Y-111443299D02*
X167705806Y-93229256D01*
X226199569Y-128269643D02*
X195570273Y-128269647D01*
M02*
