%TF.GenerationSoftware,KiCad,Pcbnew,8.0.7*%
%TF.CreationDate,2024-12-17T03:44:43-05:00*%
%TF.ProjectId,choc,63686f63-2e6b-4696-9361-645f70636258,v1.0.0*%
%TF.SameCoordinates,Original*%
%TF.FileFunction,Drillmap*%
%TF.FilePolarity,Positive*%
%FSLAX45Y45*%
G04 Gerber Fmt 4.5, Leading zero omitted, Abs format (unit mm)*
G04 Created by KiCad (PCBNEW 8.0.7) date 2024-12-17 03:44:43*
%MOMM*%
%LPD*%
G01*
G04 APERTURE LIST*
%ADD10C,0.150000*%
%ADD11C,0.200000*%
%ADD12C,0.100000*%
%ADD13C,0.109220*%
%ADD14C,0.220000*%
G04 APERTURE END LIST*
D10*
X25406403Y-9322926D02*
X22591714Y-11144329D01*
X12825258Y-7760188D02*
X9427919Y-7102041D01*
X18949834Y-19909956D02*
X23227150Y-19909955D01*
X23227150Y-19909955D02*
G75*
G02*
X23399223Y-19964210I10J-299969D01*
G01*
X22891850Y-12400179D02*
G75*
G02*
X22619957Y-12826970I-271900J-126784D01*
G01*
X14117404Y-18460321D02*
X15470104Y-19962646D01*
X15470104Y-19962646D02*
G75*
G02*
X15492820Y-19991188I-222774J-200608D01*
G01*
X23399223Y-19964210D02*
X25369743Y-21343982D01*
X25787475Y-21270433D02*
X26684164Y-19991189D01*
X25406403Y-9322926D02*
G75*
G02*
X25442602Y-9302901I162906J-251737D01*
G01*
X33207217Y-15991107D02*
G75*
G02*
X33152797Y-16024362I-182778J237954D01*
G01*
X19557027Y-12826965D02*
G75*
G02*
X19285141Y-12400182I-8J299991D01*
G01*
X36004694Y-13546067D02*
X33078013Y-7269781D01*
X26706880Y-19962645D02*
X28059579Y-18460320D01*
X32749065Y-7102042D02*
X29351726Y-7760188D01*
X33207217Y-15991107D02*
X35915550Y-13910766D01*
X9024188Y-16024361D02*
G75*
G02*
X8969767Y-15991107I128312J271147D01*
G01*
X29320606Y-7767963D02*
G75*
G02*
X29351726Y-7760188I88194J-286831D01*
G01*
X6261435Y-13910766D02*
G75*
G02*
X6172291Y-13546067I182745J237913D01*
G01*
X16734382Y-9302899D02*
X14596826Y-8306140D01*
X16734382Y-9302899D02*
G75*
G02*
X16770581Y-9322925I-126802J-271935D01*
G01*
X12825258Y-7760188D02*
G75*
G02*
X12856377Y-7767963I-57098J-294666D01*
G01*
X19585270Y-11144330D02*
G75*
G02*
X19694183Y-11522982I-163000J-251874D01*
G01*
X22482805Y-11522980D02*
X22891850Y-12400179D01*
X36004694Y-13546066D02*
G75*
G02*
X35915551Y-13910768I-271894J-126788D01*
G01*
X26684164Y-19991189D02*
G75*
G02*
X26706881Y-19962645I245546J-172115D01*
G01*
X25787475Y-21270433D02*
G75*
G02*
X25369745Y-21343979I-245656J172190D01*
G01*
X16807241Y-21343983D02*
X18777761Y-19964210D01*
X29320606Y-7767963D02*
X27618767Y-8291283D01*
X14558216Y-8291283D02*
X12856377Y-7767963D01*
X6261435Y-13910766D02*
X8969767Y-15991107D01*
X19285135Y-12400179D02*
X19694179Y-11522981D01*
X27580158Y-8306141D02*
X25442602Y-9302900D01*
X28154196Y-18389893D02*
X33152796Y-16024361D01*
X14022788Y-18389891D02*
G75*
G02*
X14117404Y-18460321I-128308J-271142D01*
G01*
X22482805Y-11522980D02*
G75*
G02*
X22591715Y-11144330I271885J126787D01*
G01*
X9098971Y-7269781D02*
G75*
G02*
X9427920Y-7102038I271889J-126773D01*
G01*
X18777761Y-19964210D02*
G75*
G02*
X18949834Y-19909956I172069J-245734D01*
G01*
X16807241Y-21343983D02*
G75*
G02*
X16389513Y-21270430I-172072J245729D01*
G01*
X14558216Y-8291283D02*
G75*
G02*
X14596826Y-8306140I-88197J-286800D01*
G01*
X9098971Y-7269781D02*
X6172290Y-13546067D01*
X9024188Y-16024361D02*
X14022788Y-18389891D01*
X27580158Y-8306141D02*
G75*
G02*
X27618768Y-8291284I126772J-271853D01*
G01*
X32749065Y-7102042D02*
G75*
G02*
X33078011Y-7269782I57055J-294522D01*
G01*
X15492820Y-19991189D02*
X16389509Y-21270433D01*
X28059579Y-18460320D02*
G75*
G02*
X28154195Y-18389892I222931J-200723D01*
G01*
X19585270Y-11144330D02*
X16770581Y-9322926D01*
X22619957Y-12826964D02*
X19557027Y-12826965D01*
D11*
D12*
X8210089Y-13926299D02*
X8240089Y-13956299D01*
X8240089Y-13926299D02*
X8210089Y-13956299D01*
X8928540Y-12385576D02*
X8958540Y-12415576D01*
X8958540Y-12385576D02*
X8928540Y-12415576D01*
X9646991Y-10844852D02*
X9676991Y-10874852D01*
X9676991Y-10844852D02*
X9646991Y-10874852D01*
X9841443Y-14687011D02*
X9871443Y-14717011D01*
X9871443Y-14687011D02*
X9841443Y-14717011D01*
X10365443Y-9304129D02*
X10395443Y-9334129D01*
X10395443Y-9304129D02*
X10365443Y-9334129D01*
X10559894Y-13146288D02*
X10589894Y-13176288D01*
X10589894Y-13146288D02*
X10559894Y-13176288D01*
X11134703Y-16172771D02*
X11164703Y-16202771D01*
X11164703Y-16172771D02*
X11134703Y-16202771D01*
X11278345Y-11605565D02*
X11308345Y-11635565D01*
X11308345Y-11605565D02*
X11278345Y-11635565D01*
X11853153Y-14632047D02*
X11883153Y-14662047D01*
X11883153Y-14632047D02*
X11853153Y-14662047D01*
X11996796Y-10064842D02*
X12026796Y-10094842D01*
X12026796Y-10064842D02*
X11996796Y-10094842D01*
X12571605Y-13091324D02*
X12601605Y-13121324D01*
X12601605Y-13091324D02*
X12571605Y-13121324D01*
X12871711Y-16706906D02*
X12901711Y-16736906D01*
X12901711Y-16706906D02*
X12871711Y-16736906D01*
X13290055Y-11550601D02*
X13320055Y-11580601D01*
X13320055Y-11550601D02*
X13290055Y-11580601D01*
X13590163Y-15166184D02*
X13620163Y-15196184D01*
X13620163Y-15166184D02*
X13590163Y-15196184D01*
X13832362Y-11913821D02*
X13862362Y-11943821D01*
X13862362Y-11913821D02*
X13832362Y-11943821D01*
X14008507Y-10009878D02*
X14038507Y-10039878D01*
X14038507Y-10009878D02*
X14008507Y-10039878D01*
X14308613Y-13625460D02*
X14338613Y-13655460D01*
X14338613Y-13625460D02*
X14308613Y-13655460D01*
X14397411Y-17694197D02*
X14427411Y-17724197D01*
X14427411Y-17694197D02*
X14397411Y-17724197D01*
X15027064Y-12084737D02*
X15057064Y-12114737D01*
X15057064Y-12084737D02*
X15027064Y-12114737D01*
X15115862Y-16153473D02*
X15145862Y-16183473D01*
X15145862Y-16153473D02*
X15115862Y-16183473D01*
X15358062Y-12901110D02*
X15388062Y-12931110D01*
X15388062Y-12901110D02*
X15358062Y-12931110D01*
X15745516Y-10544013D02*
X15775516Y-10574013D01*
X15775516Y-10544013D02*
X15745516Y-10574013D01*
X15775439Y-19182556D02*
X15805439Y-19212556D01*
X15805439Y-19182556D02*
X15775439Y-19212556D01*
X15834313Y-14612750D02*
X15864313Y-14642750D01*
X15864313Y-14612750D02*
X15834313Y-14642750D01*
X16552763Y-13072027D02*
X16582763Y-13102027D01*
X16582763Y-13072027D02*
X16552763Y-13102027D01*
X16641561Y-17140763D02*
X16671561Y-17170763D01*
X16671561Y-17140763D02*
X16641561Y-17170763D01*
X16883761Y-13888401D02*
X16913761Y-13918401D01*
X16913761Y-13888401D02*
X16883761Y-13918401D01*
X17271215Y-11531304D02*
X17301215Y-11561304D01*
X17301215Y-11531304D02*
X17271215Y-11561304D01*
X17360012Y-15600039D02*
X17390012Y-15630039D01*
X17390012Y-15600039D02*
X17360012Y-15630039D01*
X18078463Y-14059316D02*
X18108463Y-14089316D01*
X18108463Y-14059316D02*
X18078463Y-14089316D01*
X18104928Y-19494249D02*
X18134928Y-19524249D01*
X18134928Y-19494249D02*
X18104928Y-19524249D01*
X18796915Y-12518593D02*
X18826915Y-12548593D01*
X18826915Y-12518593D02*
X18796915Y-12548593D01*
X24850008Y-11819160D02*
X24880008Y-11849160D01*
X24880008Y-11819160D02*
X24850008Y-11849160D01*
X25397753Y-20443518D02*
X25427753Y-20473518D01*
X25427753Y-20443518D02*
X25397753Y-20473518D01*
X25568460Y-13359884D02*
X25598460Y-13389884D01*
X25598460Y-13359884D02*
X25568460Y-13389884D01*
X26286911Y-14900606D02*
X26316911Y-14930606D01*
X26316911Y-14900606D02*
X26286911Y-14930606D01*
X26375709Y-10831870D02*
X26405709Y-10861870D01*
X26405709Y-10831870D02*
X26375709Y-10861870D01*
X27005362Y-16441330D02*
X27035362Y-16471330D01*
X27035362Y-16441330D02*
X27005362Y-16471330D01*
X27094159Y-12372593D02*
X27124159Y-12402593D01*
X27124159Y-12372593D02*
X27094159Y-12402593D01*
X27478957Y-17952651D02*
X27508957Y-17982651D01*
X27508957Y-17952651D02*
X27478957Y-17982651D01*
X27812610Y-13913316D02*
X27842610Y-13943316D01*
X27842610Y-13913316D02*
X27812610Y-13943316D01*
X27901408Y-9844580D02*
X27931408Y-9874580D01*
X27931408Y-9844580D02*
X27901408Y-9874580D01*
X28531061Y-15454040D02*
X28561061Y-15484040D01*
X28561061Y-15454040D02*
X28531061Y-15484040D01*
X28619859Y-11385303D02*
X28649859Y-11415303D01*
X28649859Y-11385303D02*
X28619859Y-11415303D01*
X29249513Y-16994763D02*
X29279513Y-17024763D01*
X29279513Y-16994763D02*
X29249513Y-17024763D01*
X29338310Y-12926026D02*
X29368310Y-12956026D01*
X29368310Y-12926026D02*
X29338310Y-12956026D01*
X29457998Y-11656500D02*
X29487998Y-11686500D01*
X29487998Y-11656500D02*
X29457998Y-11686500D01*
X29638417Y-9310445D02*
X29668417Y-9340445D01*
X29668417Y-9310445D02*
X29638417Y-9340445D01*
X30056761Y-14466750D02*
X30086761Y-14496750D01*
X30086761Y-14466750D02*
X30056761Y-14496750D01*
X30356867Y-10851168D02*
X30386867Y-10881168D01*
X30386867Y-10851168D02*
X30356867Y-10881168D01*
X30775212Y-16007473D02*
X30805212Y-16037473D01*
X30805212Y-16007473D02*
X30775212Y-16037473D01*
X31075318Y-12391890D02*
X31105318Y-12421890D01*
X31105318Y-12391890D02*
X31075318Y-12421890D01*
X31469709Y-11711464D02*
X31499709Y-11741464D01*
X31499709Y-11711464D02*
X31469709Y-11741464D01*
X31650127Y-9365408D02*
X31680127Y-9395408D01*
X31680127Y-9365408D02*
X31650127Y-9395408D01*
X31793769Y-13932614D02*
X31823769Y-13962614D01*
X31823769Y-13932614D02*
X31793769Y-13962614D01*
X32368578Y-10906132D02*
X32398578Y-10936132D01*
X32398578Y-10906132D02*
X32368578Y-10936132D01*
X32512220Y-15473338D02*
X32542220Y-15503338D01*
X32542220Y-15473338D02*
X32512220Y-15503338D01*
X33087029Y-12446855D02*
X33117029Y-12476855D01*
X33117029Y-12446855D02*
X33087029Y-12476855D01*
X33101063Y-10950751D02*
X33131063Y-10980751D01*
X33131063Y-10950751D02*
X33101063Y-10980751D01*
X33281481Y-8604696D02*
X33311481Y-8634696D01*
X33311481Y-8604696D02*
X33281481Y-8634696D01*
X33805480Y-13987579D02*
X33835480Y-14017579D01*
X33835480Y-13987579D02*
X33805480Y-14017579D01*
X33999932Y-10145419D02*
X34029932Y-10175419D01*
X34029932Y-10145419D02*
X33999932Y-10175419D01*
X34718383Y-11686142D02*
X34748383Y-11716142D01*
X34748383Y-11686142D02*
X34718383Y-11716142D01*
X35436834Y-13226865D02*
X35466834Y-13256865D01*
X35466834Y-13226865D02*
X35436834Y-13256865D01*
X20756492Y-16642799D02*
G75*
G02*
X20656492Y-16642799I-50000J0D01*
G01*
X20656492Y-16642799D02*
G75*
G02*
X20756492Y-16642799I50000J0D01*
G01*
X20813492Y-17402800D02*
G75*
G02*
X20713492Y-17402800I-50000J0D01*
G01*
X20713492Y-17402800D02*
G75*
G02*
X20813492Y-17402800I50000J0D01*
G01*
X21010492Y-16642800D02*
G75*
G02*
X20910492Y-16642800I-50000J0D01*
G01*
X20910492Y-16642800D02*
G75*
G02*
X21010492Y-16642800I50000J0D01*
G01*
X21264492Y-16642799D02*
G75*
G02*
X21164492Y-16642799I-50000J0D01*
G01*
X21164492Y-16642799D02*
G75*
G02*
X21264492Y-16642799I50000J0D01*
G01*
X21463492Y-17402800D02*
G75*
G02*
X21363492Y-17402800I-50000J0D01*
G01*
X21363492Y-17402800D02*
G75*
G02*
X21463492Y-17402800I50000J0D01*
G01*
X21518492Y-16642800D02*
G75*
G02*
X21418492Y-16642800I-50000J0D01*
G01*
X21418492Y-16642800D02*
G75*
G02*
X21518492Y-16642800I50000J0D01*
G01*
D13*
X20326491Y-14721190D02*
X20326491Y-14830410D01*
X20271881Y-14775800D02*
X20381101Y-14775800D01*
X20326491Y-14213190D02*
X20326491Y-14322410D01*
X20271881Y-14267800D02*
X20381101Y-14267800D01*
X20326491Y-15991190D02*
X20326491Y-16100410D01*
X20271881Y-16045800D02*
X20381101Y-16045800D01*
X20326492Y-13451190D02*
X20326492Y-13560410D01*
X20271882Y-13505800D02*
X20381102Y-13505800D01*
X20326492Y-13959190D02*
X20326492Y-14068410D01*
X20271882Y-14013800D02*
X20381102Y-14013800D01*
X20326492Y-14975190D02*
X20326492Y-15084410D01*
X20271882Y-15029800D02*
X20381102Y-15029800D01*
X20326492Y-15483190D02*
X20326492Y-15592410D01*
X20271882Y-15537800D02*
X20381102Y-15537800D01*
X20326492Y-15737190D02*
X20326492Y-15846410D01*
X20271882Y-15791800D02*
X20381102Y-15791800D01*
X20326492Y-16245190D02*
X20326492Y-16354410D01*
X20271882Y-16299800D02*
X20381102Y-16299800D01*
X20326492Y-13705190D02*
X20326492Y-13814410D01*
X20271882Y-13759800D02*
X20381102Y-13759800D01*
X20326492Y-14467190D02*
X20326492Y-14576410D01*
X20271882Y-14521800D02*
X20381102Y-14521800D01*
X20326492Y-15229190D02*
X20326492Y-15338410D01*
X20271882Y-15283800D02*
X20381102Y-15283800D01*
X21850491Y-14467190D02*
X21850491Y-14576410D01*
X21795881Y-14521800D02*
X21905101Y-14521800D01*
X21850491Y-15229190D02*
X21850491Y-15338410D01*
X21795881Y-15283800D02*
X21905101Y-15283800D01*
X21850491Y-15991190D02*
X21850491Y-16100410D01*
X21795881Y-16045800D02*
X21905101Y-16045800D01*
X21850492Y-13451190D02*
X21850492Y-13560410D01*
X21795882Y-13505800D02*
X21905102Y-13505800D01*
X21850492Y-13959190D02*
X21850492Y-14068410D01*
X21795882Y-14013800D02*
X21905102Y-14013800D01*
X21850492Y-14213190D02*
X21850492Y-14322410D01*
X21795882Y-14267800D02*
X21905102Y-14267800D01*
X21850492Y-14721190D02*
X21850492Y-14830410D01*
X21795882Y-14775800D02*
X21905102Y-14775800D01*
X21850492Y-15737190D02*
X21850492Y-15846410D01*
X21795882Y-15791800D02*
X21905102Y-15791800D01*
X21850492Y-16245190D02*
X21850492Y-16354410D01*
X21795882Y-16299800D02*
X21905102Y-16299800D01*
X21850492Y-13705190D02*
X21850492Y-13814410D01*
X21795882Y-13759800D02*
X21905102Y-13759800D01*
X21850492Y-15483190D02*
X21850492Y-15592410D01*
X21795882Y-15537800D02*
X21905102Y-15537800D01*
X21850492Y-14975190D02*
X21850492Y-15084410D01*
X21795882Y-15029800D02*
X21905102Y-15029800D01*
D14*
X8896852Y-12916836D02*
X8896852Y-12761271D01*
X8741287Y-12761271D01*
X8741287Y-12916836D01*
X8896852Y-12916836D01*
X10333754Y-9835390D02*
X10333754Y-9679825D01*
X10178189Y-9679825D01*
X10178189Y-9835390D01*
X10333754Y-9835390D01*
X15084173Y-16684734D02*
X15084173Y-16529169D01*
X14928608Y-16529169D01*
X14928608Y-16684734D01*
X15084173Y-16684734D01*
X17239526Y-12062564D02*
X17239526Y-11906999D01*
X17083961Y-11906999D01*
X17083961Y-12062564D01*
X17239526Y-12062564D01*
X25198677Y-12289141D02*
X25198677Y-12133576D01*
X25043112Y-12133576D01*
X25043112Y-12289141D01*
X25198677Y-12289141D01*
X27354030Y-16911311D02*
X27354030Y-16755746D01*
X27198465Y-16755746D01*
X27198465Y-16911311D01*
X27354030Y-16911311D01*
X31998795Y-9835390D02*
X31998795Y-9679825D01*
X31843230Y-9679825D01*
X31843230Y-9835390D01*
X31998795Y-9835390D01*
X33435697Y-12916836D02*
X33435697Y-12761271D01*
X33280132Y-12761271D01*
X33280132Y-12916836D01*
X33435697Y-12916836D01*
D11*
X6397460Y-21717223D02*
X6397460Y-21517223D01*
X6397460Y-21517223D02*
X6445079Y-21517223D01*
X6445079Y-21517223D02*
X6473650Y-21526747D01*
X6473650Y-21526747D02*
X6492698Y-21545795D01*
X6492698Y-21545795D02*
X6502222Y-21564842D01*
X6502222Y-21564842D02*
X6511745Y-21602938D01*
X6511745Y-21602938D02*
X6511745Y-21631509D01*
X6511745Y-21631509D02*
X6502222Y-21669604D01*
X6502222Y-21669604D02*
X6492698Y-21688652D01*
X6492698Y-21688652D02*
X6473650Y-21707700D01*
X6473650Y-21707700D02*
X6445079Y-21717223D01*
X6445079Y-21717223D02*
X6397460Y-21717223D01*
X6597460Y-21717223D02*
X6597460Y-21583890D01*
X6597460Y-21621985D02*
X6606984Y-21602938D01*
X6606984Y-21602938D02*
X6616507Y-21593414D01*
X6616507Y-21593414D02*
X6635555Y-21583890D01*
X6635555Y-21583890D02*
X6654603Y-21583890D01*
X6721269Y-21717223D02*
X6721269Y-21583890D01*
X6721269Y-21517223D02*
X6711745Y-21526747D01*
X6711745Y-21526747D02*
X6721269Y-21536271D01*
X6721269Y-21536271D02*
X6730793Y-21526747D01*
X6730793Y-21526747D02*
X6721269Y-21517223D01*
X6721269Y-21517223D02*
X6721269Y-21536271D01*
X6845079Y-21717223D02*
X6826031Y-21707700D01*
X6826031Y-21707700D02*
X6816507Y-21688652D01*
X6816507Y-21688652D02*
X6816507Y-21517223D01*
X6949841Y-21717223D02*
X6930793Y-21707700D01*
X6930793Y-21707700D02*
X6921269Y-21688652D01*
X6921269Y-21688652D02*
X6921269Y-21517223D01*
X7178412Y-21717223D02*
X7178412Y-21517223D01*
X7178412Y-21517223D02*
X7245079Y-21660080D01*
X7245079Y-21660080D02*
X7311745Y-21517223D01*
X7311745Y-21517223D02*
X7311745Y-21717223D01*
X7492698Y-21717223D02*
X7492698Y-21612461D01*
X7492698Y-21612461D02*
X7483174Y-21593414D01*
X7483174Y-21593414D02*
X7464126Y-21583890D01*
X7464126Y-21583890D02*
X7426031Y-21583890D01*
X7426031Y-21583890D02*
X7406984Y-21593414D01*
X7492698Y-21707700D02*
X7473650Y-21717223D01*
X7473650Y-21717223D02*
X7426031Y-21717223D01*
X7426031Y-21717223D02*
X7406984Y-21707700D01*
X7406984Y-21707700D02*
X7397460Y-21688652D01*
X7397460Y-21688652D02*
X7397460Y-21669604D01*
X7397460Y-21669604D02*
X7406984Y-21650557D01*
X7406984Y-21650557D02*
X7426031Y-21641033D01*
X7426031Y-21641033D02*
X7473650Y-21641033D01*
X7473650Y-21641033D02*
X7492698Y-21631509D01*
X7587936Y-21583890D02*
X7587936Y-21783890D01*
X7587936Y-21593414D02*
X7606984Y-21583890D01*
X7606984Y-21583890D02*
X7645079Y-21583890D01*
X7645079Y-21583890D02*
X7664126Y-21593414D01*
X7664126Y-21593414D02*
X7673650Y-21602938D01*
X7673650Y-21602938D02*
X7683174Y-21621985D01*
X7683174Y-21621985D02*
X7683174Y-21679128D01*
X7683174Y-21679128D02*
X7673650Y-21698176D01*
X7673650Y-21698176D02*
X7664126Y-21707700D01*
X7664126Y-21707700D02*
X7645079Y-21717223D01*
X7645079Y-21717223D02*
X7606984Y-21717223D01*
X7606984Y-21717223D02*
X7587936Y-21707700D01*
X7768888Y-21698176D02*
X7778412Y-21707700D01*
X7778412Y-21707700D02*
X7768888Y-21717223D01*
X7768888Y-21717223D02*
X7759365Y-21707700D01*
X7759365Y-21707700D02*
X7768888Y-21698176D01*
X7768888Y-21698176D02*
X7768888Y-21717223D01*
X7768888Y-21593414D02*
X7778412Y-21602938D01*
X7778412Y-21602938D02*
X7768888Y-21612461D01*
X7768888Y-21612461D02*
X7759365Y-21602938D01*
X7759365Y-21602938D02*
X7768888Y-21593414D01*
X7768888Y-21593414D02*
X7768888Y-21612461D01*
D12*
X6106683Y-22030740D02*
X6136683Y-22060740D01*
X6136683Y-22030740D02*
X6106683Y-22060740D01*
D11*
X6435555Y-21937223D02*
X6454603Y-21937223D01*
X6454603Y-21937223D02*
X6473650Y-21946747D01*
X6473650Y-21946747D02*
X6483174Y-21956271D01*
X6483174Y-21956271D02*
X6492698Y-21975319D01*
X6492698Y-21975319D02*
X6502222Y-22013414D01*
X6502222Y-22013414D02*
X6502222Y-22061033D01*
X6502222Y-22061033D02*
X6492698Y-22099128D01*
X6492698Y-22099128D02*
X6483174Y-22118176D01*
X6483174Y-22118176D02*
X6473650Y-22127700D01*
X6473650Y-22127700D02*
X6454603Y-22137223D01*
X6454603Y-22137223D02*
X6435555Y-22137223D01*
X6435555Y-22137223D02*
X6416507Y-22127700D01*
X6416507Y-22127700D02*
X6406984Y-22118176D01*
X6406984Y-22118176D02*
X6397460Y-22099128D01*
X6397460Y-22099128D02*
X6387936Y-22061033D01*
X6387936Y-22061033D02*
X6387936Y-22013414D01*
X6387936Y-22013414D02*
X6397460Y-21975319D01*
X6397460Y-21975319D02*
X6406984Y-21956271D01*
X6406984Y-21956271D02*
X6416507Y-21946747D01*
X6416507Y-21946747D02*
X6435555Y-21937223D01*
X6587936Y-22118176D02*
X6597460Y-22127700D01*
X6597460Y-22127700D02*
X6587936Y-22137223D01*
X6587936Y-22137223D02*
X6578412Y-22127700D01*
X6578412Y-22127700D02*
X6587936Y-22118176D01*
X6587936Y-22118176D02*
X6587936Y-22137223D01*
X6664126Y-21937223D02*
X6787936Y-21937223D01*
X6787936Y-21937223D02*
X6721269Y-22013414D01*
X6721269Y-22013414D02*
X6749841Y-22013414D01*
X6749841Y-22013414D02*
X6768888Y-22022938D01*
X6768888Y-22022938D02*
X6778412Y-22032461D01*
X6778412Y-22032461D02*
X6787936Y-22051509D01*
X6787936Y-22051509D02*
X6787936Y-22099128D01*
X6787936Y-22099128D02*
X6778412Y-22118176D01*
X6778412Y-22118176D02*
X6768888Y-22127700D01*
X6768888Y-22127700D02*
X6749841Y-22137223D01*
X6749841Y-22137223D02*
X6692698Y-22137223D01*
X6692698Y-22137223D02*
X6673650Y-22127700D01*
X6673650Y-22127700D02*
X6664126Y-22118176D01*
X6911745Y-21937223D02*
X6930793Y-21937223D01*
X6930793Y-21937223D02*
X6949841Y-21946747D01*
X6949841Y-21946747D02*
X6959365Y-21956271D01*
X6959365Y-21956271D02*
X6968888Y-21975319D01*
X6968888Y-21975319D02*
X6978412Y-22013414D01*
X6978412Y-22013414D02*
X6978412Y-22061033D01*
X6978412Y-22061033D02*
X6968888Y-22099128D01*
X6968888Y-22099128D02*
X6959365Y-22118176D01*
X6959365Y-22118176D02*
X6949841Y-22127700D01*
X6949841Y-22127700D02*
X6930793Y-22137223D01*
X6930793Y-22137223D02*
X6911745Y-22137223D01*
X6911745Y-22137223D02*
X6892698Y-22127700D01*
X6892698Y-22127700D02*
X6883174Y-22118176D01*
X6883174Y-22118176D02*
X6873650Y-22099128D01*
X6873650Y-22099128D02*
X6864126Y-22061033D01*
X6864126Y-22061033D02*
X6864126Y-22013414D01*
X6864126Y-22013414D02*
X6873650Y-21975319D01*
X6873650Y-21975319D02*
X6883174Y-21956271D01*
X6883174Y-21956271D02*
X6892698Y-21946747D01*
X6892698Y-21946747D02*
X6911745Y-21937223D01*
X7102222Y-21937223D02*
X7121269Y-21937223D01*
X7121269Y-21937223D02*
X7140317Y-21946747D01*
X7140317Y-21946747D02*
X7149841Y-21956271D01*
X7149841Y-21956271D02*
X7159365Y-21975319D01*
X7159365Y-21975319D02*
X7168888Y-22013414D01*
X7168888Y-22013414D02*
X7168888Y-22061033D01*
X7168888Y-22061033D02*
X7159365Y-22099128D01*
X7159365Y-22099128D02*
X7149841Y-22118176D01*
X7149841Y-22118176D02*
X7140317Y-22127700D01*
X7140317Y-22127700D02*
X7121269Y-22137223D01*
X7121269Y-22137223D02*
X7102222Y-22137223D01*
X7102222Y-22137223D02*
X7083174Y-22127700D01*
X7083174Y-22127700D02*
X7073650Y-22118176D01*
X7073650Y-22118176D02*
X7064126Y-22099128D01*
X7064126Y-22099128D02*
X7054603Y-22061033D01*
X7054603Y-22061033D02*
X7054603Y-22013414D01*
X7054603Y-22013414D02*
X7064126Y-21975319D01*
X7064126Y-21975319D02*
X7073650Y-21956271D01*
X7073650Y-21956271D02*
X7083174Y-21946747D01*
X7083174Y-21946747D02*
X7102222Y-21937223D01*
X7254603Y-22137223D02*
X7254603Y-22003890D01*
X7254603Y-22022938D02*
X7264126Y-22013414D01*
X7264126Y-22013414D02*
X7283174Y-22003890D01*
X7283174Y-22003890D02*
X7311746Y-22003890D01*
X7311746Y-22003890D02*
X7330793Y-22013414D01*
X7330793Y-22013414D02*
X7340317Y-22032461D01*
X7340317Y-22032461D02*
X7340317Y-22137223D01*
X7340317Y-22032461D02*
X7349841Y-22013414D01*
X7349841Y-22013414D02*
X7368888Y-22003890D01*
X7368888Y-22003890D02*
X7397460Y-22003890D01*
X7397460Y-22003890D02*
X7416507Y-22013414D01*
X7416507Y-22013414D02*
X7426031Y-22032461D01*
X7426031Y-22032461D02*
X7426031Y-22137223D01*
X7521269Y-22137223D02*
X7521269Y-22003890D01*
X7521269Y-22022938D02*
X7530793Y-22013414D01*
X7530793Y-22013414D02*
X7549841Y-22003890D01*
X7549841Y-22003890D02*
X7578412Y-22003890D01*
X7578412Y-22003890D02*
X7597460Y-22013414D01*
X7597460Y-22013414D02*
X7606984Y-22032461D01*
X7606984Y-22032461D02*
X7606984Y-22137223D01*
X7606984Y-22032461D02*
X7616507Y-22013414D01*
X7616507Y-22013414D02*
X7635555Y-22003890D01*
X7635555Y-22003890D02*
X7664126Y-22003890D01*
X7664126Y-22003890D02*
X7683174Y-22013414D01*
X7683174Y-22013414D02*
X7692698Y-22032461D01*
X7692698Y-22032461D02*
X7692698Y-22137223D01*
X8083174Y-21927700D02*
X7911746Y-22184842D01*
X8340317Y-21937223D02*
X8359365Y-21937223D01*
X8359365Y-21937223D02*
X8378412Y-21946747D01*
X8378412Y-21946747D02*
X8387936Y-21956271D01*
X8387936Y-21956271D02*
X8397460Y-21975319D01*
X8397460Y-21975319D02*
X8406984Y-22013414D01*
X8406984Y-22013414D02*
X8406984Y-22061033D01*
X8406984Y-22061033D02*
X8397460Y-22099128D01*
X8397460Y-22099128D02*
X8387936Y-22118176D01*
X8387936Y-22118176D02*
X8378412Y-22127700D01*
X8378412Y-22127700D02*
X8359365Y-22137223D01*
X8359365Y-22137223D02*
X8340317Y-22137223D01*
X8340317Y-22137223D02*
X8321269Y-22127700D01*
X8321269Y-22127700D02*
X8311746Y-22118176D01*
X8311746Y-22118176D02*
X8302222Y-22099128D01*
X8302222Y-22099128D02*
X8292698Y-22061033D01*
X8292698Y-22061033D02*
X8292698Y-22013414D01*
X8292698Y-22013414D02*
X8302222Y-21975319D01*
X8302222Y-21975319D02*
X8311746Y-21956271D01*
X8311746Y-21956271D02*
X8321269Y-21946747D01*
X8321269Y-21946747D02*
X8340317Y-21937223D01*
X8492698Y-22118176D02*
X8502222Y-22127700D01*
X8502222Y-22127700D02*
X8492698Y-22137223D01*
X8492698Y-22137223D02*
X8483174Y-22127700D01*
X8483174Y-22127700D02*
X8492698Y-22118176D01*
X8492698Y-22118176D02*
X8492698Y-22137223D01*
X8626031Y-21937223D02*
X8645079Y-21937223D01*
X8645079Y-21937223D02*
X8664127Y-21946747D01*
X8664127Y-21946747D02*
X8673651Y-21956271D01*
X8673651Y-21956271D02*
X8683174Y-21975319D01*
X8683174Y-21975319D02*
X8692698Y-22013414D01*
X8692698Y-22013414D02*
X8692698Y-22061033D01*
X8692698Y-22061033D02*
X8683174Y-22099128D01*
X8683174Y-22099128D02*
X8673651Y-22118176D01*
X8673651Y-22118176D02*
X8664127Y-22127700D01*
X8664127Y-22127700D02*
X8645079Y-22137223D01*
X8645079Y-22137223D02*
X8626031Y-22137223D01*
X8626031Y-22137223D02*
X8606984Y-22127700D01*
X8606984Y-22127700D02*
X8597460Y-22118176D01*
X8597460Y-22118176D02*
X8587936Y-22099128D01*
X8587936Y-22099128D02*
X8578412Y-22061033D01*
X8578412Y-22061033D02*
X8578412Y-22013414D01*
X8578412Y-22013414D02*
X8587936Y-21975319D01*
X8587936Y-21975319D02*
X8597460Y-21956271D01*
X8597460Y-21956271D02*
X8606984Y-21946747D01*
X8606984Y-21946747D02*
X8626031Y-21937223D01*
X8883174Y-22137223D02*
X8768889Y-22137223D01*
X8826031Y-22137223D02*
X8826031Y-21937223D01*
X8826031Y-21937223D02*
X8806984Y-21965795D01*
X8806984Y-21965795D02*
X8787936Y-21984842D01*
X8787936Y-21984842D02*
X8768889Y-21994366D01*
X9073651Y-22137223D02*
X8959365Y-22137223D01*
X9016508Y-22137223D02*
X9016508Y-21937223D01*
X9016508Y-21937223D02*
X8997460Y-21965795D01*
X8997460Y-21965795D02*
X8978412Y-21984842D01*
X8978412Y-21984842D02*
X8959365Y-21994366D01*
X9187936Y-22022938D02*
X9168889Y-22013414D01*
X9168889Y-22013414D02*
X9159365Y-22003890D01*
X9159365Y-22003890D02*
X9149841Y-21984842D01*
X9149841Y-21984842D02*
X9149841Y-21975319D01*
X9149841Y-21975319D02*
X9159365Y-21956271D01*
X9159365Y-21956271D02*
X9168889Y-21946747D01*
X9168889Y-21946747D02*
X9187936Y-21937223D01*
X9187936Y-21937223D02*
X9226032Y-21937223D01*
X9226032Y-21937223D02*
X9245079Y-21946747D01*
X9245079Y-21946747D02*
X9254603Y-21956271D01*
X9254603Y-21956271D02*
X9264127Y-21975319D01*
X9264127Y-21975319D02*
X9264127Y-21984842D01*
X9264127Y-21984842D02*
X9254603Y-22003890D01*
X9254603Y-22003890D02*
X9245079Y-22013414D01*
X9245079Y-22013414D02*
X9226032Y-22022938D01*
X9226032Y-22022938D02*
X9187936Y-22022938D01*
X9187936Y-22022938D02*
X9168889Y-22032461D01*
X9168889Y-22032461D02*
X9159365Y-22041985D01*
X9159365Y-22041985D02*
X9149841Y-22061033D01*
X9149841Y-22061033D02*
X9149841Y-22099128D01*
X9149841Y-22099128D02*
X9159365Y-22118176D01*
X9159365Y-22118176D02*
X9168889Y-22127700D01*
X9168889Y-22127700D02*
X9187936Y-22137223D01*
X9187936Y-22137223D02*
X9226032Y-22137223D01*
X9226032Y-22137223D02*
X9245079Y-22127700D01*
X9245079Y-22127700D02*
X9254603Y-22118176D01*
X9254603Y-22118176D02*
X9264127Y-22099128D01*
X9264127Y-22099128D02*
X9264127Y-22061033D01*
X9264127Y-22061033D02*
X9254603Y-22041985D01*
X9254603Y-22041985D02*
X9245079Y-22032461D01*
X9245079Y-22032461D02*
X9226032Y-22022938D01*
X9340317Y-21937223D02*
X9340317Y-21975319D01*
X9416508Y-21937223D02*
X9416508Y-21975319D01*
X9711746Y-22213414D02*
X9702222Y-22203890D01*
X9702222Y-22203890D02*
X9683174Y-22175319D01*
X9683174Y-22175319D02*
X9673651Y-22156271D01*
X9673651Y-22156271D02*
X9664127Y-22127700D01*
X9664127Y-22127700D02*
X9654603Y-22080080D01*
X9654603Y-22080080D02*
X9654603Y-22041985D01*
X9654603Y-22041985D02*
X9664127Y-21994366D01*
X9664127Y-21994366D02*
X9673651Y-21965795D01*
X9673651Y-21965795D02*
X9683174Y-21946747D01*
X9683174Y-21946747D02*
X9702222Y-21918176D01*
X9702222Y-21918176D02*
X9711746Y-21908652D01*
X9873651Y-21937223D02*
X9835555Y-21937223D01*
X9835555Y-21937223D02*
X9816508Y-21946747D01*
X9816508Y-21946747D02*
X9806984Y-21956271D01*
X9806984Y-21956271D02*
X9787936Y-21984842D01*
X9787936Y-21984842D02*
X9778413Y-22022938D01*
X9778413Y-22022938D02*
X9778413Y-22099128D01*
X9778413Y-22099128D02*
X9787936Y-22118176D01*
X9787936Y-22118176D02*
X9797460Y-22127700D01*
X9797460Y-22127700D02*
X9816508Y-22137223D01*
X9816508Y-22137223D02*
X9854603Y-22137223D01*
X9854603Y-22137223D02*
X9873651Y-22127700D01*
X9873651Y-22127700D02*
X9883174Y-22118176D01*
X9883174Y-22118176D02*
X9892698Y-22099128D01*
X9892698Y-22099128D02*
X9892698Y-22051509D01*
X9892698Y-22051509D02*
X9883174Y-22032461D01*
X9883174Y-22032461D02*
X9873651Y-22022938D01*
X9873651Y-22022938D02*
X9854603Y-22013414D01*
X9854603Y-22013414D02*
X9816508Y-22013414D01*
X9816508Y-22013414D02*
X9797460Y-22022938D01*
X9797460Y-22022938D02*
X9787936Y-22032461D01*
X9787936Y-22032461D02*
X9778413Y-22051509D01*
X10064127Y-22003890D02*
X10064127Y-22137223D01*
X10016508Y-21927700D02*
X9968889Y-22070557D01*
X9968889Y-22070557D02*
X10092698Y-22070557D01*
X10321270Y-22137223D02*
X10321270Y-21937223D01*
X10406984Y-22137223D02*
X10406984Y-22032461D01*
X10406984Y-22032461D02*
X10397460Y-22013414D01*
X10397460Y-22013414D02*
X10378413Y-22003890D01*
X10378413Y-22003890D02*
X10349841Y-22003890D01*
X10349841Y-22003890D02*
X10330794Y-22013414D01*
X10330794Y-22013414D02*
X10321270Y-22022938D01*
X10530794Y-22137223D02*
X10511746Y-22127700D01*
X10511746Y-22127700D02*
X10502222Y-22118176D01*
X10502222Y-22118176D02*
X10492698Y-22099128D01*
X10492698Y-22099128D02*
X10492698Y-22041985D01*
X10492698Y-22041985D02*
X10502222Y-22022938D01*
X10502222Y-22022938D02*
X10511746Y-22013414D01*
X10511746Y-22013414D02*
X10530794Y-22003890D01*
X10530794Y-22003890D02*
X10559365Y-22003890D01*
X10559365Y-22003890D02*
X10578413Y-22013414D01*
X10578413Y-22013414D02*
X10587936Y-22022938D01*
X10587936Y-22022938D02*
X10597460Y-22041985D01*
X10597460Y-22041985D02*
X10597460Y-22099128D01*
X10597460Y-22099128D02*
X10587936Y-22118176D01*
X10587936Y-22118176D02*
X10578413Y-22127700D01*
X10578413Y-22127700D02*
X10559365Y-22137223D01*
X10559365Y-22137223D02*
X10530794Y-22137223D01*
X10711746Y-22137223D02*
X10692698Y-22127700D01*
X10692698Y-22127700D02*
X10683175Y-22108652D01*
X10683175Y-22108652D02*
X10683175Y-21937223D01*
X10864127Y-22127700D02*
X10845079Y-22137223D01*
X10845079Y-22137223D02*
X10806984Y-22137223D01*
X10806984Y-22137223D02*
X10787936Y-22127700D01*
X10787936Y-22127700D02*
X10778413Y-22108652D01*
X10778413Y-22108652D02*
X10778413Y-22032461D01*
X10778413Y-22032461D02*
X10787936Y-22013414D01*
X10787936Y-22013414D02*
X10806984Y-22003890D01*
X10806984Y-22003890D02*
X10845079Y-22003890D01*
X10845079Y-22003890D02*
X10864127Y-22013414D01*
X10864127Y-22013414D02*
X10873651Y-22032461D01*
X10873651Y-22032461D02*
X10873651Y-22051509D01*
X10873651Y-22051509D02*
X10778413Y-22070557D01*
X10949841Y-22127700D02*
X10968889Y-22137223D01*
X10968889Y-22137223D02*
X11006984Y-22137223D01*
X11006984Y-22137223D02*
X11026032Y-22127700D01*
X11026032Y-22127700D02*
X11035556Y-22108652D01*
X11035556Y-22108652D02*
X11035556Y-22099128D01*
X11035556Y-22099128D02*
X11026032Y-22080080D01*
X11026032Y-22080080D02*
X11006984Y-22070557D01*
X11006984Y-22070557D02*
X10978413Y-22070557D01*
X10978413Y-22070557D02*
X10959365Y-22061033D01*
X10959365Y-22061033D02*
X10949841Y-22041985D01*
X10949841Y-22041985D02*
X10949841Y-22032461D01*
X10949841Y-22032461D02*
X10959365Y-22013414D01*
X10959365Y-22013414D02*
X10978413Y-22003890D01*
X10978413Y-22003890D02*
X11006984Y-22003890D01*
X11006984Y-22003890D02*
X11026032Y-22013414D01*
X11102222Y-22213414D02*
X11111746Y-22203890D01*
X11111746Y-22203890D02*
X11130794Y-22175319D01*
X11130794Y-22175319D02*
X11140317Y-22156271D01*
X11140317Y-22156271D02*
X11149841Y-22127700D01*
X11149841Y-22127700D02*
X11159365Y-22080080D01*
X11159365Y-22080080D02*
X11159365Y-22041985D01*
X11159365Y-22041985D02*
X11149841Y-21994366D01*
X11149841Y-21994366D02*
X11140317Y-21965795D01*
X11140317Y-21965795D02*
X11130794Y-21946747D01*
X11130794Y-21946747D02*
X11111746Y-21918176D01*
X11111746Y-21918176D02*
X11102222Y-21908652D01*
D12*
X6136683Y-22309740D02*
G75*
G02*
X6036683Y-22309740I-50000J0D01*
G01*
X6036683Y-22309740D02*
G75*
G02*
X6136683Y-22309740I50000J0D01*
G01*
D11*
X6502222Y-22401223D02*
X6387936Y-22401223D01*
X6445079Y-22401223D02*
X6445079Y-22201223D01*
X6445079Y-22201223D02*
X6426031Y-22229795D01*
X6426031Y-22229795D02*
X6406984Y-22248842D01*
X6406984Y-22248842D02*
X6387936Y-22258366D01*
X6587936Y-22382176D02*
X6597460Y-22391699D01*
X6597460Y-22391699D02*
X6587936Y-22401223D01*
X6587936Y-22401223D02*
X6578412Y-22391699D01*
X6578412Y-22391699D02*
X6587936Y-22382176D01*
X6587936Y-22382176D02*
X6587936Y-22401223D01*
X6721269Y-22201223D02*
X6740317Y-22201223D01*
X6740317Y-22201223D02*
X6759365Y-22210747D01*
X6759365Y-22210747D02*
X6768888Y-22220271D01*
X6768888Y-22220271D02*
X6778412Y-22239319D01*
X6778412Y-22239319D02*
X6787936Y-22277414D01*
X6787936Y-22277414D02*
X6787936Y-22325033D01*
X6787936Y-22325033D02*
X6778412Y-22363128D01*
X6778412Y-22363128D02*
X6768888Y-22382176D01*
X6768888Y-22382176D02*
X6759365Y-22391699D01*
X6759365Y-22391699D02*
X6740317Y-22401223D01*
X6740317Y-22401223D02*
X6721269Y-22401223D01*
X6721269Y-22401223D02*
X6702222Y-22391699D01*
X6702222Y-22391699D02*
X6692698Y-22382176D01*
X6692698Y-22382176D02*
X6683174Y-22363128D01*
X6683174Y-22363128D02*
X6673650Y-22325033D01*
X6673650Y-22325033D02*
X6673650Y-22277414D01*
X6673650Y-22277414D02*
X6683174Y-22239319D01*
X6683174Y-22239319D02*
X6692698Y-22220271D01*
X6692698Y-22220271D02*
X6702222Y-22210747D01*
X6702222Y-22210747D02*
X6721269Y-22201223D01*
X6911745Y-22201223D02*
X6930793Y-22201223D01*
X6930793Y-22201223D02*
X6949841Y-22210747D01*
X6949841Y-22210747D02*
X6959365Y-22220271D01*
X6959365Y-22220271D02*
X6968888Y-22239319D01*
X6968888Y-22239319D02*
X6978412Y-22277414D01*
X6978412Y-22277414D02*
X6978412Y-22325033D01*
X6978412Y-22325033D02*
X6968888Y-22363128D01*
X6968888Y-22363128D02*
X6959365Y-22382176D01*
X6959365Y-22382176D02*
X6949841Y-22391699D01*
X6949841Y-22391699D02*
X6930793Y-22401223D01*
X6930793Y-22401223D02*
X6911745Y-22401223D01*
X6911745Y-22401223D02*
X6892698Y-22391699D01*
X6892698Y-22391699D02*
X6883174Y-22382176D01*
X6883174Y-22382176D02*
X6873650Y-22363128D01*
X6873650Y-22363128D02*
X6864126Y-22325033D01*
X6864126Y-22325033D02*
X6864126Y-22277414D01*
X6864126Y-22277414D02*
X6873650Y-22239319D01*
X6873650Y-22239319D02*
X6883174Y-22220271D01*
X6883174Y-22220271D02*
X6892698Y-22210747D01*
X6892698Y-22210747D02*
X6911745Y-22201223D01*
X7102222Y-22201223D02*
X7121269Y-22201223D01*
X7121269Y-22201223D02*
X7140317Y-22210747D01*
X7140317Y-22210747D02*
X7149841Y-22220271D01*
X7149841Y-22220271D02*
X7159365Y-22239319D01*
X7159365Y-22239319D02*
X7168888Y-22277414D01*
X7168888Y-22277414D02*
X7168888Y-22325033D01*
X7168888Y-22325033D02*
X7159365Y-22363128D01*
X7159365Y-22363128D02*
X7149841Y-22382176D01*
X7149841Y-22382176D02*
X7140317Y-22391699D01*
X7140317Y-22391699D02*
X7121269Y-22401223D01*
X7121269Y-22401223D02*
X7102222Y-22401223D01*
X7102222Y-22401223D02*
X7083174Y-22391699D01*
X7083174Y-22391699D02*
X7073650Y-22382176D01*
X7073650Y-22382176D02*
X7064126Y-22363128D01*
X7064126Y-22363128D02*
X7054603Y-22325033D01*
X7054603Y-22325033D02*
X7054603Y-22277414D01*
X7054603Y-22277414D02*
X7064126Y-22239319D01*
X7064126Y-22239319D02*
X7073650Y-22220271D01*
X7073650Y-22220271D02*
X7083174Y-22210747D01*
X7083174Y-22210747D02*
X7102222Y-22201223D01*
X7254603Y-22401223D02*
X7254603Y-22267890D01*
X7254603Y-22286938D02*
X7264126Y-22277414D01*
X7264126Y-22277414D02*
X7283174Y-22267890D01*
X7283174Y-22267890D02*
X7311746Y-22267890D01*
X7311746Y-22267890D02*
X7330793Y-22277414D01*
X7330793Y-22277414D02*
X7340317Y-22296461D01*
X7340317Y-22296461D02*
X7340317Y-22401223D01*
X7340317Y-22296461D02*
X7349841Y-22277414D01*
X7349841Y-22277414D02*
X7368888Y-22267890D01*
X7368888Y-22267890D02*
X7397460Y-22267890D01*
X7397460Y-22267890D02*
X7416507Y-22277414D01*
X7416507Y-22277414D02*
X7426031Y-22296461D01*
X7426031Y-22296461D02*
X7426031Y-22401223D01*
X7521269Y-22401223D02*
X7521269Y-22267890D01*
X7521269Y-22286938D02*
X7530793Y-22277414D01*
X7530793Y-22277414D02*
X7549841Y-22267890D01*
X7549841Y-22267890D02*
X7578412Y-22267890D01*
X7578412Y-22267890D02*
X7597460Y-22277414D01*
X7597460Y-22277414D02*
X7606984Y-22296461D01*
X7606984Y-22296461D02*
X7606984Y-22401223D01*
X7606984Y-22296461D02*
X7616507Y-22277414D01*
X7616507Y-22277414D02*
X7635555Y-22267890D01*
X7635555Y-22267890D02*
X7664126Y-22267890D01*
X7664126Y-22267890D02*
X7683174Y-22277414D01*
X7683174Y-22277414D02*
X7692698Y-22296461D01*
X7692698Y-22296461D02*
X7692698Y-22401223D01*
X8083174Y-22191700D02*
X7911746Y-22448842D01*
X8340317Y-22201223D02*
X8359365Y-22201223D01*
X8359365Y-22201223D02*
X8378412Y-22210747D01*
X8378412Y-22210747D02*
X8387936Y-22220271D01*
X8387936Y-22220271D02*
X8397460Y-22239319D01*
X8397460Y-22239319D02*
X8406984Y-22277414D01*
X8406984Y-22277414D02*
X8406984Y-22325033D01*
X8406984Y-22325033D02*
X8397460Y-22363128D01*
X8397460Y-22363128D02*
X8387936Y-22382176D01*
X8387936Y-22382176D02*
X8378412Y-22391699D01*
X8378412Y-22391699D02*
X8359365Y-22401223D01*
X8359365Y-22401223D02*
X8340317Y-22401223D01*
X8340317Y-22401223D02*
X8321269Y-22391699D01*
X8321269Y-22391699D02*
X8311746Y-22382176D01*
X8311746Y-22382176D02*
X8302222Y-22363128D01*
X8302222Y-22363128D02*
X8292698Y-22325033D01*
X8292698Y-22325033D02*
X8292698Y-22277414D01*
X8292698Y-22277414D02*
X8302222Y-22239319D01*
X8302222Y-22239319D02*
X8311746Y-22220271D01*
X8311746Y-22220271D02*
X8321269Y-22210747D01*
X8321269Y-22210747D02*
X8340317Y-22201223D01*
X8492698Y-22382176D02*
X8502222Y-22391699D01*
X8502222Y-22391699D02*
X8492698Y-22401223D01*
X8492698Y-22401223D02*
X8483174Y-22391699D01*
X8483174Y-22391699D02*
X8492698Y-22382176D01*
X8492698Y-22382176D02*
X8492698Y-22401223D01*
X8626031Y-22201223D02*
X8645079Y-22201223D01*
X8645079Y-22201223D02*
X8664127Y-22210747D01*
X8664127Y-22210747D02*
X8673651Y-22220271D01*
X8673651Y-22220271D02*
X8683174Y-22239319D01*
X8683174Y-22239319D02*
X8692698Y-22277414D01*
X8692698Y-22277414D02*
X8692698Y-22325033D01*
X8692698Y-22325033D02*
X8683174Y-22363128D01*
X8683174Y-22363128D02*
X8673651Y-22382176D01*
X8673651Y-22382176D02*
X8664127Y-22391699D01*
X8664127Y-22391699D02*
X8645079Y-22401223D01*
X8645079Y-22401223D02*
X8626031Y-22401223D01*
X8626031Y-22401223D02*
X8606984Y-22391699D01*
X8606984Y-22391699D02*
X8597460Y-22382176D01*
X8597460Y-22382176D02*
X8587936Y-22363128D01*
X8587936Y-22363128D02*
X8578412Y-22325033D01*
X8578412Y-22325033D02*
X8578412Y-22277414D01*
X8578412Y-22277414D02*
X8587936Y-22239319D01*
X8587936Y-22239319D02*
X8597460Y-22220271D01*
X8597460Y-22220271D02*
X8606984Y-22210747D01*
X8606984Y-22210747D02*
X8626031Y-22201223D01*
X8759365Y-22201223D02*
X8883174Y-22201223D01*
X8883174Y-22201223D02*
X8816508Y-22277414D01*
X8816508Y-22277414D02*
X8845079Y-22277414D01*
X8845079Y-22277414D02*
X8864127Y-22286938D01*
X8864127Y-22286938D02*
X8873651Y-22296461D01*
X8873651Y-22296461D02*
X8883174Y-22315509D01*
X8883174Y-22315509D02*
X8883174Y-22363128D01*
X8883174Y-22363128D02*
X8873651Y-22382176D01*
X8873651Y-22382176D02*
X8864127Y-22391699D01*
X8864127Y-22391699D02*
X8845079Y-22401223D01*
X8845079Y-22401223D02*
X8787936Y-22401223D01*
X8787936Y-22401223D02*
X8768889Y-22391699D01*
X8768889Y-22391699D02*
X8759365Y-22382176D01*
X8978412Y-22401223D02*
X9016508Y-22401223D01*
X9016508Y-22401223D02*
X9035555Y-22391699D01*
X9035555Y-22391699D02*
X9045079Y-22382176D01*
X9045079Y-22382176D02*
X9064127Y-22353604D01*
X9064127Y-22353604D02*
X9073651Y-22315509D01*
X9073651Y-22315509D02*
X9073651Y-22239319D01*
X9073651Y-22239319D02*
X9064127Y-22220271D01*
X9064127Y-22220271D02*
X9054603Y-22210747D01*
X9054603Y-22210747D02*
X9035555Y-22201223D01*
X9035555Y-22201223D02*
X8997460Y-22201223D01*
X8997460Y-22201223D02*
X8978412Y-22210747D01*
X8978412Y-22210747D02*
X8968889Y-22220271D01*
X8968889Y-22220271D02*
X8959365Y-22239319D01*
X8959365Y-22239319D02*
X8959365Y-22286938D01*
X8959365Y-22286938D02*
X8968889Y-22305985D01*
X8968889Y-22305985D02*
X8978412Y-22315509D01*
X8978412Y-22315509D02*
X8997460Y-22325033D01*
X8997460Y-22325033D02*
X9035555Y-22325033D01*
X9035555Y-22325033D02*
X9054603Y-22315509D01*
X9054603Y-22315509D02*
X9064127Y-22305985D01*
X9064127Y-22305985D02*
X9073651Y-22286938D01*
X9245079Y-22267890D02*
X9245079Y-22401223D01*
X9197460Y-22191700D02*
X9149841Y-22334557D01*
X9149841Y-22334557D02*
X9273651Y-22334557D01*
X9340317Y-22201223D02*
X9340317Y-22239319D01*
X9416508Y-22201223D02*
X9416508Y-22239319D01*
X9711746Y-22477414D02*
X9702222Y-22467890D01*
X9702222Y-22467890D02*
X9683174Y-22439318D01*
X9683174Y-22439318D02*
X9673651Y-22420271D01*
X9673651Y-22420271D02*
X9664127Y-22391699D01*
X9664127Y-22391699D02*
X9654603Y-22344080D01*
X9654603Y-22344080D02*
X9654603Y-22305985D01*
X9654603Y-22305985D02*
X9664127Y-22258366D01*
X9664127Y-22258366D02*
X9673651Y-22229795D01*
X9673651Y-22229795D02*
X9683174Y-22210747D01*
X9683174Y-22210747D02*
X9702222Y-22182176D01*
X9702222Y-22182176D02*
X9711746Y-22172652D01*
X9873651Y-22201223D02*
X9835555Y-22201223D01*
X9835555Y-22201223D02*
X9816508Y-22210747D01*
X9816508Y-22210747D02*
X9806984Y-22220271D01*
X9806984Y-22220271D02*
X9787936Y-22248842D01*
X9787936Y-22248842D02*
X9778413Y-22286938D01*
X9778413Y-22286938D02*
X9778413Y-22363128D01*
X9778413Y-22363128D02*
X9787936Y-22382176D01*
X9787936Y-22382176D02*
X9797460Y-22391699D01*
X9797460Y-22391699D02*
X9816508Y-22401223D01*
X9816508Y-22401223D02*
X9854603Y-22401223D01*
X9854603Y-22401223D02*
X9873651Y-22391699D01*
X9873651Y-22391699D02*
X9883174Y-22382176D01*
X9883174Y-22382176D02*
X9892698Y-22363128D01*
X9892698Y-22363128D02*
X9892698Y-22315509D01*
X9892698Y-22315509D02*
X9883174Y-22296461D01*
X9883174Y-22296461D02*
X9873651Y-22286938D01*
X9873651Y-22286938D02*
X9854603Y-22277414D01*
X9854603Y-22277414D02*
X9816508Y-22277414D01*
X9816508Y-22277414D02*
X9797460Y-22286938D01*
X9797460Y-22286938D02*
X9787936Y-22296461D01*
X9787936Y-22296461D02*
X9778413Y-22315509D01*
X10130794Y-22401223D02*
X10130794Y-22201223D01*
X10216508Y-22401223D02*
X10216508Y-22296461D01*
X10216508Y-22296461D02*
X10206984Y-22277414D01*
X10206984Y-22277414D02*
X10187936Y-22267890D01*
X10187936Y-22267890D02*
X10159365Y-22267890D01*
X10159365Y-22267890D02*
X10140317Y-22277414D01*
X10140317Y-22277414D02*
X10130794Y-22286938D01*
X10340317Y-22401223D02*
X10321270Y-22391699D01*
X10321270Y-22391699D02*
X10311746Y-22382176D01*
X10311746Y-22382176D02*
X10302222Y-22363128D01*
X10302222Y-22363128D02*
X10302222Y-22305985D01*
X10302222Y-22305985D02*
X10311746Y-22286938D01*
X10311746Y-22286938D02*
X10321270Y-22277414D01*
X10321270Y-22277414D02*
X10340317Y-22267890D01*
X10340317Y-22267890D02*
X10368889Y-22267890D01*
X10368889Y-22267890D02*
X10387936Y-22277414D01*
X10387936Y-22277414D02*
X10397460Y-22286938D01*
X10397460Y-22286938D02*
X10406984Y-22305985D01*
X10406984Y-22305985D02*
X10406984Y-22363128D01*
X10406984Y-22363128D02*
X10397460Y-22382176D01*
X10397460Y-22382176D02*
X10387936Y-22391699D01*
X10387936Y-22391699D02*
X10368889Y-22401223D01*
X10368889Y-22401223D02*
X10340317Y-22401223D01*
X10521270Y-22401223D02*
X10502222Y-22391699D01*
X10502222Y-22391699D02*
X10492698Y-22372652D01*
X10492698Y-22372652D02*
X10492698Y-22201223D01*
X10673651Y-22391699D02*
X10654603Y-22401223D01*
X10654603Y-22401223D02*
X10616508Y-22401223D01*
X10616508Y-22401223D02*
X10597460Y-22391699D01*
X10597460Y-22391699D02*
X10587936Y-22372652D01*
X10587936Y-22372652D02*
X10587936Y-22296461D01*
X10587936Y-22296461D02*
X10597460Y-22277414D01*
X10597460Y-22277414D02*
X10616508Y-22267890D01*
X10616508Y-22267890D02*
X10654603Y-22267890D01*
X10654603Y-22267890D02*
X10673651Y-22277414D01*
X10673651Y-22277414D02*
X10683175Y-22296461D01*
X10683175Y-22296461D02*
X10683175Y-22315509D01*
X10683175Y-22315509D02*
X10587936Y-22334557D01*
X10759365Y-22391699D02*
X10778413Y-22401223D01*
X10778413Y-22401223D02*
X10816508Y-22401223D01*
X10816508Y-22401223D02*
X10835556Y-22391699D01*
X10835556Y-22391699D02*
X10845079Y-22372652D01*
X10845079Y-22372652D02*
X10845079Y-22363128D01*
X10845079Y-22363128D02*
X10835556Y-22344080D01*
X10835556Y-22344080D02*
X10816508Y-22334557D01*
X10816508Y-22334557D02*
X10787936Y-22334557D01*
X10787936Y-22334557D02*
X10768889Y-22325033D01*
X10768889Y-22325033D02*
X10759365Y-22305985D01*
X10759365Y-22305985D02*
X10759365Y-22296461D01*
X10759365Y-22296461D02*
X10768889Y-22277414D01*
X10768889Y-22277414D02*
X10787936Y-22267890D01*
X10787936Y-22267890D02*
X10816508Y-22267890D01*
X10816508Y-22267890D02*
X10835556Y-22277414D01*
X10911746Y-22477414D02*
X10921270Y-22467890D01*
X10921270Y-22467890D02*
X10940317Y-22439318D01*
X10940317Y-22439318D02*
X10949841Y-22420271D01*
X10949841Y-22420271D02*
X10959365Y-22391699D01*
X10959365Y-22391699D02*
X10968889Y-22344080D01*
X10968889Y-22344080D02*
X10968889Y-22305985D01*
X10968889Y-22305985D02*
X10959365Y-22258366D01*
X10959365Y-22258366D02*
X10949841Y-22229795D01*
X10949841Y-22229795D02*
X10940317Y-22210747D01*
X10940317Y-22210747D02*
X10921270Y-22182176D01*
X10921270Y-22182176D02*
X10911746Y-22172652D01*
D13*
X6082073Y-22519129D02*
X6082073Y-22628349D01*
X6027463Y-22573739D02*
X6136683Y-22573739D01*
D11*
X6502222Y-22665223D02*
X6387936Y-22665223D01*
X6445079Y-22665223D02*
X6445079Y-22465223D01*
X6445079Y-22465223D02*
X6426031Y-22493795D01*
X6426031Y-22493795D02*
X6406984Y-22512842D01*
X6406984Y-22512842D02*
X6387936Y-22522366D01*
X6587936Y-22646176D02*
X6597460Y-22655699D01*
X6597460Y-22655699D02*
X6587936Y-22665223D01*
X6587936Y-22665223D02*
X6578412Y-22655699D01*
X6578412Y-22655699D02*
X6587936Y-22646176D01*
X6587936Y-22646176D02*
X6587936Y-22665223D01*
X6721269Y-22465223D02*
X6740317Y-22465223D01*
X6740317Y-22465223D02*
X6759365Y-22474747D01*
X6759365Y-22474747D02*
X6768888Y-22484271D01*
X6768888Y-22484271D02*
X6778412Y-22503318D01*
X6778412Y-22503318D02*
X6787936Y-22541414D01*
X6787936Y-22541414D02*
X6787936Y-22589033D01*
X6787936Y-22589033D02*
X6778412Y-22627128D01*
X6778412Y-22627128D02*
X6768888Y-22646176D01*
X6768888Y-22646176D02*
X6759365Y-22655699D01*
X6759365Y-22655699D02*
X6740317Y-22665223D01*
X6740317Y-22665223D02*
X6721269Y-22665223D01*
X6721269Y-22665223D02*
X6702222Y-22655699D01*
X6702222Y-22655699D02*
X6692698Y-22646176D01*
X6692698Y-22646176D02*
X6683174Y-22627128D01*
X6683174Y-22627128D02*
X6673650Y-22589033D01*
X6673650Y-22589033D02*
X6673650Y-22541414D01*
X6673650Y-22541414D02*
X6683174Y-22503318D01*
X6683174Y-22503318D02*
X6692698Y-22484271D01*
X6692698Y-22484271D02*
X6702222Y-22474747D01*
X6702222Y-22474747D02*
X6721269Y-22465223D01*
X6883174Y-22665223D02*
X6921269Y-22665223D01*
X6921269Y-22665223D02*
X6940317Y-22655699D01*
X6940317Y-22655699D02*
X6949841Y-22646176D01*
X6949841Y-22646176D02*
X6968888Y-22617604D01*
X6968888Y-22617604D02*
X6978412Y-22579509D01*
X6978412Y-22579509D02*
X6978412Y-22503318D01*
X6978412Y-22503318D02*
X6968888Y-22484271D01*
X6968888Y-22484271D02*
X6959365Y-22474747D01*
X6959365Y-22474747D02*
X6940317Y-22465223D01*
X6940317Y-22465223D02*
X6902222Y-22465223D01*
X6902222Y-22465223D02*
X6883174Y-22474747D01*
X6883174Y-22474747D02*
X6873650Y-22484271D01*
X6873650Y-22484271D02*
X6864126Y-22503318D01*
X6864126Y-22503318D02*
X6864126Y-22550937D01*
X6864126Y-22550937D02*
X6873650Y-22569985D01*
X6873650Y-22569985D02*
X6883174Y-22579509D01*
X6883174Y-22579509D02*
X6902222Y-22589033D01*
X6902222Y-22589033D02*
X6940317Y-22589033D01*
X6940317Y-22589033D02*
X6959365Y-22579509D01*
X6959365Y-22579509D02*
X6968888Y-22569985D01*
X6968888Y-22569985D02*
X6978412Y-22550937D01*
X7054603Y-22484271D02*
X7064126Y-22474747D01*
X7064126Y-22474747D02*
X7083174Y-22465223D01*
X7083174Y-22465223D02*
X7130793Y-22465223D01*
X7130793Y-22465223D02*
X7149841Y-22474747D01*
X7149841Y-22474747D02*
X7159365Y-22484271D01*
X7159365Y-22484271D02*
X7168888Y-22503318D01*
X7168888Y-22503318D02*
X7168888Y-22522366D01*
X7168888Y-22522366D02*
X7159365Y-22550937D01*
X7159365Y-22550937D02*
X7045079Y-22665223D01*
X7045079Y-22665223D02*
X7168888Y-22665223D01*
X7254603Y-22665223D02*
X7254603Y-22531890D01*
X7254603Y-22550937D02*
X7264126Y-22541414D01*
X7264126Y-22541414D02*
X7283174Y-22531890D01*
X7283174Y-22531890D02*
X7311746Y-22531890D01*
X7311746Y-22531890D02*
X7330793Y-22541414D01*
X7330793Y-22541414D02*
X7340317Y-22560461D01*
X7340317Y-22560461D02*
X7340317Y-22665223D01*
X7340317Y-22560461D02*
X7349841Y-22541414D01*
X7349841Y-22541414D02*
X7368888Y-22531890D01*
X7368888Y-22531890D02*
X7397460Y-22531890D01*
X7397460Y-22531890D02*
X7416507Y-22541414D01*
X7416507Y-22541414D02*
X7426031Y-22560461D01*
X7426031Y-22560461D02*
X7426031Y-22665223D01*
X7521269Y-22665223D02*
X7521269Y-22531890D01*
X7521269Y-22550937D02*
X7530793Y-22541414D01*
X7530793Y-22541414D02*
X7549841Y-22531890D01*
X7549841Y-22531890D02*
X7578412Y-22531890D01*
X7578412Y-22531890D02*
X7597460Y-22541414D01*
X7597460Y-22541414D02*
X7606984Y-22560461D01*
X7606984Y-22560461D02*
X7606984Y-22665223D01*
X7606984Y-22560461D02*
X7616507Y-22541414D01*
X7616507Y-22541414D02*
X7635555Y-22531890D01*
X7635555Y-22531890D02*
X7664126Y-22531890D01*
X7664126Y-22531890D02*
X7683174Y-22541414D01*
X7683174Y-22541414D02*
X7692698Y-22560461D01*
X7692698Y-22560461D02*
X7692698Y-22665223D01*
X8083174Y-22455699D02*
X7911746Y-22712842D01*
X8340317Y-22465223D02*
X8359365Y-22465223D01*
X8359365Y-22465223D02*
X8378412Y-22474747D01*
X8378412Y-22474747D02*
X8387936Y-22484271D01*
X8387936Y-22484271D02*
X8397460Y-22503318D01*
X8397460Y-22503318D02*
X8406984Y-22541414D01*
X8406984Y-22541414D02*
X8406984Y-22589033D01*
X8406984Y-22589033D02*
X8397460Y-22627128D01*
X8397460Y-22627128D02*
X8387936Y-22646176D01*
X8387936Y-22646176D02*
X8378412Y-22655699D01*
X8378412Y-22655699D02*
X8359365Y-22665223D01*
X8359365Y-22665223D02*
X8340317Y-22665223D01*
X8340317Y-22665223D02*
X8321269Y-22655699D01*
X8321269Y-22655699D02*
X8311746Y-22646176D01*
X8311746Y-22646176D02*
X8302222Y-22627128D01*
X8302222Y-22627128D02*
X8292698Y-22589033D01*
X8292698Y-22589033D02*
X8292698Y-22541414D01*
X8292698Y-22541414D02*
X8302222Y-22503318D01*
X8302222Y-22503318D02*
X8311746Y-22484271D01*
X8311746Y-22484271D02*
X8321269Y-22474747D01*
X8321269Y-22474747D02*
X8340317Y-22465223D01*
X8492698Y-22646176D02*
X8502222Y-22655699D01*
X8502222Y-22655699D02*
X8492698Y-22665223D01*
X8492698Y-22665223D02*
X8483174Y-22655699D01*
X8483174Y-22655699D02*
X8492698Y-22646176D01*
X8492698Y-22646176D02*
X8492698Y-22665223D01*
X8626031Y-22465223D02*
X8645079Y-22465223D01*
X8645079Y-22465223D02*
X8664127Y-22474747D01*
X8664127Y-22474747D02*
X8673651Y-22484271D01*
X8673651Y-22484271D02*
X8683174Y-22503318D01*
X8683174Y-22503318D02*
X8692698Y-22541414D01*
X8692698Y-22541414D02*
X8692698Y-22589033D01*
X8692698Y-22589033D02*
X8683174Y-22627128D01*
X8683174Y-22627128D02*
X8673651Y-22646176D01*
X8673651Y-22646176D02*
X8664127Y-22655699D01*
X8664127Y-22655699D02*
X8645079Y-22665223D01*
X8645079Y-22665223D02*
X8626031Y-22665223D01*
X8626031Y-22665223D02*
X8606984Y-22655699D01*
X8606984Y-22655699D02*
X8597460Y-22646176D01*
X8597460Y-22646176D02*
X8587936Y-22627128D01*
X8587936Y-22627128D02*
X8578412Y-22589033D01*
X8578412Y-22589033D02*
X8578412Y-22541414D01*
X8578412Y-22541414D02*
X8587936Y-22503318D01*
X8587936Y-22503318D02*
X8597460Y-22484271D01*
X8597460Y-22484271D02*
X8606984Y-22474747D01*
X8606984Y-22474747D02*
X8626031Y-22465223D01*
X8864127Y-22531890D02*
X8864127Y-22665223D01*
X8816508Y-22455699D02*
X8768889Y-22598557D01*
X8768889Y-22598557D02*
X8892698Y-22598557D01*
X8949841Y-22465223D02*
X9073651Y-22465223D01*
X9073651Y-22465223D02*
X9006984Y-22541414D01*
X9006984Y-22541414D02*
X9035555Y-22541414D01*
X9035555Y-22541414D02*
X9054603Y-22550937D01*
X9054603Y-22550937D02*
X9064127Y-22560461D01*
X9064127Y-22560461D02*
X9073651Y-22579509D01*
X9073651Y-22579509D02*
X9073651Y-22627128D01*
X9073651Y-22627128D02*
X9064127Y-22646176D01*
X9064127Y-22646176D02*
X9054603Y-22655699D01*
X9054603Y-22655699D02*
X9035555Y-22665223D01*
X9035555Y-22665223D02*
X8978412Y-22665223D01*
X8978412Y-22665223D02*
X8959365Y-22655699D01*
X8959365Y-22655699D02*
X8949841Y-22646176D01*
X9197460Y-22465223D02*
X9216508Y-22465223D01*
X9216508Y-22465223D02*
X9235555Y-22474747D01*
X9235555Y-22474747D02*
X9245079Y-22484271D01*
X9245079Y-22484271D02*
X9254603Y-22503318D01*
X9254603Y-22503318D02*
X9264127Y-22541414D01*
X9264127Y-22541414D02*
X9264127Y-22589033D01*
X9264127Y-22589033D02*
X9254603Y-22627128D01*
X9254603Y-22627128D02*
X9245079Y-22646176D01*
X9245079Y-22646176D02*
X9235555Y-22655699D01*
X9235555Y-22655699D02*
X9216508Y-22665223D01*
X9216508Y-22665223D02*
X9197460Y-22665223D01*
X9197460Y-22665223D02*
X9178412Y-22655699D01*
X9178412Y-22655699D02*
X9168889Y-22646176D01*
X9168889Y-22646176D02*
X9159365Y-22627128D01*
X9159365Y-22627128D02*
X9149841Y-22589033D01*
X9149841Y-22589033D02*
X9149841Y-22541414D01*
X9149841Y-22541414D02*
X9159365Y-22503318D01*
X9159365Y-22503318D02*
X9168889Y-22484271D01*
X9168889Y-22484271D02*
X9178412Y-22474747D01*
X9178412Y-22474747D02*
X9197460Y-22465223D01*
X9340317Y-22465223D02*
X9340317Y-22503318D01*
X9416508Y-22465223D02*
X9416508Y-22503318D01*
X9711746Y-22741414D02*
X9702222Y-22731890D01*
X9702222Y-22731890D02*
X9683174Y-22703318D01*
X9683174Y-22703318D02*
X9673651Y-22684271D01*
X9673651Y-22684271D02*
X9664127Y-22655699D01*
X9664127Y-22655699D02*
X9654603Y-22608080D01*
X9654603Y-22608080D02*
X9654603Y-22569985D01*
X9654603Y-22569985D02*
X9664127Y-22522366D01*
X9664127Y-22522366D02*
X9673651Y-22493795D01*
X9673651Y-22493795D02*
X9683174Y-22474747D01*
X9683174Y-22474747D02*
X9702222Y-22446176D01*
X9702222Y-22446176D02*
X9711746Y-22436652D01*
X9778413Y-22484271D02*
X9787936Y-22474747D01*
X9787936Y-22474747D02*
X9806984Y-22465223D01*
X9806984Y-22465223D02*
X9854603Y-22465223D01*
X9854603Y-22465223D02*
X9873651Y-22474747D01*
X9873651Y-22474747D02*
X9883174Y-22484271D01*
X9883174Y-22484271D02*
X9892698Y-22503318D01*
X9892698Y-22503318D02*
X9892698Y-22522366D01*
X9892698Y-22522366D02*
X9883174Y-22550937D01*
X9883174Y-22550937D02*
X9768889Y-22665223D01*
X9768889Y-22665223D02*
X9892698Y-22665223D01*
X10064127Y-22531890D02*
X10064127Y-22665223D01*
X10016508Y-22455699D02*
X9968889Y-22598557D01*
X9968889Y-22598557D02*
X10092698Y-22598557D01*
X10321270Y-22665223D02*
X10321270Y-22465223D01*
X10406984Y-22665223D02*
X10406984Y-22560461D01*
X10406984Y-22560461D02*
X10397460Y-22541414D01*
X10397460Y-22541414D02*
X10378413Y-22531890D01*
X10378413Y-22531890D02*
X10349841Y-22531890D01*
X10349841Y-22531890D02*
X10330794Y-22541414D01*
X10330794Y-22541414D02*
X10321270Y-22550937D01*
X10530794Y-22665223D02*
X10511746Y-22655699D01*
X10511746Y-22655699D02*
X10502222Y-22646176D01*
X10502222Y-22646176D02*
X10492698Y-22627128D01*
X10492698Y-22627128D02*
X10492698Y-22569985D01*
X10492698Y-22569985D02*
X10502222Y-22550937D01*
X10502222Y-22550937D02*
X10511746Y-22541414D01*
X10511746Y-22541414D02*
X10530794Y-22531890D01*
X10530794Y-22531890D02*
X10559365Y-22531890D01*
X10559365Y-22531890D02*
X10578413Y-22541414D01*
X10578413Y-22541414D02*
X10587936Y-22550937D01*
X10587936Y-22550937D02*
X10597460Y-22569985D01*
X10597460Y-22569985D02*
X10597460Y-22627128D01*
X10597460Y-22627128D02*
X10587936Y-22646176D01*
X10587936Y-22646176D02*
X10578413Y-22655699D01*
X10578413Y-22655699D02*
X10559365Y-22665223D01*
X10559365Y-22665223D02*
X10530794Y-22665223D01*
X10711746Y-22665223D02*
X10692698Y-22655699D01*
X10692698Y-22655699D02*
X10683175Y-22636652D01*
X10683175Y-22636652D02*
X10683175Y-22465223D01*
X10864127Y-22655699D02*
X10845079Y-22665223D01*
X10845079Y-22665223D02*
X10806984Y-22665223D01*
X10806984Y-22665223D02*
X10787936Y-22655699D01*
X10787936Y-22655699D02*
X10778413Y-22636652D01*
X10778413Y-22636652D02*
X10778413Y-22560461D01*
X10778413Y-22560461D02*
X10787936Y-22541414D01*
X10787936Y-22541414D02*
X10806984Y-22531890D01*
X10806984Y-22531890D02*
X10845079Y-22531890D01*
X10845079Y-22531890D02*
X10864127Y-22541414D01*
X10864127Y-22541414D02*
X10873651Y-22560461D01*
X10873651Y-22560461D02*
X10873651Y-22579509D01*
X10873651Y-22579509D02*
X10778413Y-22598557D01*
X10949841Y-22655699D02*
X10968889Y-22665223D01*
X10968889Y-22665223D02*
X11006984Y-22665223D01*
X11006984Y-22665223D02*
X11026032Y-22655699D01*
X11026032Y-22655699D02*
X11035556Y-22636652D01*
X11035556Y-22636652D02*
X11035556Y-22627128D01*
X11035556Y-22627128D02*
X11026032Y-22608080D01*
X11026032Y-22608080D02*
X11006984Y-22598557D01*
X11006984Y-22598557D02*
X10978413Y-22598557D01*
X10978413Y-22598557D02*
X10959365Y-22589033D01*
X10959365Y-22589033D02*
X10949841Y-22569985D01*
X10949841Y-22569985D02*
X10949841Y-22560461D01*
X10949841Y-22560461D02*
X10959365Y-22541414D01*
X10959365Y-22541414D02*
X10978413Y-22531890D01*
X10978413Y-22531890D02*
X11006984Y-22531890D01*
X11006984Y-22531890D02*
X11026032Y-22541414D01*
X11102222Y-22741414D02*
X11111746Y-22731890D01*
X11111746Y-22731890D02*
X11130794Y-22703318D01*
X11130794Y-22703318D02*
X11140317Y-22684271D01*
X11140317Y-22684271D02*
X11149841Y-22655699D01*
X11149841Y-22655699D02*
X11159365Y-22608080D01*
X11159365Y-22608080D02*
X11159365Y-22569985D01*
X11159365Y-22569985D02*
X11149841Y-22522366D01*
X11149841Y-22522366D02*
X11140317Y-22493795D01*
X11140317Y-22493795D02*
X11130794Y-22474747D01*
X11130794Y-22474747D02*
X11111746Y-22446176D01*
X11111746Y-22446176D02*
X11102222Y-22436652D01*
X6107394Y-22908451D02*
X6107394Y-22767028D01*
X5965972Y-22767028D01*
X5965972Y-22908451D01*
X6107394Y-22908451D01*
X6387936Y-22748271D02*
X6397460Y-22738747D01*
X6397460Y-22738747D02*
X6416507Y-22729223D01*
X6416507Y-22729223D02*
X6464126Y-22729223D01*
X6464126Y-22729223D02*
X6483174Y-22738747D01*
X6483174Y-22738747D02*
X6492698Y-22748271D01*
X6492698Y-22748271D02*
X6502222Y-22767318D01*
X6502222Y-22767318D02*
X6502222Y-22786366D01*
X6502222Y-22786366D02*
X6492698Y-22814937D01*
X6492698Y-22814937D02*
X6378412Y-22929223D01*
X6378412Y-22929223D02*
X6502222Y-22929223D01*
X6587936Y-22910176D02*
X6597460Y-22919699D01*
X6597460Y-22919699D02*
X6587936Y-22929223D01*
X6587936Y-22929223D02*
X6578412Y-22919699D01*
X6578412Y-22919699D02*
X6587936Y-22910176D01*
X6587936Y-22910176D02*
X6587936Y-22929223D01*
X6673650Y-22748271D02*
X6683174Y-22738747D01*
X6683174Y-22738747D02*
X6702222Y-22729223D01*
X6702222Y-22729223D02*
X6749841Y-22729223D01*
X6749841Y-22729223D02*
X6768888Y-22738747D01*
X6768888Y-22738747D02*
X6778412Y-22748271D01*
X6778412Y-22748271D02*
X6787936Y-22767318D01*
X6787936Y-22767318D02*
X6787936Y-22786366D01*
X6787936Y-22786366D02*
X6778412Y-22814937D01*
X6778412Y-22814937D02*
X6664126Y-22929223D01*
X6664126Y-22929223D02*
X6787936Y-22929223D01*
X6911745Y-22729223D02*
X6930793Y-22729223D01*
X6930793Y-22729223D02*
X6949841Y-22738747D01*
X6949841Y-22738747D02*
X6959365Y-22748271D01*
X6959365Y-22748271D02*
X6968888Y-22767318D01*
X6968888Y-22767318D02*
X6978412Y-22805414D01*
X6978412Y-22805414D02*
X6978412Y-22853033D01*
X6978412Y-22853033D02*
X6968888Y-22891128D01*
X6968888Y-22891128D02*
X6959365Y-22910176D01*
X6959365Y-22910176D02*
X6949841Y-22919699D01*
X6949841Y-22919699D02*
X6930793Y-22929223D01*
X6930793Y-22929223D02*
X6911745Y-22929223D01*
X6911745Y-22929223D02*
X6892698Y-22919699D01*
X6892698Y-22919699D02*
X6883174Y-22910176D01*
X6883174Y-22910176D02*
X6873650Y-22891128D01*
X6873650Y-22891128D02*
X6864126Y-22853033D01*
X6864126Y-22853033D02*
X6864126Y-22805414D01*
X6864126Y-22805414D02*
X6873650Y-22767318D01*
X6873650Y-22767318D02*
X6883174Y-22748271D01*
X6883174Y-22748271D02*
X6892698Y-22738747D01*
X6892698Y-22738747D02*
X6911745Y-22729223D01*
X7102222Y-22729223D02*
X7121269Y-22729223D01*
X7121269Y-22729223D02*
X7140317Y-22738747D01*
X7140317Y-22738747D02*
X7149841Y-22748271D01*
X7149841Y-22748271D02*
X7159365Y-22767318D01*
X7159365Y-22767318D02*
X7168888Y-22805414D01*
X7168888Y-22805414D02*
X7168888Y-22853033D01*
X7168888Y-22853033D02*
X7159365Y-22891128D01*
X7159365Y-22891128D02*
X7149841Y-22910176D01*
X7149841Y-22910176D02*
X7140317Y-22919699D01*
X7140317Y-22919699D02*
X7121269Y-22929223D01*
X7121269Y-22929223D02*
X7102222Y-22929223D01*
X7102222Y-22929223D02*
X7083174Y-22919699D01*
X7083174Y-22919699D02*
X7073650Y-22910176D01*
X7073650Y-22910176D02*
X7064126Y-22891128D01*
X7064126Y-22891128D02*
X7054603Y-22853033D01*
X7054603Y-22853033D02*
X7054603Y-22805414D01*
X7054603Y-22805414D02*
X7064126Y-22767318D01*
X7064126Y-22767318D02*
X7073650Y-22748271D01*
X7073650Y-22748271D02*
X7083174Y-22738747D01*
X7083174Y-22738747D02*
X7102222Y-22729223D01*
X7254603Y-22929223D02*
X7254603Y-22795890D01*
X7254603Y-22814937D02*
X7264126Y-22805414D01*
X7264126Y-22805414D02*
X7283174Y-22795890D01*
X7283174Y-22795890D02*
X7311746Y-22795890D01*
X7311746Y-22795890D02*
X7330793Y-22805414D01*
X7330793Y-22805414D02*
X7340317Y-22824461D01*
X7340317Y-22824461D02*
X7340317Y-22929223D01*
X7340317Y-22824461D02*
X7349841Y-22805414D01*
X7349841Y-22805414D02*
X7368888Y-22795890D01*
X7368888Y-22795890D02*
X7397460Y-22795890D01*
X7397460Y-22795890D02*
X7416507Y-22805414D01*
X7416507Y-22805414D02*
X7426031Y-22824461D01*
X7426031Y-22824461D02*
X7426031Y-22929223D01*
X7521269Y-22929223D02*
X7521269Y-22795890D01*
X7521269Y-22814937D02*
X7530793Y-22805414D01*
X7530793Y-22805414D02*
X7549841Y-22795890D01*
X7549841Y-22795890D02*
X7578412Y-22795890D01*
X7578412Y-22795890D02*
X7597460Y-22805414D01*
X7597460Y-22805414D02*
X7606984Y-22824461D01*
X7606984Y-22824461D02*
X7606984Y-22929223D01*
X7606984Y-22824461D02*
X7616507Y-22805414D01*
X7616507Y-22805414D02*
X7635555Y-22795890D01*
X7635555Y-22795890D02*
X7664126Y-22795890D01*
X7664126Y-22795890D02*
X7683174Y-22805414D01*
X7683174Y-22805414D02*
X7692698Y-22824461D01*
X7692698Y-22824461D02*
X7692698Y-22929223D01*
X8083174Y-22719699D02*
X7911746Y-22976842D01*
X8340317Y-22729223D02*
X8359365Y-22729223D01*
X8359365Y-22729223D02*
X8378412Y-22738747D01*
X8378412Y-22738747D02*
X8387936Y-22748271D01*
X8387936Y-22748271D02*
X8397460Y-22767318D01*
X8397460Y-22767318D02*
X8406984Y-22805414D01*
X8406984Y-22805414D02*
X8406984Y-22853033D01*
X8406984Y-22853033D02*
X8397460Y-22891128D01*
X8397460Y-22891128D02*
X8387936Y-22910176D01*
X8387936Y-22910176D02*
X8378412Y-22919699D01*
X8378412Y-22919699D02*
X8359365Y-22929223D01*
X8359365Y-22929223D02*
X8340317Y-22929223D01*
X8340317Y-22929223D02*
X8321269Y-22919699D01*
X8321269Y-22919699D02*
X8311746Y-22910176D01*
X8311746Y-22910176D02*
X8302222Y-22891128D01*
X8302222Y-22891128D02*
X8292698Y-22853033D01*
X8292698Y-22853033D02*
X8292698Y-22805414D01*
X8292698Y-22805414D02*
X8302222Y-22767318D01*
X8302222Y-22767318D02*
X8311746Y-22748271D01*
X8311746Y-22748271D02*
X8321269Y-22738747D01*
X8321269Y-22738747D02*
X8340317Y-22729223D01*
X8492698Y-22910176D02*
X8502222Y-22919699D01*
X8502222Y-22919699D02*
X8492698Y-22929223D01*
X8492698Y-22929223D02*
X8483174Y-22919699D01*
X8483174Y-22919699D02*
X8492698Y-22910176D01*
X8492698Y-22910176D02*
X8492698Y-22929223D01*
X8626031Y-22729223D02*
X8645079Y-22729223D01*
X8645079Y-22729223D02*
X8664127Y-22738747D01*
X8664127Y-22738747D02*
X8673651Y-22748271D01*
X8673651Y-22748271D02*
X8683174Y-22767318D01*
X8683174Y-22767318D02*
X8692698Y-22805414D01*
X8692698Y-22805414D02*
X8692698Y-22853033D01*
X8692698Y-22853033D02*
X8683174Y-22891128D01*
X8683174Y-22891128D02*
X8673651Y-22910176D01*
X8673651Y-22910176D02*
X8664127Y-22919699D01*
X8664127Y-22919699D02*
X8645079Y-22929223D01*
X8645079Y-22929223D02*
X8626031Y-22929223D01*
X8626031Y-22929223D02*
X8606984Y-22919699D01*
X8606984Y-22919699D02*
X8597460Y-22910176D01*
X8597460Y-22910176D02*
X8587936Y-22891128D01*
X8587936Y-22891128D02*
X8578412Y-22853033D01*
X8578412Y-22853033D02*
X8578412Y-22805414D01*
X8578412Y-22805414D02*
X8587936Y-22767318D01*
X8587936Y-22767318D02*
X8597460Y-22748271D01*
X8597460Y-22748271D02*
X8606984Y-22738747D01*
X8606984Y-22738747D02*
X8626031Y-22729223D01*
X8806984Y-22814937D02*
X8787936Y-22805414D01*
X8787936Y-22805414D02*
X8778412Y-22795890D01*
X8778412Y-22795890D02*
X8768889Y-22776842D01*
X8768889Y-22776842D02*
X8768889Y-22767318D01*
X8768889Y-22767318D02*
X8778412Y-22748271D01*
X8778412Y-22748271D02*
X8787936Y-22738747D01*
X8787936Y-22738747D02*
X8806984Y-22729223D01*
X8806984Y-22729223D02*
X8845079Y-22729223D01*
X8845079Y-22729223D02*
X8864127Y-22738747D01*
X8864127Y-22738747D02*
X8873651Y-22748271D01*
X8873651Y-22748271D02*
X8883174Y-22767318D01*
X8883174Y-22767318D02*
X8883174Y-22776842D01*
X8883174Y-22776842D02*
X8873651Y-22795890D01*
X8873651Y-22795890D02*
X8864127Y-22805414D01*
X8864127Y-22805414D02*
X8845079Y-22814937D01*
X8845079Y-22814937D02*
X8806984Y-22814937D01*
X8806984Y-22814937D02*
X8787936Y-22824461D01*
X8787936Y-22824461D02*
X8778412Y-22833985D01*
X8778412Y-22833985D02*
X8768889Y-22853033D01*
X8768889Y-22853033D02*
X8768889Y-22891128D01*
X8768889Y-22891128D02*
X8778412Y-22910176D01*
X8778412Y-22910176D02*
X8787936Y-22919699D01*
X8787936Y-22919699D02*
X8806984Y-22929223D01*
X8806984Y-22929223D02*
X8845079Y-22929223D01*
X8845079Y-22929223D02*
X8864127Y-22919699D01*
X8864127Y-22919699D02*
X8873651Y-22910176D01*
X8873651Y-22910176D02*
X8883174Y-22891128D01*
X8883174Y-22891128D02*
X8883174Y-22853033D01*
X8883174Y-22853033D02*
X8873651Y-22833985D01*
X8873651Y-22833985D02*
X8864127Y-22824461D01*
X8864127Y-22824461D02*
X8845079Y-22814937D01*
X9054603Y-22729223D02*
X9016508Y-22729223D01*
X9016508Y-22729223D02*
X8997460Y-22738747D01*
X8997460Y-22738747D02*
X8987936Y-22748271D01*
X8987936Y-22748271D02*
X8968889Y-22776842D01*
X8968889Y-22776842D02*
X8959365Y-22814937D01*
X8959365Y-22814937D02*
X8959365Y-22891128D01*
X8959365Y-22891128D02*
X8968889Y-22910176D01*
X8968889Y-22910176D02*
X8978412Y-22919699D01*
X8978412Y-22919699D02*
X8997460Y-22929223D01*
X8997460Y-22929223D02*
X9035555Y-22929223D01*
X9035555Y-22929223D02*
X9054603Y-22919699D01*
X9054603Y-22919699D02*
X9064127Y-22910176D01*
X9064127Y-22910176D02*
X9073651Y-22891128D01*
X9073651Y-22891128D02*
X9073651Y-22843509D01*
X9073651Y-22843509D02*
X9064127Y-22824461D01*
X9064127Y-22824461D02*
X9054603Y-22814937D01*
X9054603Y-22814937D02*
X9035555Y-22805414D01*
X9035555Y-22805414D02*
X8997460Y-22805414D01*
X8997460Y-22805414D02*
X8978412Y-22814937D01*
X8978412Y-22814937D02*
X8968889Y-22824461D01*
X8968889Y-22824461D02*
X8959365Y-22843509D01*
X9245079Y-22729223D02*
X9206984Y-22729223D01*
X9206984Y-22729223D02*
X9187936Y-22738747D01*
X9187936Y-22738747D02*
X9178412Y-22748271D01*
X9178412Y-22748271D02*
X9159365Y-22776842D01*
X9159365Y-22776842D02*
X9149841Y-22814937D01*
X9149841Y-22814937D02*
X9149841Y-22891128D01*
X9149841Y-22891128D02*
X9159365Y-22910176D01*
X9159365Y-22910176D02*
X9168889Y-22919699D01*
X9168889Y-22919699D02*
X9187936Y-22929223D01*
X9187936Y-22929223D02*
X9226032Y-22929223D01*
X9226032Y-22929223D02*
X9245079Y-22919699D01*
X9245079Y-22919699D02*
X9254603Y-22910176D01*
X9254603Y-22910176D02*
X9264127Y-22891128D01*
X9264127Y-22891128D02*
X9264127Y-22843509D01*
X9264127Y-22843509D02*
X9254603Y-22824461D01*
X9254603Y-22824461D02*
X9245079Y-22814937D01*
X9245079Y-22814937D02*
X9226032Y-22805414D01*
X9226032Y-22805414D02*
X9187936Y-22805414D01*
X9187936Y-22805414D02*
X9168889Y-22814937D01*
X9168889Y-22814937D02*
X9159365Y-22824461D01*
X9159365Y-22824461D02*
X9149841Y-22843509D01*
X9340317Y-22729223D02*
X9340317Y-22767318D01*
X9416508Y-22729223D02*
X9416508Y-22767318D01*
X9711746Y-23005414D02*
X9702222Y-22995890D01*
X9702222Y-22995890D02*
X9683174Y-22967318D01*
X9683174Y-22967318D02*
X9673651Y-22948271D01*
X9673651Y-22948271D02*
X9664127Y-22919699D01*
X9664127Y-22919699D02*
X9654603Y-22872080D01*
X9654603Y-22872080D02*
X9654603Y-22833985D01*
X9654603Y-22833985D02*
X9664127Y-22786366D01*
X9664127Y-22786366D02*
X9673651Y-22757795D01*
X9673651Y-22757795D02*
X9683174Y-22738747D01*
X9683174Y-22738747D02*
X9702222Y-22710176D01*
X9702222Y-22710176D02*
X9711746Y-22700652D01*
X9816508Y-22814937D02*
X9797460Y-22805414D01*
X9797460Y-22805414D02*
X9787936Y-22795890D01*
X9787936Y-22795890D02*
X9778413Y-22776842D01*
X9778413Y-22776842D02*
X9778413Y-22767318D01*
X9778413Y-22767318D02*
X9787936Y-22748271D01*
X9787936Y-22748271D02*
X9797460Y-22738747D01*
X9797460Y-22738747D02*
X9816508Y-22729223D01*
X9816508Y-22729223D02*
X9854603Y-22729223D01*
X9854603Y-22729223D02*
X9873651Y-22738747D01*
X9873651Y-22738747D02*
X9883174Y-22748271D01*
X9883174Y-22748271D02*
X9892698Y-22767318D01*
X9892698Y-22767318D02*
X9892698Y-22776842D01*
X9892698Y-22776842D02*
X9883174Y-22795890D01*
X9883174Y-22795890D02*
X9873651Y-22805414D01*
X9873651Y-22805414D02*
X9854603Y-22814937D01*
X9854603Y-22814937D02*
X9816508Y-22814937D01*
X9816508Y-22814937D02*
X9797460Y-22824461D01*
X9797460Y-22824461D02*
X9787936Y-22833985D01*
X9787936Y-22833985D02*
X9778413Y-22853033D01*
X9778413Y-22853033D02*
X9778413Y-22891128D01*
X9778413Y-22891128D02*
X9787936Y-22910176D01*
X9787936Y-22910176D02*
X9797460Y-22919699D01*
X9797460Y-22919699D02*
X9816508Y-22929223D01*
X9816508Y-22929223D02*
X9854603Y-22929223D01*
X9854603Y-22929223D02*
X9873651Y-22919699D01*
X9873651Y-22919699D02*
X9883174Y-22910176D01*
X9883174Y-22910176D02*
X9892698Y-22891128D01*
X9892698Y-22891128D02*
X9892698Y-22853033D01*
X9892698Y-22853033D02*
X9883174Y-22833985D01*
X9883174Y-22833985D02*
X9873651Y-22824461D01*
X9873651Y-22824461D02*
X9854603Y-22814937D01*
X10130794Y-22929223D02*
X10130794Y-22729223D01*
X10216508Y-22929223D02*
X10216508Y-22824461D01*
X10216508Y-22824461D02*
X10206984Y-22805414D01*
X10206984Y-22805414D02*
X10187936Y-22795890D01*
X10187936Y-22795890D02*
X10159365Y-22795890D01*
X10159365Y-22795890D02*
X10140317Y-22805414D01*
X10140317Y-22805414D02*
X10130794Y-22814937D01*
X10340317Y-22929223D02*
X10321270Y-22919699D01*
X10321270Y-22919699D02*
X10311746Y-22910176D01*
X10311746Y-22910176D02*
X10302222Y-22891128D01*
X10302222Y-22891128D02*
X10302222Y-22833985D01*
X10302222Y-22833985D02*
X10311746Y-22814937D01*
X10311746Y-22814937D02*
X10321270Y-22805414D01*
X10321270Y-22805414D02*
X10340317Y-22795890D01*
X10340317Y-22795890D02*
X10368889Y-22795890D01*
X10368889Y-22795890D02*
X10387936Y-22805414D01*
X10387936Y-22805414D02*
X10397460Y-22814937D01*
X10397460Y-22814937D02*
X10406984Y-22833985D01*
X10406984Y-22833985D02*
X10406984Y-22891128D01*
X10406984Y-22891128D02*
X10397460Y-22910176D01*
X10397460Y-22910176D02*
X10387936Y-22919699D01*
X10387936Y-22919699D02*
X10368889Y-22929223D01*
X10368889Y-22929223D02*
X10340317Y-22929223D01*
X10521270Y-22929223D02*
X10502222Y-22919699D01*
X10502222Y-22919699D02*
X10492698Y-22900652D01*
X10492698Y-22900652D02*
X10492698Y-22729223D01*
X10673651Y-22919699D02*
X10654603Y-22929223D01*
X10654603Y-22929223D02*
X10616508Y-22929223D01*
X10616508Y-22929223D02*
X10597460Y-22919699D01*
X10597460Y-22919699D02*
X10587936Y-22900652D01*
X10587936Y-22900652D02*
X10587936Y-22824461D01*
X10587936Y-22824461D02*
X10597460Y-22805414D01*
X10597460Y-22805414D02*
X10616508Y-22795890D01*
X10616508Y-22795890D02*
X10654603Y-22795890D01*
X10654603Y-22795890D02*
X10673651Y-22805414D01*
X10673651Y-22805414D02*
X10683175Y-22824461D01*
X10683175Y-22824461D02*
X10683175Y-22843509D01*
X10683175Y-22843509D02*
X10587936Y-22862557D01*
X10759365Y-22919699D02*
X10778413Y-22929223D01*
X10778413Y-22929223D02*
X10816508Y-22929223D01*
X10816508Y-22929223D02*
X10835556Y-22919699D01*
X10835556Y-22919699D02*
X10845079Y-22900652D01*
X10845079Y-22900652D02*
X10845079Y-22891128D01*
X10845079Y-22891128D02*
X10835556Y-22872080D01*
X10835556Y-22872080D02*
X10816508Y-22862557D01*
X10816508Y-22862557D02*
X10787936Y-22862557D01*
X10787936Y-22862557D02*
X10768889Y-22853033D01*
X10768889Y-22853033D02*
X10759365Y-22833985D01*
X10759365Y-22833985D02*
X10759365Y-22824461D01*
X10759365Y-22824461D02*
X10768889Y-22805414D01*
X10768889Y-22805414D02*
X10787936Y-22795890D01*
X10787936Y-22795890D02*
X10816508Y-22795890D01*
X10816508Y-22795890D02*
X10835556Y-22805414D01*
X10911746Y-23005414D02*
X10921270Y-22995890D01*
X10921270Y-22995890D02*
X10940317Y-22967318D01*
X10940317Y-22967318D02*
X10949841Y-22948271D01*
X10949841Y-22948271D02*
X10959365Y-22919699D01*
X10959365Y-22919699D02*
X10968889Y-22872080D01*
X10968889Y-22872080D02*
X10968889Y-22833985D01*
X10968889Y-22833985D02*
X10959365Y-22786366D01*
X10959365Y-22786366D02*
X10949841Y-22757795D01*
X10949841Y-22757795D02*
X10940317Y-22738747D01*
X10940317Y-22738747D02*
X10921270Y-22710176D01*
X10921270Y-22710176D02*
X10911746Y-22700652D01*
M02*
